<svg width="560" height="420" viewBox="0 0 560 420" fill="none" xmlns="http://www.w3.org/2000/svg">
<path d="M307.049 48.1522C347.231 52.4485 391.124 38.2734 425.706 59.1812C461.03 80.5372 481.984 120.82 493.03 160.592C503.593 198.623 493.289 237.963 486.142 276.781C479.192 314.53 486.154 367.544 451.782 384.627C411.455 404.671 366.428 362.462 321.562 358.58C300.022 356.716 279.927 365.089 258.489 367.903C228.713 371.812 198.565 389.231 170.553 378.403C141.747 367.267 126.689 336.388 109.903 310.466C89.9035 279.579 60.6163 249.253 63.1545 212.544C65.6968 175.777 101.04 151.427 122.949 121.791C145.74 90.9626 159.187 48.7292 194.783 34.4909C230.392 20.2477 268.915 44.0749 307.049 48.1522Z" fill="#6AAB3D" fill-opacity="0.08"/>
</svg>
