<svg width="72" height="72" viewBox="0 0 72 72" fill="none" xmlns="http://www.w3.org/2000/svg">
<path d="M58.4982 40.5C58.5039 41.4174 58.2252 42.314 57.7004 43.0665C57.1756 43.8189 56.4305 44.3903 55.5676 44.7019L41.0607 50.0625L35.717 64.5806C35.4005 65.4403 34.828 66.1823 34.0766 66.7063C33.3253 67.2304 32.4312 67.5114 31.5151 67.5114C30.599 67.5114 29.705 67.2304 28.9536 66.7063C28.2022 66.1823 27.6297 65.4403 27.3132 64.5806L21.9357 50.0625L7.41762 44.7187C6.55793 44.4023 5.81598 43.8298 5.2919 43.0784C4.76781 42.327 4.48682 41.433 4.48682 40.5169C4.48682 39.6008 4.76781 38.7067 5.2919 37.9554C5.81598 37.204 6.55793 36.6314 7.41762 36.315L21.9357 30.9375L27.2795 16.4194C27.596 15.5597 28.1685 14.8177 28.9199 14.2936C29.6712 13.7696 30.5653 13.4886 31.4814 13.4886C32.3975 13.4886 33.2915 13.7696 34.0429 14.2936C34.7943 14.8177 35.3668 15.5597 35.6832 16.4194L41.0607 30.9375L55.5789 36.2812C56.4424 36.5957 57.187 37.1704 57.7099 37.926C58.2328 38.6817 58.5083 39.5811 58.4982 40.5ZM42.7482 13.5H47.2482V18C47.2482 18.5967 47.4853 19.169 47.9073 19.591C48.3292 20.0129 48.9015 20.25 49.4982 20.25C50.095 20.25 50.6673 20.0129 51.0892 19.591C51.5112 19.169 51.7482 18.5967 51.7482 18V13.5H56.2482C56.845 13.5 57.4173 13.2629 57.8392 12.841C58.2612 12.419 58.4982 11.8467 58.4982 11.25C58.4982 10.6533 58.2612 10.081 57.8392 9.65901C57.4173 9.23705 56.845 9 56.2482 9H51.7482V4.5C51.7482 3.90326 51.5112 3.33097 51.0892 2.90901C50.6673 2.48705 50.095 2.25 49.4982 2.25C48.9015 2.25 48.3292 2.48705 47.9073 2.90901C47.4853 3.33097 47.2482 3.90326 47.2482 4.5V9H42.7482C42.1515 9 41.5792 9.23705 41.1573 9.65901C40.7353 10.081 40.4982 10.6533 40.4982 11.25C40.4982 11.8467 40.7353 12.419 41.1573 12.841C41.5792 13.2629 42.1515 13.5 42.7482 13.5ZM67.4982 22.5H65.2482V20.25C65.2482 19.6533 65.0112 19.081 64.5892 18.659C64.1673 18.2371 63.595 18 62.9982 18C62.4015 18 61.8292 18.2371 61.4072 18.659C60.9853 19.081 60.7482 19.6533 60.7482 20.25V22.5H58.4982C57.9015 22.5 57.3292 22.7371 56.9073 23.159C56.4853 23.581 56.2482 24.1533 56.2482 24.75C56.2482 25.3467 56.4853 25.919 56.9073 26.341C57.3292 26.7629 57.9015 27 58.4982 27H60.7482V29.25C60.7482 29.8467 60.9853 30.419 61.4072 30.841C61.8292 31.2629 62.4015 31.5 62.9982 31.5C63.595 31.5 64.1673 31.2629 64.5892 30.841C65.0112 30.419 65.2482 29.8467 65.2482 29.25V27H67.4982C68.095 27 68.6673 26.7629 69.0892 26.341C69.5112 25.919 69.7482 25.3467 69.7482 24.75C69.7482 24.1533 69.5112 23.581 69.0892 23.159C68.6673 22.7371 68.095 22.5 67.4982 22.5Z" fill="#DFAF37"/>
</svg>
