<svg width="20" height="20" viewBox="0 0 20 20" fill="none" xmlns="http://www.w3.org/2000/svg">
<mask id="mask0_26_28" style="mask-type:alpha" maskUnits="userSpaceOnUse" x="0" y="0" width="20" height="20">
<rect width="20" height="20" fill="#D9D9D9"/>
</mask>
<g mask="url(#mask0_26_28)">
<path d="M15.7052 12.46C15.0556 12.46 14.5099 12.2378 14.0681 11.7933C13.6263 11.3489 13.4054 10.8019 13.4054 10.1523C13.4054 9.50271 13.6263 8.95569 14.0681 8.51125C14.5099 8.06681 15.0556 7.84458 15.7052 7.84458C16.3494 7.84458 16.8937 8.06681 17.3381 8.51125C17.7826 8.95569 18.0048 9.50271 18.0048 10.1523C18.0048 10.8019 17.7826 11.3489 17.3381 11.7933C16.8937 12.2378 16.3494 12.46 15.7052 12.46ZM7.63626 14.0465L6.75814 13.1635L9.12022 10.7773H1.9873V9.52729H9.12835L6.75814 7.13625L7.63626 6.25L11.5225 10.1523L7.63626 14.0465Z" fill="#2B2B2B"/>
</g>
</svg>
