<svg width="144" height="166" viewBox="0 0 144 166" fill="none" xmlns="http://www.w3.org/2000/svg">
<circle cx="8" cy="45.3038" r="6" fill="white"/>
<circle cx="138" cy="45.8038" r="6" fill="white"/>
<circle cx="138" cy="70.8038" r="3" fill="white"/>
<circle cx="138" cy="95.8038" r="3" fill="white"/>
<circle cx="138" cy="120.804" r="6" fill="white"/>
<circle cx="8.19615" cy="121" r="6" transform="rotate(-60 8.19615 121)" fill="white"/>
<circle cx="29.6962" cy="133" r="6" transform="rotate(-60 29.6962 133)" fill="white"/>
<circle cx="51.6962" cy="145.5" r="6" transform="rotate(-60 51.6962 145.5)" fill="white"/>
<circle cx="73" cy="132.804" r="3" fill="white"/>
<circle cx="94.5" cy="120.304" r="3" fill="white"/>
<circle cx="116" cy="107.804" r="3" fill="white"/>
<circle cx="116.196" cy="58.5" r="6" transform="rotate(-60 116.196 58.5)" fill="white"/>
<circle cx="116" cy="83.8038" r="3" fill="white"/>
<circle cx="94.5" cy="45.3038" r="3" fill="white"/>
<circle cx="73" cy="33.3038" r="3" fill="white"/>
<circle cx="73.1481" cy="157.5" r="6" transform="rotate(-60 73.1481 157.5)" fill="white"/>
<circle cx="94.6962" cy="21" r="6" transform="rotate(-60 94.6962 21)" fill="white"/>
<circle cx="116.196" cy="33.5" r="6" transform="rotate(-60 116.196 33.5)" fill="white"/>
<circle cx="8" cy="70.8038" r="6" fill="white"/>
<circle cx="8" cy="95.8038" r="6" fill="white"/>
<circle cx="94.6962" cy="145.5" r="6" transform="rotate(-120 94.6962 145.5)" fill="white"/>
<circle cx="116.196" cy="133" r="6" transform="rotate(-120 116.196 133)" fill="white"/>
<circle cx="72.9975" cy="8.49999" r="6" transform="rotate(60 72.9975 8.49999)" fill="white"/>
<circle cx="51.6962" cy="21" r="6" transform="rotate(60 51.6962 21)" fill="white"/>
<circle cx="29.6962" cy="33.5" r="6" transform="rotate(60 29.6962 33.5)" fill="white"/>
<circle cx="29.5" cy="58.3038" r="3" fill="white"/>
<circle cx="29.5" cy="83.3038" r="3" fill="white"/>
<circle cx="29.5" cy="108.304" r="3" fill="white"/>
<circle cx="51.5" cy="120.304" r="3" fill="white"/>
<circle cx="73" cy="107.804" r="3" fill="white"/>
<circle cx="94.5" cy="95.8038" r="3" fill="white"/>
<circle cx="94.6962" cy="71" r="6" transform="rotate(60 94.6962 71)" fill="white"/>
<circle cx="73" cy="58.3038" r="3" fill="white"/>
<circle cx="51.5" cy="70.8038" r="3" fill="white"/>
<circle cx="51.5" cy="95.8038" r="3" fill="white"/>
<circle cx="73.1962" cy="83.5" r="6" transform="rotate(60 73.1962 83.5)" fill="white"/>
<circle cx="51.5" cy="45.3038" r="3" fill="white"/>
</svg>
