<svg width="60" height="60" viewBox="0 0 60 60" fill="none" xmlns="http://www.w3.org/2000/svg">
<rect width="60" height="60" rx="8" fill="black"/>
<mask id="path-2-inside-1_505_247" fill="white">
<path d="M15.5 24.0455V28.5909H4V24.0455H15.5ZM6.22727 19.8636H12.5V35.8864C12.5 36.1288 12.5417 36.3333 12.625 36.5C12.7083 36.6591 12.8371 36.7803 13.0114 36.8636C13.1856 36.9394 13.4091 36.9773 13.6818 36.9773C13.8712 36.9773 14.0909 36.9545 14.3409 36.9091C14.5985 36.8636 14.7879 36.8258 14.9091 36.7955L15.8182 41.2045C15.5379 41.2879 15.1364 41.3902 14.6136 41.5114C14.0985 41.6326 13.4848 41.7121 12.7727 41.75C11.3333 41.8258 10.125 41.678 9.14773 41.3068C8.17045 40.928 7.43561 40.3333 6.94318 39.5227C6.45076 38.7121 6.21212 37.697 6.22727 36.4773V19.8636ZM18.0597 41.5V24.0455H24.0142V27.3636H24.196C24.5597 26.2727 25.1809 25.4091 26.0597 24.7727C26.9384 24.1364 27.9839 23.8182 29.196 23.8182C30.4233 23.8182 31.4801 24.1439 32.3665 24.7955C33.2528 25.4394 33.7869 26.2955 33.9688 27.3636H34.1506C34.446 26.2955 35.0748 25.4394 36.0369 24.7955C36.9991 24.1439 38.1278 23.8182 39.4233 23.8182C41.0975 23.8182 42.4536 24.3561 43.4915 25.4318C44.5369 26.5076 45.0597 27.9394 45.0597 29.7273V41.5H38.7869V31.3182C38.7869 30.553 38.5938 29.9545 38.2074 29.5227C37.821 29.0833 37.3021 28.8636 36.6506 28.8636C36.0066 28.8636 35.4953 29.0833 35.1165 29.5227C34.7453 29.9545 34.5597 30.553 34.5597 31.3182V41.5H28.5597V31.3182C28.5597 30.553 28.3665 29.9545 27.9801 29.5227C27.5938 29.0833 27.0748 28.8636 26.4233 28.8636C25.9915 28.8636 25.6203 28.9621 25.3097 29.1591C24.9991 29.3561 24.7566 29.6402 24.5824 30.0114C24.4157 30.375 24.3324 30.8106 24.3324 31.3182V41.5H18.0597Z"/>
<path d="M51.3239 41.7955C50.5739 41.7955 49.9299 41.5303 49.392 41C48.8617 40.4621 48.5966 39.8182 48.5966 39.0682C48.5966 38.3258 48.8617 37.6894 49.392 37.1591C49.9299 36.6288 50.5739 36.3636 51.3239 36.3636C52.0511 36.3636 52.6875 36.6288 53.233 37.1591C53.7784 37.6894 54.0511 38.3258 54.0511 39.0682C54.0511 39.5682 53.9223 40.0265 53.6648 40.4432C53.4148 40.8523 53.0852 41.1818 52.6761 41.4318C52.267 41.6742 51.8163 41.7955 51.3239 41.7955Z"/>
</mask>
<path d="M15.5 24.0455V28.5909H4V24.0455H15.5ZM6.22727 19.8636H12.5V35.8864C12.5 36.1288 12.5417 36.3333 12.625 36.5C12.7083 36.6591 12.8371 36.7803 13.0114 36.8636C13.1856 36.9394 13.4091 36.9773 13.6818 36.9773C13.8712 36.9773 14.0909 36.9545 14.3409 36.9091C14.5985 36.8636 14.7879 36.8258 14.9091 36.7955L15.8182 41.2045C15.5379 41.2879 15.1364 41.3902 14.6136 41.5114C14.0985 41.6326 13.4848 41.7121 12.7727 41.75C11.3333 41.8258 10.125 41.678 9.14773 41.3068C8.17045 40.928 7.43561 40.3333 6.94318 39.5227C6.45076 38.7121 6.21212 37.697 6.22727 36.4773V19.8636ZM18.0597 41.5V24.0455H24.0142V27.3636H24.196C24.5597 26.2727 25.1809 25.4091 26.0597 24.7727C26.9384 24.1364 27.9839 23.8182 29.196 23.8182C30.4233 23.8182 31.4801 24.1439 32.3665 24.7955C33.2528 25.4394 33.7869 26.2955 33.9688 27.3636H34.1506C34.446 26.2955 35.0748 25.4394 36.0369 24.7955C36.9991 24.1439 38.1278 23.8182 39.4233 23.8182C41.0975 23.8182 42.4536 24.3561 43.4915 25.4318C44.5369 26.5076 45.0597 27.9394 45.0597 29.7273V41.5H38.7869V31.3182C38.7869 30.553 38.5938 29.9545 38.2074 29.5227C37.821 29.0833 37.3021 28.8636 36.6506 28.8636C36.0066 28.8636 35.4953 29.0833 35.1165 29.5227C34.7453 29.9545 34.5597 30.553 34.5597 31.3182V41.5H28.5597V31.3182C28.5597 30.553 28.3665 29.9545 27.9801 29.5227C27.5938 29.0833 27.0748 28.8636 26.4233 28.8636C25.9915 28.8636 25.6203 28.9621 25.3097 29.1591C24.9991 29.3561 24.7566 29.6402 24.5824 30.0114C24.4157 30.375 24.3324 30.8106 24.3324 31.3182V41.5H18.0597Z" fill="white"/>
<path d="M15.5 24.0455H17V22.5455H15.5V24.0455ZM15.5 28.5909V30.0909H17V28.5909H15.5ZM4 28.5909H2.5V30.0909H4V28.5909ZM4 24.0455V22.5455H2.5V24.0455H4ZM6.22727 19.8636V18.3636H4.72727V19.8636H6.22727ZM12.5 19.8636H14V18.3636H12.5V19.8636ZM12.625 36.5L11.2834 37.1708L11.2897 37.1835L11.2963 37.196L12.625 36.5ZM13.0114 36.8636L12.3642 38.2168L12.3885 38.2285L12.4133 38.2392L13.0114 36.8636ZM14.3409 36.9091L14.0802 35.4319L14.0726 35.4333L14.3409 36.9091ZM14.9091 36.7955L16.3782 36.4925L16.0624 34.961L14.5453 35.3402L14.9091 36.7955ZM15.8182 41.2045L16.2456 42.6423L17.5653 42.25L17.2873 40.9016L15.8182 41.2045ZM14.6136 41.5114L14.2748 40.0501L14.2701 40.0512L14.6136 41.5114ZM12.7727 41.75L12.8516 43.2479L12.8524 43.2479L12.7727 41.75ZM9.14773 41.3068L8.60562 42.7055L8.61509 42.7091L9.14773 41.3068ZM6.94318 39.5227L5.66119 40.3015L5.66119 40.3015L6.94318 39.5227ZM6.22727 36.4773L7.72716 36.4959L7.72727 36.4866V36.4773H6.22727ZM14 24.0455V28.5909H17V24.0455H14ZM15.5 27.0909H4V30.0909H15.5V27.0909ZM5.5 28.5909V24.0455H2.5V28.5909H5.5ZM4 25.5455H15.5V22.5455H4V25.5455ZM6.22727 21.3636H12.5V18.3636H6.22727V21.3636ZM11 19.8636V35.8864H14V19.8636H11ZM11 35.8864C11 36.2941 11.0694 36.7429 11.2834 37.1708L13.9666 35.8292C13.9904 35.8766 13.9987 35.9108 14.0011 35.9222C14.0032 35.9327 14 35.9227 14 35.8864H11ZM11.2963 37.196C11.5415 37.6642 11.9212 38.005 12.3642 38.2168L13.6585 35.5104C13.6983 35.5294 13.7539 35.5631 13.8121 35.6179C13.8712 35.6735 13.9192 35.738 13.9537 35.804L11.2963 37.196ZM12.4133 38.2392C12.8396 38.4246 13.286 38.4773 13.6818 38.4773V35.4773C13.6132 35.4773 13.5746 35.4724 13.5603 35.47C13.5459 35.4675 13.5664 35.4693 13.6095 35.488L12.4133 38.2392ZM13.6818 38.4773C13.9857 38.4773 14.2986 38.4414 14.6092 38.3849L14.0726 35.4333C13.8832 35.4677 13.7567 35.4773 13.6818 35.4773V38.4773ZM14.6016 38.3863C14.865 38.3398 15.0977 38.2945 15.2729 38.2507L14.5453 35.3402C14.478 35.3571 14.332 35.3875 14.0802 35.4319L14.6016 38.3863ZM13.44 37.0984L14.3491 41.5075L17.2873 40.9016L16.3782 36.4925L13.44 37.0984ZM15.3907 39.7667C15.1544 39.837 14.7879 39.9312 14.2748 40.0501L14.9525 42.9726C15.4848 42.8491 15.9213 42.7388 16.2456 42.6423L15.3907 39.7667ZM14.2701 40.0512C13.8655 40.1464 13.3447 40.2175 12.6931 40.2521L12.8524 43.2479C13.625 43.2068 14.3315 43.1187 14.9572 42.9715L14.2701 40.0512ZM12.6939 40.2521C11.3888 40.3208 10.4037 40.1793 9.68036 39.9046L8.61509 42.7091C9.84633 43.1767 11.2779 43.3308 12.8516 43.2479L12.6939 40.2521ZM9.68983 39.9082C8.9865 39.6356 8.52786 39.2422 8.22517 38.7439L5.66119 40.3015C6.34335 41.4245 7.35441 42.2205 8.60563 42.7054L9.68983 39.9082ZM8.22517 38.7439C7.91493 38.2332 7.71451 37.5139 7.72716 36.4959L4.72739 36.4586C4.70973 37.8801 4.98658 39.191 5.66119 40.3015L8.22517 38.7439ZM7.72727 36.4773V19.8636H4.72727V36.4773H7.72727ZM18.0597 41.5H16.5597V43H18.0597V41.5ZM18.0597 24.0455V22.5455H16.5597V24.0455H18.0597ZM24.0142 24.0455H25.5142V22.5455H24.0142V24.0455ZM24.0142 27.3636H22.5142V28.8636H24.0142V27.3636ZM24.196 27.3636V28.8636H25.2772L25.619 27.838L24.196 27.3636ZM26.0597 24.7727L25.1799 23.5578L25.1799 23.5578L26.0597 24.7727ZM32.3665 24.7955L31.4781 26.0041L31.4848 26.009L32.3665 24.7955ZM33.9688 27.3636L32.49 27.6153L32.7025 28.8636H33.9688V27.3636ZM34.1506 27.3636V28.8636H35.292L35.5963 27.7635L34.1506 27.3636ZM36.0369 24.7955L36.8713 26.042L36.878 26.0375L36.0369 24.7955ZM43.4915 25.4318L42.412 26.4733L42.4158 26.4772L43.4915 25.4318ZM45.0597 41.5V43H46.5597V41.5H45.0597ZM38.7869 41.5H37.2869V43H38.7869V41.5ZM38.2074 29.5227L37.0809 30.5133L37.0895 30.5229L38.2074 29.5227ZM35.1165 29.5227L33.9804 28.5433L33.979 28.5449L35.1165 29.5227ZM34.5597 41.5V43H36.0597V41.5H34.5597ZM28.5597 41.5H27.0597V43H28.5597V41.5ZM27.9801 29.5227L26.8536 30.5133L26.8623 30.5229L27.9801 29.5227ZM25.3097 29.1591L26.113 30.4259L26.113 30.4259L25.3097 29.1591ZM24.5824 30.0114L23.2245 29.374L23.2188 29.3864L24.5824 30.0114ZM24.3324 41.5V43H25.8324V41.5H24.3324ZM19.5597 41.5V24.0455H16.5597V41.5H19.5597ZM18.0597 25.5455H24.0142V22.5455H18.0597V25.5455ZM22.5142 24.0455V27.3636H25.5142V24.0455H22.5142ZM24.0142 28.8636H24.196V25.8636H24.0142V28.8636ZM25.619 27.838C25.8898 27.0258 26.3304 26.4287 26.9394 25.9876L25.1799 23.5578C24.0314 24.3895 23.2295 25.5197 22.773 26.8893L25.619 27.838ZM26.9394 25.9876C27.5326 25.5581 28.2611 25.3182 29.196 25.3182V22.3182C27.7067 22.3182 26.3443 22.7146 25.1799 23.5578L26.9394 25.9876ZM29.196 25.3182C30.1424 25.3182 30.8788 25.5636 31.4781 26.0041L33.2549 23.5868C32.0814 22.7243 30.7041 22.3182 29.196 22.3182V25.3182ZM31.4848 26.009C32.0581 26.4255 32.3748 26.9382 32.49 27.6153L35.4475 27.1119C35.1991 25.6527 34.4476 24.4533 33.2481 23.5819L31.4848 26.009ZM33.9688 28.8636H34.1506V25.8636H33.9688V28.8636ZM35.5963 27.7635C35.7914 27.0582 36.1932 26.4958 36.8712 26.042L35.2026 23.5489C33.9564 24.383 33.1007 25.5327 32.7049 26.9638L35.5963 27.7635ZM36.878 26.0375C37.5638 25.5731 38.3919 25.3182 39.4233 25.3182V22.3182C37.8638 22.3182 36.4343 22.7148 35.1959 23.5534L36.878 26.0375ZM39.4233 25.3182C40.7441 25.3182 41.692 25.7271 42.412 26.4733L44.571 24.3903C43.2152 22.985 41.451 22.3182 39.4233 22.3182V25.3182ZM42.4158 26.4772C43.1381 27.2205 43.5597 28.2498 43.5597 29.7273H46.5597C46.5597 27.629 45.9358 25.7947 44.5672 24.3864L42.4158 26.4772ZM43.5597 29.7273V41.5H46.5597V29.7273H43.5597ZM45.0597 40H38.7869V43H45.0597V40ZM40.2869 41.5V31.3182H37.2869V41.5H40.2869ZM40.2869 31.3182C40.2869 30.3046 40.0277 29.3077 39.3253 28.5225L37.0895 30.5229C37.1598 30.6014 37.2869 30.8015 37.2869 31.3182H40.2869ZM39.3338 28.5322C38.6284 27.73 37.6786 27.3636 36.6506 27.3636V30.3636C36.9256 30.3636 37.0136 30.4367 37.0809 30.5132L39.3338 28.5322ZM36.6506 27.3636C35.6241 27.3636 34.6775 27.7346 33.9804 28.5433L36.2526 30.5021C36.313 30.432 36.3891 30.3636 36.6506 30.3636V27.3636ZM33.979 28.5449C33.3039 29.3302 33.0597 30.3185 33.0597 31.3182H36.0597C36.0597 30.7876 36.1866 30.5789 36.254 30.5006L33.979 28.5449ZM33.0597 31.3182V41.5H36.0597V31.3182H33.0597ZM34.5597 40H28.5597V43H34.5597V40ZM30.0597 41.5V31.3182H27.0597V41.5H30.0597ZM30.0597 31.3182C30.0597 30.3046 29.8005 29.3077 29.098 28.5225L26.8623 30.5229C26.9325 30.6014 27.0597 30.8015 27.0597 31.3182H30.0597ZM29.1066 28.5322C28.4012 27.73 27.4513 27.3636 26.4233 27.3636V30.3636C26.6983 30.3636 26.7863 30.4367 26.8537 30.5132L29.1066 28.5322ZM26.4233 27.3636C25.7573 27.3636 25.0964 27.5181 24.5063 27.8923L26.113 30.4259C26.1441 30.4061 26.2256 30.3636 26.4233 30.3636V27.3636ZM24.5063 27.8923C23.9277 28.2593 23.5056 28.7752 23.2245 29.374L25.9402 30.6487C26.0076 30.5051 26.0704 30.4529 26.113 30.4259L24.5063 27.8923ZM23.2188 29.3864C22.9415 29.9914 22.8324 30.651 22.8324 31.3182H25.8324C25.8324 30.9702 25.8899 30.7586 25.946 30.6363L23.2188 29.3864ZM22.8324 31.3182V41.5H25.8324V31.3182H22.8324ZM24.3324 40H18.0597V43H24.3324V40ZM49.392 41L48.3239 42.0531L48.3314 42.0607L48.3389 42.0682L49.392 41ZM49.392 37.1591L48.3389 36.0909L48.3314 36.0984L49.392 37.1591ZM53.233 37.1591L52.1873 38.2346L52.1873 38.2346L53.233 37.1591ZM53.6648 40.4432L52.3889 39.6544L52.3849 39.661L53.6648 40.4432ZM52.6761 41.4318L53.4408 42.7223L53.4496 42.7171L53.4583 42.7117L52.6761 41.4318ZM51.3239 40.2955C50.9711 40.2955 50.7046 40.1876 50.4452 39.9318L48.3389 42.0682C49.1552 42.873 50.1766 43.2955 51.3239 43.2955V40.2955ZM50.4602 39.9469C50.2044 39.6874 50.0966 39.4209 50.0966 39.0682H47.0966C47.0966 40.2155 47.5191 41.2368 48.3239 42.0531L50.4602 39.9469ZM50.0966 39.0682C50.0966 38.7281 50.2005 38.472 50.4527 38.2198L48.3314 36.0984C47.523 36.9068 47.0966 37.9234 47.0966 39.0682H50.0966ZM50.4452 38.2272C50.7046 37.9714 50.9711 37.8636 51.3239 37.8636V34.8636C50.1766 34.8636 49.1552 35.2861 48.3389 36.0909L50.4452 38.2272ZM51.3239 37.8636C51.6411 37.8636 51.9076 37.9626 52.1873 38.2346L54.2786 36.0836C53.4674 35.295 52.4611 34.8636 51.3239 34.8636V37.8636ZM52.1873 38.2346C52.4504 38.4903 52.5511 38.742 52.5511 39.0682H55.5511C55.5511 37.9095 55.1065 36.8885 54.2786 36.0836L52.1873 38.2346ZM52.5511 39.0682C52.5511 39.2956 52.4968 39.4799 52.3889 39.6544L54.9407 41.2319C55.3479 40.5731 55.5511 39.8407 55.5511 39.0682H52.5511ZM52.3849 39.661C52.2589 39.867 52.1 40.026 51.894 40.1519L53.4583 42.7117C54.0705 42.3377 54.5706 41.8375 54.9447 41.2254L52.3849 39.661ZM51.9114 40.1414C51.7423 40.2416 51.5572 40.2955 51.3239 40.2955V43.2955C52.0754 43.2955 52.7918 43.1069 53.4408 42.7223L51.9114 40.1414Z" fill="white" mask="url(#path-2-inside-1_505_247)"/>
</svg>
