<svg width="21" height="20" viewBox="0 0 21 20" fill="none" xmlns="http://www.w3.org/2000/svg">
<path d="M4.6665 4.58333C4.6665 3.80978 4.97379 3.06792 5.52078 2.52094C6.06776 1.97395 6.80962 1.66666 7.58317 1.66666H10.4998V7.5H7.58317C6.80962 7.5 6.06776 7.19271 5.52078 6.64573C4.97379 6.09874 4.6665 5.35688 4.6665 4.58333Z" stroke="black" stroke-width="1.5" stroke-linecap="round" stroke-linejoin="round"/>
<path d="M10.5 1.66666H13.4167C13.7997 1.66666 14.179 1.74211 14.5328 1.88868C14.8867 2.03526 15.2082 2.2501 15.4791 2.52094C15.7499 2.79177 15.9647 3.1133 16.1113 3.46717C16.2579 3.82104 16.3333 4.20031 16.3333 4.58333C16.3333 4.96635 16.2579 5.34563 16.1113 5.69949C15.9647 6.05336 15.7499 6.37489 15.4791 6.64573C15.2082 6.91656 14.8867 7.1314 14.5328 7.27798C14.179 7.42456 13.7997 7.5 13.4167 7.5H10.5V1.66666Z" stroke="black" stroke-width="1.5" stroke-linecap="round" stroke-linejoin="round"/>
<path d="M10.5 10.4167C10.5 10.0336 10.5754 9.65437 10.722 9.30051C10.8686 8.94664 11.0834 8.62511 11.3543 8.35427C11.6251 8.08343 11.9466 7.86859 12.3005 7.72202C12.6544 7.57544 13.0336 7.5 13.4167 7.5C13.7997 7.5 14.179 7.57544 14.5328 7.72202C14.8867 7.86859 15.2082 8.08343 15.4791 8.35427C15.7499 8.62511 15.9647 8.94664 16.1113 9.30051C16.2579 9.65437 16.3333 10.0336 16.3333 10.4167C16.3333 10.7997 16.2579 11.179 16.1113 11.5328C15.9647 11.8867 15.7499 12.2082 15.4791 12.4791C15.2082 12.7499 14.8867 12.9647 14.5328 13.1113C14.179 13.2579 13.7997 13.3333 13.4167 13.3333C13.0336 13.3333 12.6544 13.2579 12.3005 13.1113C11.9466 12.9647 11.6251 12.7499 11.3543 12.4791C11.0834 12.2082 10.8686 11.8867 10.722 11.5328C10.5754 11.179 10.5 10.7997 10.5 10.4167Z" stroke="black" stroke-width="1.5" stroke-linecap="round" stroke-linejoin="round"/>
<path d="M4.6665 16.25C4.6665 15.4764 4.97379 14.7346 5.52078 14.1876C6.06776 13.6406 6.80962 13.3333 7.58317 13.3333H10.4998V16.25C10.4998 17.0235 10.1925 17.7654 9.64557 18.3124C9.09858 18.8594 8.35672 19.1667 7.58317 19.1667C6.80962 19.1667 6.06776 18.8594 5.52078 18.3124C4.97379 17.7654 4.6665 17.0235 4.6665 16.25Z" stroke="black" stroke-width="1.5" stroke-linecap="round" stroke-linejoin="round"/>
<path d="M4.6665 10.4167C4.6665 9.64312 4.97379 8.90125 5.52078 8.35427C6.06776 7.80729 6.80962 7.5 7.58317 7.5H10.4998V13.3333H7.58317C6.80962 13.3333 6.06776 13.026 5.52078 12.4791C4.97379 11.9321 4.6665 11.1902 4.6665 10.4167Z" stroke="black" stroke-width="1.5" stroke-linecap="round" stroke-linejoin="round"/>
</svg>
