<svg width="59" height="120" viewBox="0 0 59 120" fill="none" xmlns="http://www.w3.org/2000/svg">
<path d="M49.6472 120L8.87741 119.975C6.5224 119.974 4.26442 119.037 2.59976 117.371C0.935099 115.705 -5.73416e-07 113.447 0 111.092L0.0216951 8.88051C0.021695 7.71404 0.251499 6.559 0.69798 5.48137C1.14446 4.40373 1.79887 3.42462 2.62383 2.59995C3.44879 1.77527 4.42814 1.1212 5.50593 0.675098C6.58372 0.228993 7.73884 -0.000406602 8.9053 5.41003e-07L49.6782 0.024796C52.0329 0.0264396 54.2905 0.963215 55.9547 2.62913C57.6189 4.29504 58.5533 6.55369 58.5525 8.90841L58.5339 111.119C58.5335 112.286 58.3033 113.441 57.8565 114.519C57.4096 115.597 56.7549 116.576 55.9297 117.4C55.1045 118.225 54.125 118.879 53.047 119.325C51.969 119.771 50.8138 120 49.6472 120Z" fill="#3D515A"/>
<path d="M49.6348 3.6392H41.7306C41.21 3.65059 40.7151 3.86821 40.3547 4.24424C39.9944 4.62028 39.7981 5.12398 39.8089 5.64468V7.07672C39.8146 7.3344 39.7696 7.59069 39.6762 7.83095C39.5829 8.07121 39.4432 8.29073 39.265 8.47697C39.0868 8.66321 38.8737 8.81252 38.6378 8.91636C38.4019 9.02021 38.1479 9.07656 37.8902 9.08219L22.4818 9.0853C21.9616 9.0731 21.4676 8.85513 21.1079 8.47918C20.7482 8.10324 20.5523 7.6 20.5631 7.07982V5.62918C20.5748 5.10847 20.3792 4.60444 20.0194 4.22782C19.6597 3.8512 19.1651 3.6328 18.6444 3.62061H15.8547H8.93631C8.11909 3.6202 7.3098 3.78081 6.55468 4.09326C5.79955 4.40571 5.11339 4.86388 4.53539 5.4416C3.95738 6.01931 3.49887 6.70525 3.18604 7.46022C2.87321 8.21519 2.7122 9.0244 2.7122 9.84161L2.6936 109.607C2.6932 110.424 2.85362 111.232 3.16573 111.987C3.47783 112.741 3.9355 113.427 4.51259 114.005C5.08969 114.582 5.77492 115.041 6.52916 115.354C7.28339 115.666 8.09186 115.828 8.90841 115.828L49.5976 115.853C51.2472 115.853 52.8294 115.198 53.9965 114.032C55.1636 112.866 55.82 111.285 55.8217 109.635L55.8403 9.86641C55.8427 8.21785 55.1904 6.63579 54.0268 5.46805C52.8631 4.30032 51.2833 3.64249 49.6348 3.6392Z" fill="white"/>
<path d="M50.8373 13.7131C50.8373 13.741 49.8083 13.772 48.5405 13.7813C47.2727 13.7906 46.2437 13.7813 46.2437 13.7503C46.2437 13.7193 47.2727 13.6945 48.5405 13.6852C49.8083 13.6759 50.8373 13.6883 50.8373 13.7131Z" fill="#3D515A"/>
<path d="M50.8469 14.8874C50.8469 14.9153 49.8178 14.9463 48.55 14.9556C47.2823 14.9649 46.2532 14.9556 46.2532 14.9277C46.2532 14.8998 47.2823 14.8688 48.55 14.8595C49.8178 14.8502 50.8469 14.8626 50.8469 14.8874Z" fill="#3D515A"/>
<path d="M50.8561 16.0622C50.8561 16.0901 49.8271 16.1211 48.5593 16.1304C47.2915 16.1397 46.2625 16.1304 46.2625 16.1025C46.2625 16.0746 47.2915 16.0436 48.5593 16.0343C49.8271 16.025 50.8561 16.0374 50.8561 16.0622Z" fill="#3D515A"/>
<path d="M9.06958 17.4046H9.16257H9.42914L10.4086 17.3829L10.3838 17.4077C10.3838 17.1907 10.3838 16.9551 10.3838 16.6978C10.3838 16.5646 10.3838 16.4406 10.3838 16.2887C10.3981 16.2081 10.4382 16.1343 10.498 16.0784C10.5578 16.0225 10.6341 15.9875 10.7155 15.9787C10.8736 15.9787 11.01 15.9787 11.1835 15.9787C11.2716 15.9949 11.3511 16.0417 11.4079 16.111C11.4646 16.1802 11.495 16.2674 11.4935 16.3569C11.4935 16.6885 11.4935 17.0357 11.4935 17.3922L11.4501 17.3488H12.69L12.6404 17.3953C12.6404 16.8993 12.6404 16.3817 12.6404 15.8454C12.6404 15.7152 12.6404 15.5851 12.6404 15.4549C12.6371 15.3934 12.6197 15.3335 12.5896 15.2797C12.5595 15.226 12.5175 15.1799 12.4668 15.1449L11.9244 14.6118L11.4036 14.0972L11.1525 13.8493C11.0627 13.7656 10.9945 13.6788 10.8953 13.6571C10.8466 13.6444 10.7957 13.6428 10.7463 13.6524C10.697 13.6621 10.6504 13.6827 10.6101 13.7129C10.5357 13.7749 10.4551 13.8648 10.3807 13.9391L9.93748 14.3855C9.65852 14.6769 9.36715 14.9403 9.15637 15.1914C9.09384 15.3368 9.07239 15.4965 9.09438 15.6533C9.09438 15.8051 9.09438 15.9632 9.09438 16.0872C9.09438 16.3569 9.09438 16.5894 9.09438 16.7908C9.09438 16.9923 9.09438 17.1194 9.09438 17.2403C9.09438 17.3612 9.09438 17.3984 9.09438 17.4015C9.09006 17.352 9.09006 17.3022 9.09438 17.2527C9.09438 17.1318 9.09438 16.9861 9.09438 16.8094C9.09438 16.6327 9.09438 16.3724 9.09438 16.1027C9.09438 15.9632 9.09438 15.8144 9.09438 15.6595C9.09438 15.5789 9.09438 15.4983 9.09438 15.4146C9.09415 15.3243 9.11767 15.2356 9.16257 15.1573C9.39195 14.8752 9.66472 14.6273 9.94368 14.3297L10.3869 13.8772C10.4644 13.7997 10.5295 13.7222 10.6256 13.6416C10.676 13.6041 10.7342 13.5782 10.7958 13.5659C10.8575 13.5535 10.9211 13.555 10.9821 13.5703C11.1038 13.6103 11.2114 13.6846 11.292 13.7842L11.5462 14.0321L12.07 14.5436L12.6125 15.0767C12.6626 15.1219 12.7082 15.1717 12.7489 15.2255C12.7889 15.2887 12.8114 15.3615 12.814 15.4363C12.814 15.5665 12.814 15.6967 12.814 15.8299C12.814 16.3569 12.814 16.8714 12.814 17.3798V17.4294H12.7675H11.5276H11.4811V17.386C11.4811 17.0264 11.4811 16.6792 11.4811 16.3476C11.4826 16.2751 11.4586 16.2043 11.4133 16.1477C11.3679 16.0911 11.3042 16.0521 11.2331 16.0376C11.0906 16.0376 10.9232 16.0376 10.7837 16.0376C10.72 16.045 10.6602 16.0719 10.6125 16.1146C10.5648 16.1573 10.5314 16.2138 10.5171 16.2763C10.5171 16.4034 10.5171 16.546 10.5171 16.673V17.4108H10.4923H9.49424H9.15327C9.12523 17.412 9.09714 17.4099 9.06958 17.4046Z" fill="#3D515A"/>
<path d="M47.2697 23.6133H10.5481C8.71124 23.6133 7.22217 25.1024 7.22217 26.9392V28.176C7.22217 30.0128 8.71124 31.5019 10.5481 31.5019H47.2697C49.1066 31.5019 50.5956 30.0128 50.5956 28.176V26.9392C50.5956 25.1024 49.1066 23.6133 47.2697 23.6133Z" fill="#F5F5F5"/>
<path d="M47.2791 31.505L47.5271 31.4833C47.7699 31.4615 48.0098 31.4148 48.2431 31.3438C48.6197 31.2235 48.9723 31.0378 49.2846 30.7952C49.712 30.4697 50.0527 30.0438 50.2765 29.5553C50.4104 29.2606 50.4983 28.9469 50.5368 28.6254C50.5679 28.272 50.5782 27.917 50.5678 27.5623C50.5807 27.1761 50.5631 26.7895 50.5151 26.4061C50.4468 25.9967 50.3006 25.6042 50.0843 25.2499C49.8461 24.8574 49.5283 24.5192 49.1514 24.2571C48.7744 23.9949 48.3468 23.8147 47.8959 23.728C47.3951 23.6684 46.8902 23.6497 46.3864 23.6722H44.7839L10.5606 23.6939C9.74655 23.6963 8.96293 24.0034 8.364 24.5547C7.76508 25.1061 7.39426 25.8616 7.32455 26.6727C7.29975 27.0632 7.32455 27.4786 7.32455 27.8815C7.30441 28.2762 7.34625 28.6715 7.44854 29.0532C7.66013 29.8075 8.13667 30.4601 8.79069 30.8913C9.11037 31.1044 9.46658 31.2567 9.84147 31.3407C10.217 31.4139 10.5999 31.442 10.9821 31.4244H17.727H33.1137L43.4882 31.4523H46.3058L43.4882 31.4678L33.1137 31.4926L17.727 31.5112H10.9604C10.5667 31.5289 10.1722 31.4987 9.78567 31.4213C9.39222 31.3344 9.01815 31.1758 8.6822 30.9533C7.99634 30.5003 7.49587 29.8161 7.27185 29.0253C7.16557 28.6295 7.12165 28.2196 7.14167 27.8102C7.14167 27.4042 7.14167 27.0074 7.15717 26.5859C7.22862 25.7346 7.61705 24.9411 8.24559 24.3625C8.87414 23.7839 9.69698 23.4623 10.5513 23.4614L44.7746 23.4862H46.3771C46.8874 23.464 47.3987 23.4858 47.9052 23.5513C48.5813 23.6832 49.2009 24.0188 49.6807 24.5131C50.1605 25.0073 50.4777 25.6365 50.5895 26.3162C50.6358 26.7039 50.6504 27.0947 50.6329 27.4848C50.6443 27.8427 50.6319 28.201 50.5957 28.5573C50.5526 28.8793 50.4607 29.1929 50.323 29.4872C50.0955 29.9873 49.7458 30.4222 49.3063 30.7518C48.9865 30.9937 48.6266 31.1774 48.2431 31.2942C48.0068 31.3632 47.7635 31.4048 47.5178 31.4182L47.2791 31.505Z" fill="#3D515A"/>
<path d="M47.9392 27.373C47.9237 27.373 47.9237 27.2459 47.8617 27.032C47.7758 26.7313 47.5913 26.4682 47.3379 26.285C47.1363 26.1333 46.8964 26.0408 46.6451 26.0178C46.3938 25.9949 46.1412 26.0424 45.9154 26.1551C45.6896 26.2678 45.4998 26.4411 45.367 26.6557C45.2343 26.8702 45.164 27.1176 45.164 27.3699C45.164 27.6222 45.2343 27.8695 45.367 28.0841C45.4998 28.2986 45.6896 28.472 45.9154 28.5846C46.1412 28.6973 46.3938 28.7448 46.6451 28.7219C46.8964 28.6989 47.1363 28.6064 47.3379 28.4548C47.5915 28.2704 47.776 28.0062 47.8617 27.7046C47.9237 27.4908 47.9237 27.3637 47.9392 27.3637C47.9452 27.3944 47.9452 27.426 47.9392 27.4567C47.9428 27.5452 47.9344 27.6338 47.9144 27.7201C47.8468 28.0476 47.6643 28.34 47.3999 28.5446C47.203 28.6995 46.9702 28.802 46.723 28.8426C46.4759 28.8833 46.2225 28.8607 45.9864 28.7771C45.6957 28.6727 45.4443 28.481 45.2665 28.2283C45.0888 27.9756 44.9934 27.6742 44.9934 27.3652C44.9934 27.0563 45.0888 26.7549 45.2665 26.5022C45.4443 26.2494 45.6957 26.0578 45.9864 25.9533C46.2223 25.8693 46.4755 25.8463 46.7226 25.8864C46.9698 25.9265 47.2027 26.0284 47.3999 26.1827C47.6621 26.3893 47.844 26.6809 47.9144 27.0072C47.9343 27.0946 47.9427 27.1842 47.9392 27.2738C47.9464 27.3064 47.9464 27.3403 47.9392 27.373Z" fill="#3D515A"/>
<path d="M48.7235 29.8343C48.4572 29.6628 48.2215 29.4481 48.0261 29.1988C47.7922 28.9823 47.5953 28.7289 47.4434 28.4487C47.7104 28.6216 47.9471 28.8373 48.1439 29.0873C48.3774 29.3022 48.5733 29.5547 48.7235 29.8343Z" fill="#3D515A"/>
<path d="M13.0775 26.7687H12.3057V26.5703H14.0849V26.7687H13.31V28.7711H13.0775V26.7687Z" fill="#E0E0E0"/>
<path d="M15.6625 28.0118H14.28C14.2912 28.1741 14.3657 28.3255 14.4875 28.4334C14.6092 28.5412 14.7685 28.5969 14.931 28.5884C15.026 28.5917 15.1205 28.574 15.2079 28.5365C15.2952 28.4989 15.3732 28.4426 15.4362 28.3714L15.5633 28.5171C15.4445 28.6417 15.2916 28.7285 15.1237 28.7666C14.9558 28.8046 14.7804 28.7923 14.6195 28.731C14.4586 28.6698 14.3194 28.5624 14.2193 28.4223C14.1192 28.2822 14.0627 28.1157 14.0569 27.9436C14.0509 27.8344 14.0675 27.7251 14.1056 27.6225C14.1437 27.5199 14.2026 27.4263 14.2785 27.3475C14.3544 27.2687 14.4457 27.2064 14.5468 27.1644C14.6478 27.1225 14.7565 27.1018 14.8659 27.1036C14.9749 27.1017 15.0831 27.1224 15.1837 27.1644C15.2843 27.2065 15.3751 27.269 15.4503 27.348C15.5254 27.4269 15.5834 27.5207 15.6205 27.6232C15.6575 27.7257 15.6729 27.8349 15.6656 27.9436C15.678 27.9622 15.6625 27.9932 15.6625 28.0118ZM14.28 27.8445H15.4517C15.4517 27.6891 15.39 27.5401 15.2801 27.4302C15.1702 27.3203 15.0212 27.2586 14.8659 27.2586C14.7105 27.2586 14.5615 27.3203 14.4516 27.4302C14.3417 27.5401 14.28 27.6891 14.28 27.8445Z" fill="#E0E0E0"/>
<path d="M17.1411 28.7709L16.6173 28.0797L16.0873 28.7709H15.8362L16.4902 27.9216L15.8703 27.1157H16.1213L16.6204 27.7635L17.1163 27.1157H17.3612L16.7413 27.9216L17.4015 28.7709H17.1411Z" fill="#E0E0E0"/>
<path d="M18.6383 28.6685C18.5399 28.7493 18.4153 28.7912 18.2881 28.7863C18.2231 28.7936 18.1572 28.7863 18.0955 28.7648C18.0337 28.7433 17.9775 28.7081 17.9311 28.662C17.8847 28.6159 17.8492 28.56 17.8273 28.4983C17.8054 28.4367 17.7976 28.3709 17.8045 28.3059V27.3047H17.5225V27.1156H17.8169V26.7529H18.0401V27.1156H18.5453V27.3047H18.0401V28.3028C18.0333 28.3431 18.0358 28.3845 18.0475 28.4237C18.0592 28.4629 18.0798 28.4989 18.1077 28.5289C18.1356 28.5589 18.17 28.582 18.2083 28.5966C18.2465 28.6111 18.2876 28.6166 18.3284 28.6127C18.4173 28.6145 18.504 28.5849 18.5732 28.529L18.6383 28.6685Z" fill="#E0E0E0"/>
<path d="M18.5453 37.9956H9.05103V47.4898H18.5453V37.9956Z" fill="#7E7E7E"/>
<path d="M36.8084 39.0186C36.8084 39.062 33.6343 39.0992 29.7195 39.0992C25.8046 39.0992 22.6274 39.062 22.6274 39.0186C22.6274 38.9752 25.8015 38.938 29.7195 38.938C33.6374 38.938 36.8084 38.9721 36.8084 39.0186Z" fill="#7E7E7E"/>
<path d="M48.1159 41.9414C48.1159 41.9879 42.4094 42.022 35.3732 42.022C28.337 42.022 22.6274 41.9879 22.6274 41.9414C22.6274 41.8949 28.3339 41.8608 35.3732 41.8608C42.4125 41.8608 48.1159 41.8825 48.1159 41.9414Z" fill="#3D515A"/>
<path d="M47.8152 44.0059C47.8152 44.0493 42.177 44.0865 35.2213 44.0865C28.2657 44.0865 22.6274 44.0493 22.6274 44.0059C22.6274 43.9625 28.2657 43.9253 35.2213 43.9253C42.177 43.9253 47.8152 43.9625 47.8152 44.0059Z" fill="#3D515A"/>
<path d="M37.4997 45.9898C37.4997 46.0332 34.1706 46.0704 30.0605 46.0704C25.9504 46.0704 22.6213 46.0332 22.6213 45.9898C22.6213 45.9464 25.9504 45.9092 30.0605 45.9092C34.1706 45.9092 37.4997 45.9433 37.4997 45.9898Z" fill="#3D515A"/>
<path d="M18.5453 53.813H9.05103V63.3072H18.5453V53.813Z" fill="#7E7E7E"/>
<path d="M36.8084 54.833C36.8084 54.8795 33.6343 54.9136 29.7195 54.9136C25.8046 54.9136 22.6274 54.8795 22.6274 54.833C22.6274 54.7865 25.8015 54.7524 29.7195 54.7524C33.6374 54.7524 36.8084 54.7896 36.8084 54.833Z" fill="#7E7E7E"/>
<path d="M48.1159 57.7495C48.1159 57.796 42.4094 57.8301 35.3732 57.8301C28.337 57.8301 22.6274 57.796 22.6274 57.7495C22.6274 57.703 28.3339 57.6689 35.3732 57.6689C42.4125 57.6689 48.1159 57.6999 48.1159 57.7495Z" fill="#3D515A"/>
<path d="M47.8152 59.8233C47.8152 59.8667 42.177 59.9039 35.2213 59.9039C28.2657 59.9039 22.6274 59.8667 22.6274 59.8233C22.6274 59.7799 28.2657 59.7427 35.2213 59.7427C42.177 59.7427 47.8152 59.7768 47.8152 59.8233Z" fill="#3D515A"/>
<path d="M37.4997 61.8037C37.4997 61.8502 34.1706 61.8843 30.0605 61.8843C25.9504 61.8843 22.6213 61.8502 22.6213 61.8037C22.6213 61.7572 25.9504 61.7231 30.0605 61.7231C34.1706 61.7231 37.4997 61.7603 37.4997 61.8037Z" fill="#3D515A"/>
<path d="M18.5453 69.6304H9.05103V79.1246H18.5453V69.6304Z" fill="#7E7E7E"/>
<path d="M36.8084 70.6504C36.8084 70.6969 33.6343 70.731 29.7195 70.731C25.8046 70.731 22.6274 70.6969 22.6274 70.6504C22.6274 70.6039 25.8015 70.5698 29.7195 70.5698C33.6374 70.5698 36.8084 70.607 36.8084 70.6504Z" fill="#7E7E7E"/>
<path d="M48.1159 73.5581C48.1159 73.6015 42.4094 73.6387 35.3732 73.6387C28.337 73.6387 22.6274 73.6015 22.6274 73.5581C22.6274 73.5147 28.3339 73.4775 35.3732 73.4775C42.4125 73.4775 48.1159 73.5178 48.1159 73.5581Z" fill="#3D515A"/>
<path d="M47.8152 75.6408C47.8152 75.6842 42.177 75.7214 35.2213 75.7214C28.2657 75.7214 22.6274 75.6842 22.6274 75.6408C22.6274 75.5974 28.2657 75.5571 35.2213 75.5571C42.177 75.5571 47.8152 75.5943 47.8152 75.6408Z" fill="#3D515A"/>
<path d="M37.4997 77.6216C37.4997 77.6681 34.1706 77.7022 30.0605 77.7022C25.9504 77.7022 22.6213 77.6681 22.6213 77.6216C22.6213 77.5751 25.9504 77.541 30.0605 77.541C34.1706 77.541 37.4997 77.5875 37.4997 77.6216Z" fill="#3D515A"/>
<path d="M18.5453 85.4448H9.05103V94.9391H18.5453V85.4448Z" fill="#7E7E7E"/>
<path d="M36.8084 86.4678C36.8084 86.5112 33.6343 86.5484 29.7195 86.5484C25.8046 86.5484 22.6274 86.5112 22.6274 86.4678C22.6274 86.4244 25.8015 86.3872 29.7195 86.3872C33.6374 86.3872 36.8084 86.4244 36.8084 86.4678Z" fill="#455A64"/>
<path d="M48.1159 89.3662C48.1159 89.4096 42.4094 89.4468 35.3732 89.4468C28.337 89.4468 22.6274 89.4096 22.6274 89.3662C22.6274 89.3228 28.3339 89.2856 35.3732 89.2856C42.4125 89.2856 48.1159 89.3321 48.1159 89.3662Z" fill="#3D515A"/>
<path d="M47.8152 91.4551C47.8152 91.5016 42.177 91.5357 35.2213 91.5357C28.2657 91.5357 22.6274 91.5016 22.6274 91.4551C22.6274 91.4086 28.2657 91.3745 35.2213 91.3745C42.177 91.3745 47.8152 91.4117 47.8152 91.4551Z" fill="#3D515A"/>
<path d="M37.4997 93.439C37.4997 93.4824 34.1706 93.5196 30.0605 93.5196C25.9504 93.5196 22.6213 93.4824 22.6213 93.439C22.6213 93.3956 25.9504 93.3584 30.0605 93.3584C34.1706 93.3584 37.4997 93.3956 37.4997 93.439Z" fill="#3D515A"/>
<path d="M18.5453 101.263H9.05103V110.757H18.5453V101.263Z" fill="#E0E0E0"/>
<path d="M36.8084 102.286C36.8084 102.329 33.6343 102.366 29.7195 102.366C25.8046 102.366 22.6274 102.329 22.6274 102.286C22.6274 102.242 25.8015 102.205 29.7195 102.205C33.6374 102.205 36.8084 102.239 36.8084 102.286Z" fill="#E0E0E0"/>
<path d="M48.1159 105.196C48.1159 105.24 42.4094 105.277 35.3732 105.277C28.337 105.277 22.6274 105.24 22.6274 105.196C22.6274 105.153 28.3339 105.116 35.3732 105.116C42.4125 105.116 48.1159 105.15 48.1159 105.196Z" fill="#EBEBEB"/>
<path d="M47.8152 107.273C47.8152 107.316 42.177 107.354 35.2213 107.354C28.2657 107.354 22.6274 107.316 22.6274 107.273C22.6274 107.23 28.2657 107.192 35.2213 107.192C42.177 107.192 47.8152 107.23 47.8152 107.273Z" fill="#EBEBEB"/>
<path d="M37.4997 109.257C37.4997 109.3 34.1706 109.337 30.0605 109.337C25.9504 109.337 22.6213 109.3 22.6213 109.257C22.6213 109.213 25.9504 109.176 30.0605 109.176C34.1706 109.176 37.4997 109.204 37.4997 109.257Z" fill="#EBEBEB"/>
<g opacity="0.3">
<path d="M18.5453 85.4448H9.05103V94.9391H18.5453V85.4448Z" fill="black"/>
</g>
<g opacity="0.3">
<path d="M18.5453 53.813H9.05103V63.3072H18.5453V53.813Z" fill="black"/>
</g>
</svg>
