<svg width="115" height="121" viewBox="0 0 115 121" fill="none" xmlns="http://www.w3.org/2000/svg">
<path d="M79.3753 120.5L4.20864 120.458C3.09212 120.458 2.02165 120.013 1.23247 119.224C0.443298 118.434 -3.77545e-07 117.363 0 116.246L0.0588857 4.70864C0.0607198 3.59241 0.505195 2.52246 1.29482 1.73348C2.08445 0.944508 3.15475 0.500916 4.27099 0.5L79.4377 0.541566C80.5542 0.542485 81.6247 0.986665 82.4139 1.77649C83.203 2.56631 83.6463 3.63715 83.6463 4.75367L83.5874 116.291C83.5856 117.408 83.1412 118.478 82.3515 119.267C81.5619 120.055 80.4916 120.499 79.3753 120.5Z" fill="#3D515A"/>
<path d="M80.8233 8.79932H2.49756V108.989H80.8233V8.79932Z" fill="white"/>
<path d="M44.996 114.452C44.9953 115.087 44.8066 115.706 44.4537 116.233C44.1008 116.76 43.5996 117.171 43.0135 117.413C42.4273 117.655 41.7825 117.718 41.1605 117.594C40.5385 117.47 39.9673 117.164 39.5191 116.716C39.0708 116.267 38.7657 115.695 38.6422 115.073C38.5187 114.451 38.5824 113.806 38.8253 113.221C39.0682 112.635 39.4793 112.134 40.0067 111.782C40.5341 111.429 41.1541 111.241 41.7884 111.241C42.21 111.241 42.6276 111.324 43.0172 111.485C43.4068 111.646 43.7607 111.883 44.0587 112.181C44.3567 112.479 44.5929 112.833 44.7537 113.223C44.9146 113.613 44.9969 114.031 44.996 114.452Z" fill="#455A64"/>
<path d="M54.0126 3.96387H29.6787C29.4453 3.96387 29.2561 4.15307 29.2561 4.38646V4.86795C29.2561 5.10134 29.4453 5.29054 29.6787 5.29054H54.0126C54.246 5.29054 54.4352 5.10134 54.4352 4.86795V4.38646C54.4352 4.15307 54.246 3.96387 54.0126 3.96387Z" fill="#455A64"/>
<path d="M53.8638 60.7614C53.8638 60.8134 48.1968 60.8515 41.2067 60.8515C34.2165 60.8515 28.5496 60.8134 28.5496 60.7614C28.5496 60.7095 34.2165 60.6714 41.2067 60.6714C48.1968 60.6714 53.8638 60.713 53.8638 60.7614Z" fill="white"/>
<path d="M55.9593 48.1113H29.076C27.1208 48.1113 25.5359 49.6963 25.5359 51.6514V59.0711C25.5359 61.0263 27.1208 62.6112 29.076 62.6112H55.9593C57.9145 62.6112 59.4995 61.0263 59.4995 59.0711V51.6514C59.4995 49.6963 57.9145 48.1113 55.9593 48.1113Z" fill="#7E7E7E"/>
<g opacity="0.3">
<path d="M55.9593 48.1113H29.076C27.1208 48.1113 25.5359 49.6963 25.5359 51.6514V59.0711C25.5359 61.0263 27.1208 62.6112 29.076 62.6112H55.9593C57.9145 62.6112 59.4995 61.0263 59.4995 59.0711V51.6514C59.4995 49.6963 57.9145 48.1113 55.9593 48.1113Z" fill="black"/>
</g>
<path d="M55.9593 46.3589H29.076C27.1208 46.3589 25.5359 47.9438 25.5359 49.899V57.3187C25.5359 59.2738 27.1208 60.8588 29.076 60.8588H55.9593C57.9145 60.8588 59.4995 59.2738 59.4995 57.3187V49.899C59.4995 47.9438 57.9145 46.3589 55.9593 46.3589Z" fill="#7E7E7E"/>
<g opacity="0.4">
<path d="M28.7228 53.9721H56.3093C56.6503 53.9708 56.9877 53.9022 57.3022 53.7704C57.6167 53.6385 57.9021 53.4459 58.1421 53.2037C58.3821 52.9614 58.5719 52.6742 58.7009 52.3585C58.8298 52.0428 58.8952 51.7048 58.8934 51.3638V49.6561C58.8947 49.3154 58.829 48.9778 58.6999 48.6625C58.5707 48.3472 58.3808 48.0604 58.1408 47.8185C57.9009 47.5766 57.6156 47.3844 57.3014 47.2527C56.9871 47.1211 56.65 47.0526 56.3093 47.0513H28.7228C28.3821 47.0526 28.045 47.1211 27.7307 47.2527C27.4165 47.3844 27.1312 47.5766 26.8913 47.8185C26.6513 48.0604 26.4613 48.3472 26.3322 48.6625C26.2031 48.9778 26.1373 49.3154 26.1387 49.6561V51.3638C26.1369 51.7048 26.2023 52.0428 26.3312 52.3585C26.4601 52.6742 26.65 52.9614 26.89 53.2037C27.13 53.4459 27.4154 53.6385 27.7299 53.7704C28.0444 53.9022 28.3818 53.9708 28.7228 53.9721Z" fill="white"/>
</g>
<path d="M26.4123 51.1494C26.4643 51.1494 26.5059 53.1031 26.5059 55.5105C26.5059 57.9179 26.4643 59.8715 26.4123 59.8715C26.3604 59.8715 26.3223 57.9179 26.3223 55.5105C26.3223 53.1031 26.3638 51.1494 26.4123 51.1494Z" fill="white"/>
<path d="M57.1163 46.8364C57.0148 46.8416 56.913 46.8416 56.8115 46.8364L55.942 46.8606L52.7414 46.9126L42.1834 47.02L31.622 47.0719H28.4213H27.5519C27.45 47.076 27.3479 47.0702 27.2471 47.0546L27.5484 47.0338L28.4213 47.0131L31.6185 46.9576L42.18 46.8537L52.7414 46.8018H55.942H56.8115C56.914 46.8035 57.0161 46.815 57.1163 46.8364Z" fill="white"/>
<path d="M52.9008 82.4319C52.9008 82.4804 48.37 82.5219 42.7827 82.5219C37.1954 82.5219 32.6577 82.4804 32.6577 82.4319C32.6577 82.3834 37.1885 82.3418 42.7827 82.3418C48.3769 82.3418 52.9008 82.3834 52.9008 82.4319Z" fill="white"/>
<path d="M51.6157 69.1335C51.6157 69.182 47.3447 69.2236 42.083 69.2236C36.8213 69.2236 32.5469 69.182 32.5469 69.1335C32.5469 69.085 36.8144 69.0435 42.083 69.0435C47.3516 69.0435 51.6157 69.0816 51.6157 69.1335Z" fill="white"/>
<path d="M52.9423 70.0654H32.7581C28.953 70.0654 25.8684 73.1501 25.8684 76.9551V77.6756C25.8684 81.4807 28.953 84.5653 32.7581 84.5653H52.9423C56.7474 84.5653 59.832 81.4807 59.832 77.6756V76.9551C59.832 73.1501 56.7474 70.0654 52.9423 70.0654Z" fill="#7E7E7E"/>
<g opacity="0.3">
<path d="M52.9423 70.0654H32.7581C28.953 70.0654 25.8684 73.1501 25.8684 76.9551V77.6756C25.8684 81.4807 28.953 84.5653 32.7581 84.5653H52.9423C56.7474 84.5653 59.832 81.4807 59.832 77.6756V76.9551C59.832 73.1501 56.7474 70.0654 52.9423 70.0654Z" fill="black"/>
</g>
<path d="M52.9423 67.8799H32.7581C28.953 67.8799 25.8684 70.9645 25.8684 74.7696V75.4901C25.8684 79.2952 28.953 82.3798 32.7581 82.3798H52.9423C56.7474 82.3798 59.832 79.2952 59.832 75.4901V74.7696C59.832 70.9645 56.7474 67.8799 52.9423 67.8799Z" fill="#7E7E7E"/>
<g opacity="0.4">
<path d="M55.8624 69.8991C54.2448 69.0262 52.3154 69.0228 50.4795 69.0401C46.2709 69.0747 41.2759 69.1024 37.0707 69.1405C34.8642 69.1579 32.8725 68.7075 30.8357 69.525C28.7989 70.3425 27.3718 72.7707 27.1882 74.9703L58.7513 74.8248C58.7562 73.8201 58.4905 72.8326 57.9822 71.9659C57.4739 71.0992 56.7417 70.3853 55.8624 69.8991Z" fill="white"/>
</g>
<path d="M33.5028 81.4447C33.3544 81.4629 33.2043 81.4629 33.056 81.4447C32.649 81.4063 32.2473 81.325 31.8574 81.2022C30.551 80.803 29.4063 79.9969 28.59 78.9016C27.7738 77.8062 27.3287 76.4787 27.3197 75.1127C27.3116 74.7036 27.3476 74.2948 27.4271 73.8934C27.4505 73.7463 27.49 73.6023 27.5449 73.4639C27.4747 74.0094 27.4423 74.5592 27.4479 75.1092C27.4909 76.4396 27.9401 77.725 28.7352 78.7926C29.5303 79.8602 30.6332 80.6587 31.8955 81.081C32.4218 81.2407 32.959 81.3623 33.5028 81.4447Z" fill="white"/>
<path d="M58.1692 78.559C58.1346 78.559 58.3424 78.1295 58.5156 77.4159C58.6234 76.998 58.6941 76.5715 58.7269 76.1412C58.7611 75.6156 58.746 75.0879 58.6819 74.5651C58.6063 74.044 58.481 73.5313 58.3078 73.0341C58.1605 72.6278 57.9786 72.2349 57.7639 71.8598C57.3968 71.2224 57.0712 70.8795 57.1127 70.8553C57.1543 70.831 57.2028 70.928 57.3448 71.0839C57.4325 71.1762 57.5135 71.2746 57.5873 71.3783C57.6912 71.5123 57.7872 71.6522 57.8748 71.7974C58.1096 72.1696 58.3068 72.5641 58.4636 72.9752C58.6492 73.482 58.7816 74.0067 58.8585 74.5409C58.9282 75.0773 58.9398 75.6196 58.8932 76.1585C58.851 76.5966 58.7652 77.0295 58.6368 77.4505C58.5916 77.6132 58.536 77.7729 58.4706 77.9286C58.428 78.0475 58.3771 78.1632 58.3182 78.275C58.2804 78.3754 58.2303 78.4708 58.1692 78.559Z" fill="white"/>
<path d="M59.9394 27.6948H25.9758V42.1947H59.9394V27.6948Z" fill="#7E7E7E"/>
<g opacity="0.3">
<path d="M59.9394 27.6948H25.9758V42.1947H59.9394V27.6948Z" fill="black"/>
</g>
<path d="M59.9394 25.8003H25.9758V40.3002H59.9394V25.8003Z" fill="#7E7E7E"/>
<g opacity="0.4">
<path d="M58.5643 26.1294H27.3823C26.8657 26.1294 26.447 26.5481 26.447 27.0646V32.115C26.447 32.6315 26.8657 33.0503 27.3823 33.0503H58.5643C59.0809 33.0503 59.4996 32.6315 59.4996 32.115V27.0646C59.4996 26.5481 59.0809 26.1294 58.5643 26.1294Z" fill="white"/>
</g>
<path d="M26.3708 39.5938C26.3223 39.5938 26.2808 36.9127 26.2808 33.6081C26.2808 30.3036 26.3223 27.626 26.3708 27.626C26.4193 27.626 26.4609 30.3036 26.4609 33.6081C26.4609 36.9127 26.4228 39.5938 26.3708 39.5938Z" fill="white"/>
<path d="M57.9927 40.1238C57.9927 40.1723 51.1099 40.2138 42.6233 40.2138C34.1368 40.2138 27.2471 40.1723 27.2471 40.1238C27.2471 40.0753 34.1298 40.0337 42.6233 40.0337C51.1168 40.0337 57.9927 40.0718 57.9927 40.1238Z" fill="white"/>
<path d="M37.5176 15.9767L37.7012 15.5749C37.9252 15.727 38.189 15.8101 38.4598 15.8139C38.775 15.8139 38.9066 15.71 38.9066 15.5679C38.9066 15.135 37.5661 15.4328 37.5661 14.5773C37.5661 14.1824 37.8813 13.8568 38.536 13.8568C38.8163 13.851 39.0929 13.9217 39.3361 14.0611L39.1733 14.4664C38.9787 14.3525 38.758 14.2904 38.5325 14.2863C38.2173 14.2863 38.096 14.4041 38.096 14.5496C38.096 14.9756 39.4366 14.6812 39.4366 15.5264C39.4366 15.9143 39.1144 16.2434 38.4563 16.2434C38.1238 16.2502 37.7969 16.1573 37.5176 15.9767Z" fill="#3D515A"/>
<path d="M40.2471 14.3176H39.5093V13.8984H41.5183V14.3314H40.7771V16.2019H40.2436L40.2471 14.3176Z" fill="#3D515A"/>
<path d="M42.8554 15.3706V16.1881H42.3358V15.3671L41.4421 13.8984H42.0102L42.6268 14.9376L43.2399 13.8984H43.763L42.8554 15.3706Z" fill="#3D515A"/>
<path d="M43.9673 13.8984H44.5007V15.7689H45.6577V16.2019H43.9673V13.8984Z" fill="#3D515A"/>
<path d="M47.7429 15.762V16.1881H45.9729V13.8984H47.7049V14.3245H46.4925V14.8268H47.5628V15.2424H46.4925V15.7759L47.7429 15.762Z" fill="#3D515A"/>
<path d="M80.7956 88.9126H2.48022V109.01H80.7956V88.9126Z" fill="#F5F5F5"/>
<path d="M67.7679 94.8945H67.2621C64.58 94.8945 62.4058 97.0688 62.4058 99.7509V100.257C62.4058 102.939 64.58 105.113 67.2621 105.113H67.7679C70.45 105.113 72.6243 102.939 72.6243 100.257V99.7509C72.6243 97.0688 70.45 94.8945 67.7679 94.8945Z" fill="#7E7E7E"/>
<path d="M41.4385 94.8945H40.9328C38.2507 94.8945 36.0764 97.0688 36.0764 99.7509V100.257C36.0764 102.939 38.2507 105.113 40.9328 105.113H41.4385C44.1207 105.113 46.2949 102.939 46.2949 100.257V99.7509C46.2949 97.0688 44.1207 94.8945 41.4385 94.8945Z" fill="#7E7E7E"/>
<path d="M41.4387 105.113C41.8615 105.08 42.2809 105.011 42.6926 104.909C43.8113 104.595 44.7799 103.889 45.4221 102.921C45.856 102.255 46.1222 101.495 46.1981 100.704C46.2936 99.7979 46.1859 98.882 45.8828 98.0229C45.5161 97.0844 44.8612 96.2864 44.0123 95.7436C43.5688 95.4531 43.0775 95.2432 42.561 95.1236C42.0263 95.0087 41.4793 94.9622 40.9329 94.985C39.8519 94.9897 38.8034 95.3554 37.954 96.0242C37.1679 96.6541 36.6007 97.516 36.3329 98.487C36.2097 98.9384 36.1503 99.4048 36.1562 99.8726C36.1416 100.314 36.1718 100.757 36.2463 101.192C36.4042 101.971 36.7489 102.7 37.2508 103.316C37.989 104.212 39.0258 104.812 40.1709 105.006L40.4549 105.051L40.7078 105.068C40.8671 105.068 40.9987 105.068 41.1096 105.089H41.3555H41.4387C41.4111 105.094 41.3831 105.094 41.3555 105.089H41.1096C40.9757 105.096 40.8416 105.096 40.7078 105.089H40.4514L40.1605 105.051C39.6594 104.983 39.1734 104.831 38.723 104.601C38.1206 104.302 37.5855 103.884 37.1503 103.371C36.6323 102.741 36.2756 101.995 36.1112 101.196C36.0337 100.751 36 100.3 36.0107 99.8483C36.0034 99.3668 36.0628 98.8865 36.1874 98.4212C36.4591 97.4128 37.0437 96.5165 37.857 95.8614C38.7364 95.1637 39.8242 94.7808 40.9468 94.7737C41.5084 94.7492 42.0709 94.7981 42.6198 94.9192C43.1548 95.0443 43.6636 95.2624 44.1232 95.5635C44.9998 96.1288 45.6752 96.9569 46.0526 97.9293C46.7038 99.8033 46.399 101.74 45.5399 102.962C45.1617 103.517 44.6736 103.989 44.1059 104.348C43.6805 104.623 43.2122 104.824 42.7203 104.944L42.4363 105.013L42.1799 105.048C42.0484 105.071 41.9151 105.083 41.7816 105.082H41.4352L41.4387 105.113Z" fill="#3D515A"/>
<path d="M15.2308 94.8945H14.725C12.0429 94.8945 9.86865 97.0688 9.86865 99.7509V100.257C9.86865 102.939 12.0429 105.113 14.725 105.113H15.2308C17.9129 105.113 20.0872 102.939 20.0872 100.257V99.7509C20.0872 97.0688 17.9129 94.8945 15.2308 94.8945Z" fill="#7E7E7E"/>
<g opacity="0.3">
<path d="M15.2308 94.8945H14.725C12.0429 94.8945 9.86865 97.0688 9.86865 99.7509V100.257C9.86865 102.939 12.0429 105.113 14.725 105.113H15.2308C17.9129 105.113 20.0872 102.939 20.0872 100.257V99.7509C20.0872 97.0688 17.9129 94.8945 15.2308 94.8945Z" fill="black"/>
</g>
<path d="M15.2308 94.0771H14.725C12.0429 94.0771 9.86865 96.2514 9.86865 98.9335V99.4393C9.86865 102.121 12.0429 104.296 14.725 104.296H15.2308C17.9129 104.296 20.0872 102.121 20.0872 99.4393V98.9335C20.0872 96.2514 17.9129 94.0771 15.2308 94.0771Z" fill="#7E7E7E"/>
<g opacity="0.3">
<path d="M14.9779 94.687C13.7836 94.687 12.6383 95.1614 11.7938 96.0059C10.9493 96.8504 10.4749 97.9958 10.4749 99.1901H19.481C19.481 97.9958 19.0066 96.8504 18.1621 96.0059C17.3176 95.1614 16.1722 94.687 14.9779 94.687Z" fill="white"/>
</g>
<path d="M15.7366 103.527C15.6173 103.571 15.4926 103.599 15.3659 103.61C15.0213 103.659 14.6714 103.659 14.3268 103.61C13.1737 103.437 12.1361 102.814 11.4413 101.878C10.7629 100.939 10.4356 99.7915 10.5165 98.6358C10.5375 98.29 10.6003 97.9481 10.7035 97.6174C10.7333 97.4955 10.7812 97.3787 10.8455 97.271C10.7413 97.7267 10.6741 98.19 10.6446 98.6566C10.604 99.7715 10.9355 100.868 11.5868 101.774C11.9518 102.264 12.4156 102.673 12.9481 102.973C13.3788 103.217 13.847 103.389 14.3337 103.482C14.7985 103.546 15.2687 103.561 15.7366 103.527Z" fill="white"/>
<path d="M17.4788 102.487C17.4545 102.46 17.7974 102.214 18.2027 101.687C18.7347 101.009 19.0679 100.197 19.1651 99.3406C19.2624 98.4843 19.1199 97.6178 18.7535 96.8378C18.4729 96.2351 18.1992 95.9164 18.2235 95.8956C18.2477 95.8749 18.3101 95.9614 18.4313 96.1069C18.5998 96.3164 18.746 96.5428 18.8678 96.7824C19.2812 97.5775 19.448 98.4779 19.3468 99.3683C19.2456 100.259 18.881 101.099 18.2997 101.781C18.1293 101.989 17.9365 102.177 17.7247 102.342C17.6503 102.402 17.5674 102.451 17.4788 102.487Z" fill="white"/>
<path d="M13.4433 94.9953C13.4433 95.0438 13.2216 95.1235 12.9583 95.2447C12.6951 95.3659 12.4838 95.4872 12.4526 95.4456C12.4214 95.4041 12.5946 95.2135 12.8821 95.0819C13.1696 94.9503 13.4363 94.9537 13.4433 94.9953Z" fill="white"/>
<path d="M27.3613 108.983C27.3093 108.983 27.2712 104.48 27.2712 98.9374C27.2712 93.3952 27.3093 88.8921 27.3613 88.8921C27.4133 88.8921 27.4514 93.3952 27.4514 98.9374C27.4514 104.48 27.4098 108.983 27.3613 108.983Z" fill="#E0E0E0"/>
<path d="M55.0102 108.983C54.9617 108.983 54.9202 104.48 54.9202 98.9374C54.9202 93.3952 54.9617 88.8921 55.0102 88.8921C55.0587 88.8921 55.1003 93.3952 55.1003 98.9374C55.1003 104.48 55.0587 108.983 55.0102 108.983Z" fill="#E0E0E0"/>
<path d="M78.7864 20.0539C78.7864 20.1059 62.028 20.144 41.3763 20.144C20.7245 20.144 3.94531 20.1059 3.94531 20.0539C3.94531 20.002 20.7002 19.9639 41.3763 19.9639C62.0523 19.9639 78.7864 20.0054 78.7864 20.0539Z" fill="#E0E0E0"/>
<path d="M114.68 26.2124H70.6362V50.1445H114.68V26.2124Z" fill="#F5F5F5"/>
<path d="M114.68 26.2124H70.6362V30.137H114.68V26.2124Z" fill="#E0E0E0"/>
<path d="M73.2721 28.2599C73.2728 28.3573 73.2445 28.4528 73.1909 28.5341C73.1372 28.6154 73.0607 28.679 72.9708 28.7168C72.881 28.7546 72.782 28.7648 72.6864 28.7462C72.5907 28.7276 72.5028 28.681 72.4336 28.6124C72.3645 28.5437 72.3173 28.4561 72.298 28.3606C72.2788 28.2651 72.2883 28.166 72.3254 28.0759C72.3626 27.9859 72.4256 27.9088 72.5066 27.8546C72.5875 27.8004 72.6828 27.7715 72.7802 27.7715C72.9101 27.7715 73.0346 27.8228 73.1268 27.9143C73.2189 28.0058 73.2712 28.13 73.2721 28.2599Z" fill="#F5F5F5"/>
<path d="M75.146 28.2599C75.146 28.3565 75.1174 28.4509 75.0637 28.5312C75.01 28.6116 74.9338 28.6742 74.8445 28.7111C74.7553 28.7481 74.6571 28.7578 74.5623 28.7389C74.4676 28.7201 74.3806 28.6736 74.3122 28.6053C74.2439 28.5369 74.1974 28.4499 74.1786 28.3552C74.1597 28.2604 74.1694 28.1622 74.2064 28.073C74.2433 27.9837 74.3059 27.9075 74.3863 27.8538C74.4666 27.8001 74.561 27.7715 74.6576 27.7715C74.7871 27.7715 74.9114 27.8229 75.003 27.9145C75.0945 28.0061 75.146 28.1304 75.146 28.2599Z" fill="#F5F5F5"/>
<path d="M77.0235 28.2599C77.0235 28.3565 76.9948 28.4509 76.9411 28.5312C76.8875 28.6116 76.8112 28.6742 76.7219 28.7111C76.6327 28.7481 76.5345 28.7578 76.4398 28.7389C76.345 28.7201 76.258 28.6736 76.1897 28.6053C76.1214 28.5369 76.0749 28.4499 76.056 28.3552C76.0372 28.2604 76.0468 28.1622 76.0838 28.073C76.1208 27.9837 76.1834 27.9075 76.2637 27.8538C76.344 27.8001 76.4384 27.7715 76.535 27.7715C76.6646 27.7715 76.7888 27.8229 76.8804 27.9145C76.972 28.0061 77.0235 28.1304 77.0235 28.2599Z" fill="#F5F5F5"/>
<path d="M85.3195 35.3398H75.0559V45.6034H85.3195V35.3398Z" fill="#7E7E7E"/>
<path d="M97.7897 35.3398H87.5261V45.6034H97.7897V35.3398Z" fill="#7E7E7E"/>
<path d="M110.256 35.3398H99.9927V45.6034H110.256V35.3398Z" fill="#455A64"/>
<g opacity="0.4">
<path d="M97.7897 35.3398H87.5261V45.6034H97.7897V35.3398Z" fill="black"/>
</g>
<path d="M114.676 50.1448C114.676 50.1448 114.676 49.9958 114.676 49.7118C114.676 49.4278 114.676 49.019 114.676 48.4613C114.676 47.3633 114.676 45.7491 114.659 43.6777C114.659 39.5383 114.638 33.5631 114.624 26.2127L114.69 26.2785L70.6532 26.3027L70.7433 26.2127C70.7433 34.6681 70.7433 42.7632 70.7433 50.1448L70.6602 50.0582L102.32 50.0998L111.427 50.124H113.852H114.479H114.693H114.489H113.869H111.444L102.355 50.1448L70.6394 50.1864H70.5667V50.1032C70.5667 42.7216 70.5667 34.6265 70.5667 26.1711V26.0811H70.6602L114.697 26.1018H114.766V26.1711C114.766 33.5388 114.738 39.5279 114.731 43.6777C114.731 45.756 114.731 47.3529 114.714 48.4475C114.714 48.9879 114.714 49.4001 114.714 49.6841C114.714 49.9681 114.676 50.1448 114.676 50.1448Z" fill="#263238"/>
</svg>
