<svg width="174" height="122" viewBox="0 0 174 122" fill="none" xmlns="http://www.w3.org/2000/svg">
<path d="M165.721 1.08643H10.5232V120.917H165.721V1.08643Z" fill="white"/>
<path d="M165.721 1.08643H10.5232V13.1684H165.721V1.08643Z" fill="#303F46"/>
<path d="M17.7812 9.01555C18.8229 9.01555 19.6674 8.17107 19.6674 7.12936C19.6674 6.08764 18.8229 5.24316 17.7812 5.24316C16.7395 5.24316 15.895 6.08764 15.895 7.12936C15.895 8.17107 16.7395 9.01555 17.7812 9.01555Z" fill="white"/>
<path d="M23.4775 9.01555C24.5192 9.01555 25.3637 8.17107 25.3637 7.12936C25.3637 6.08764 24.5192 5.24316 23.4775 5.24316C22.4358 5.24316 21.5913 6.08764 21.5913 7.12936C21.5913 8.17107 22.4358 9.01555 23.4775 9.01555Z" fill="white"/>
<path d="M31.0641 7.12936C31.0641 7.50241 30.9535 7.86709 30.7463 8.17727C30.539 8.48745 30.2444 8.72921 29.8998 8.87197C29.5551 9.01473 29.1758 9.05209 28.81 8.97931C28.4441 8.90653 28.108 8.72689 27.8442 8.4631C27.5804 8.19931 27.4008 7.86322 27.328 7.49733C27.2552 7.13145 27.2926 6.7522 27.4353 6.40754C27.5781 6.06288 27.8198 5.7683 28.13 5.56104C28.4402 5.35379 28.8049 5.24316 29.1779 5.24316C29.6782 5.24316 30.158 5.44189 30.5117 5.79562C30.8654 6.14935 31.0641 6.62911 31.0641 7.12936Z" fill="white"/>
<path d="M88.8126 48.3482C88.7642 48.3482 88.7227 46.41 88.7227 44.0186C88.7227 41.6271 88.7642 39.689 88.8126 39.689C88.8611 39.689 88.9026 41.6271 88.9026 44.0186C88.9026 46.41 88.8646 48.3482 88.8126 48.3482Z" fill="#7E7E7E"/>
<path d="M138.106 48.3488C138.106 48.3488 138.106 48.2519 138.106 48.065C138.106 47.8781 138.106 47.5908 138.106 47.2309C138.106 46.4903 138.106 45.4105 138.089 44.0192L138.124 44.0538L88.3073 44.1092L38.4702 44.0538L38.5048 44.0192C38.5048 45.4035 38.5048 46.4903 38.4875 47.2309C38.4875 47.577 38.4875 47.8712 38.4875 48.065C38.4875 48.2588 38.4875 48.3488 38.4875 48.3488C38.4875 48.3488 38.4875 48.2519 38.4875 48.065C38.4875 47.8781 38.4875 47.5908 38.4875 47.2309C38.4875 46.4903 38.4875 45.4105 38.4702 44.0192V43.9846H38.5048L88.3419 43.9292L138.158 43.9846H138.193V44.0192C138.193 45.4035 138.193 46.4903 138.193 47.2309C138.193 47.577 138.193 47.8712 138.193 48.065C138.193 48.2588 138.106 48.3488 138.106 48.3488Z" fill="#7E7E7E"/>
<path d="M38.4704 71.2942C38.4219 71.2942 38.3804 69.5914 38.3804 67.4872C38.3804 65.3829 38.4219 63.6802 38.4704 63.6802C38.5188 63.6802 38.5603 65.3795 38.5603 67.4872C38.5603 69.5949 38.5188 71.2942 38.4704 71.2942Z" fill="#7E7E7E"/>
<path d="M160.515 115.189C160.515 114.753 160.495 98.9403 160.457 71.2946L160.515 71.3499L15.7354 71.3846L15.8289 71.2946C15.8289 86.4776 15.8289 101.242 15.8289 115.189L15.7389 115.099L160.529 115.189L15.7389 115.276H15.6523V115.189C15.6523 101.242 15.6523 86.4637 15.6523 71.2946V71.2046H15.7527L160.533 71.2357H160.592V71.2946C160.547 98.9438 160.515 114.753 160.515 115.189Z" fill="#7E7E7E"/>
<path d="M58.9277 108.88C59.318 108.791 59.7192 108.761 60.1183 108.79C60.3121 108.79 60.499 108.79 60.6582 108.79L60.5786 108.869C60.5654 108.652 60.5924 108.433 60.6582 108.226C60.7262 108.433 60.7544 108.651 60.7412 108.869V108.949H60.6582H60.1183C59.7202 108.987 59.3188 108.963 58.9277 108.88Z" fill="#7E7E7E"/>
<path d="M55.4668 108.88C56.0374 108.76 56.6267 108.76 57.1972 108.88C56.6267 108.999 56.0374 108.999 55.4668 108.88Z" fill="#7E7E7E"/>
<path d="M52.0056 108.88C52.5762 108.76 53.1655 108.76 53.7361 108.88C53.1655 108.999 52.5762 108.999 52.0056 108.88Z" fill="#7E7E7E"/>
<path d="M48.5452 108.88C49.1157 108.76 49.705 108.76 50.2756 108.88C49.705 108.999 49.1157 108.999 48.5452 108.88Z" fill="#7E7E7E"/>
<path d="M45.084 108.88C45.6546 108.76 46.2439 108.76 46.8144 108.88C46.2439 108.999 45.6546 108.999 45.084 108.88Z" fill="#7E7E7E"/>
<path d="M41.623 108.88C42.1936 108.76 42.7829 108.76 43.3535 108.88C42.7829 108.999 42.1936 108.999 41.623 108.88Z" fill="#7E7E7E"/>
<path d="M38.1626 108.88C38.7332 108.76 39.3225 108.76 39.8931 108.88C39.3225 108.999 38.7332 108.999 38.1626 108.88Z" fill="#7E7E7E"/>
<path d="M34.7014 108.88C35.272 108.76 35.8613 108.76 36.4319 108.88C35.8613 108.999 35.272 108.999 34.7014 108.88Z" fill="#7E7E7E"/>
<path d="M31.2402 108.88C31.8108 108.76 32.4001 108.76 32.9707 108.88C32.4001 108.999 31.8108 108.999 31.2402 108.88Z" fill="#7E7E7E"/>
<path d="M27.7793 108.88C28.3499 108.76 28.9392 108.76 29.5097 108.88C28.9392 108.999 28.3499 108.999 27.7793 108.88Z" fill="#7E7E7E"/>
<path d="M24.3188 108.88C24.8894 108.76 25.4787 108.76 26.0493 108.88C25.4787 108.999 24.8894 108.999 24.3188 108.88Z" fill="#7E7E7E"/>
<path d="M21.4183 108.315C21.4598 108.315 21.491 108.551 21.5048 108.88L21.4183 108.797H21.7194C22.0109 108.768 22.3053 108.798 22.5846 108.886C22.3057 108.977 22.0109 109.007 21.7194 108.976H21.3318V108.893C21.3526 108.551 21.3837 108.315 21.4183 108.315Z" fill="#7E7E7E"/>
<path d="M21.4181 104.855C21.5381 105.426 21.5381 106.015 21.4181 106.585C21.2981 106.015 21.2981 105.426 21.4181 104.855Z" fill="#7E7E7E"/>
<path d="M21.4181 101.394C21.5381 101.965 21.5381 102.554 21.4181 103.124C21.2981 102.554 21.2981 101.965 21.4181 101.394Z" fill="#7E7E7E"/>
<path d="M21.4181 97.9326C21.5381 98.5032 21.5381 99.0925 21.4181 99.6631C21.2981 99.0925 21.2981 98.5032 21.4181 97.9326Z" fill="#7E7E7E"/>
<path d="M21.4181 94.4722C21.5381 95.0427 21.5381 95.632 21.4181 96.2026C21.2981 95.632 21.2981 95.0427 21.4181 94.4722Z" fill="#7E7E7E"/>
<path d="M21.4181 91.0112C21.5381 91.5818 21.5381 92.1711 21.4181 92.7417C21.2981 92.1711 21.2981 91.5818 21.4181 91.0112Z" fill="#7E7E7E"/>
<path d="M21.4181 87.5503C21.5381 88.1209 21.5381 88.7102 21.4181 89.2807C21.2981 88.7102 21.2981 88.1209 21.4181 87.5503Z" fill="#7E7E7E"/>
<path d="M21.4181 84.0889C21.5381 84.6594 21.5381 85.2487 21.4181 85.8193C21.2981 85.2487 21.2981 84.6594 21.4181 84.0889Z" fill="#7E7E7E"/>
<path d="M21.4181 80.6284C21.5381 81.199 21.5381 81.7883 21.4181 82.3589C21.2981 81.7883 21.2981 81.199 21.4181 80.6284Z" fill="#7E7E7E"/>
<path d="M21.4181 77.1675C21.5381 77.7381 21.5381 78.3274 21.4181 78.8979C21.2981 78.3274 21.2981 77.7381 21.4181 77.1675Z" fill="#7E7E7E"/>
<path d="M24.5608 76.8453C23.9902 76.9653 23.4009 76.9653 22.8303 76.8453C23.4009 76.7254 23.9902 76.7254 24.5608 76.8453Z" fill="#7E7E7E"/>
<path d="M28.022 76.8453C27.4514 76.9653 26.8621 76.9653 26.2915 76.8453C26.8621 76.7254 27.4514 76.7254 28.022 76.8453Z" fill="#7E7E7E"/>
<path d="M31.4824 76.8453C30.9118 76.9653 30.3225 76.9653 29.752 76.8453C30.3225 76.7254 30.9118 76.7254 31.4824 76.8453Z" fill="#7E7E7E"/>
<path d="M34.9436 76.8453C34.373 76.9653 33.7837 76.9653 33.2131 76.8453C33.7837 76.7254 34.373 76.7254 34.9436 76.8453Z" fill="#7E7E7E"/>
<path d="M38.4045 76.8453C37.8339 76.9653 37.2447 76.9653 36.6741 76.8453C37.2447 76.7254 37.8339 76.7254 38.4045 76.8453Z" fill="#7E7E7E"/>
<path d="M41.8657 76.8453C41.2951 76.9653 40.7058 76.9653 40.1353 76.8453C40.7058 76.7254 41.2951 76.7254 41.8657 76.8453Z" fill="#7E7E7E"/>
<path d="M45.3262 76.8453C44.7556 76.9653 44.1663 76.9653 43.5957 76.8453C44.1663 76.7254 44.7556 76.7254 45.3262 76.8453Z" fill="#7E7E7E"/>
<path d="M48.7873 76.8453C48.2168 76.9653 47.6275 76.9653 47.0569 76.8453C47.6275 76.7254 48.2168 76.7254 48.7873 76.8453Z" fill="#7E7E7E"/>
<path d="M52.2483 76.8453C51.6777 76.9653 51.0884 76.9653 50.5178 76.8453C51.0884 76.7254 51.6777 76.7254 52.2483 76.8453Z" fill="#7E7E7E"/>
<path d="M55.709 76.8453C55.1384 76.9653 54.5491 76.9653 53.9785 76.8453C54.5491 76.7254 55.1384 76.7254 55.709 76.8453Z" fill="#7E7E7E"/>
<path d="M59.1699 76.8453C58.5993 76.9653 58.01 76.9653 57.4395 76.8453C58.01 76.7254 58.5993 76.7254 59.1699 76.8453Z" fill="#7E7E7E"/>
<path d="M60.6581 78.8183C60.5381 78.2478 60.5381 77.6585 60.6581 77.0879C60.7781 77.6585 60.7781 78.2478 60.6581 78.8183Z" fill="#7E7E7E"/>
<path d="M60.6581 82.2793C60.5381 81.7087 60.5381 81.1194 60.6581 80.5488C60.7781 81.1194 60.7781 81.7087 60.6581 82.2793Z" fill="#7E7E7E"/>
<path d="M60.6581 85.7397C60.5381 85.1692 60.5381 84.5799 60.6581 84.0093C60.7781 84.5799 60.7781 85.1692 60.6581 85.7397Z" fill="#7E7E7E"/>
<path d="M60.6581 89.2012C60.5381 88.6306 60.5381 88.0413 60.6581 87.4707C60.7781 88.0413 60.7781 88.6306 60.6581 89.2012Z" fill="#7E7E7E"/>
<path d="M60.6581 92.6621C60.5381 92.0915 60.5381 91.5022 60.6581 90.9316C60.7781 91.5022 60.7781 92.0915 60.6581 92.6621Z" fill="#7E7E7E"/>
<path d="M60.6581 96.123C60.5381 95.5525 60.5381 94.9632 60.6581 94.3926C60.7781 94.9632 60.7781 95.5525 60.6581 96.123Z" fill="#7E7E7E"/>
<path d="M60.6581 99.5835C60.5381 99.0129 60.5381 98.4236 60.6581 97.853C60.7781 98.4236 60.7781 99.0129 60.6581 99.5835Z" fill="#7E7E7E"/>
<path d="M60.6581 103.045C60.5381 102.474 60.5381 101.885 60.6581 101.314C60.7781 101.885 60.7781 102.474 60.6581 103.045Z" fill="#7E7E7E"/>
<path d="M60.6581 106.506C60.5381 105.935 60.5381 105.346 60.6581 104.775C60.7781 105.346 60.7781 105.935 60.6581 106.506Z" fill="#7E7E7E"/>
<path d="M152.742 108.842C153.19 108.751 153.647 108.721 154.102 108.752H154.473L154.386 108.838C154.365 108.506 154.395 108.172 154.473 107.849C154.551 108.172 154.58 108.506 154.559 108.838V108.922H154.102C153.647 108.954 153.19 108.927 152.742 108.842Z" fill="#7E7E7E"/>
<path d="M149.282 108.841C149.852 108.721 150.442 108.721 151.012 108.841C150.442 108.961 149.852 108.961 149.282 108.841Z" fill="#7E7E7E"/>
<path d="M145.821 108.841C146.391 108.721 146.98 108.721 147.551 108.841C146.98 108.961 146.391 108.961 145.821 108.841Z" fill="#7E7E7E"/>
<path d="M142.36 108.841C142.93 108.721 143.519 108.721 144.09 108.841C143.519 108.961 142.93 108.961 142.36 108.841Z" fill="#7E7E7E"/>
<path d="M138.898 108.841C139.469 108.721 140.058 108.721 140.629 108.841C140.058 108.961 139.469 108.961 138.898 108.841Z" fill="#7E7E7E"/>
<path d="M135.438 108.841C136.009 108.721 136.598 108.721 137.168 108.841C136.598 108.961 136.009 108.961 135.438 108.841Z" fill="#7E7E7E"/>
<path d="M131.977 108.841C132.547 108.721 133.137 108.721 133.707 108.841C133.137 108.961 132.547 108.961 131.977 108.841Z" fill="#7E7E7E"/>
<path d="M128.516 108.841C129.086 108.721 129.676 108.721 130.246 108.841C129.676 108.961 129.086 108.961 128.516 108.841Z" fill="#7E7E7E"/>
<path d="M125.055 108.841C125.626 108.721 126.215 108.721 126.786 108.841C126.215 108.961 125.626 108.961 125.055 108.841Z" fill="#7E7E7E"/>
<path d="M121.594 108.841C122.165 108.721 122.754 108.721 123.325 108.841C122.754 108.961 122.165 108.961 121.594 108.841Z" fill="#7E7E7E"/>
<path d="M118.133 108.841C118.704 108.721 119.293 108.721 119.864 108.841C119.293 108.961 118.704 108.961 118.133 108.841Z" fill="#7E7E7E"/>
<path d="M114.673 108.841C115.243 108.721 115.832 108.721 116.403 108.841C115.832 108.961 115.243 108.961 114.673 108.841Z" fill="#7E7E7E"/>
<path d="M111.212 108.841C111.782 108.721 112.372 108.721 112.942 108.841C112.372 108.961 111.782 108.961 111.212 108.841Z" fill="#7E7E7E"/>
<path d="M107.75 108.841C108.321 108.721 108.91 108.721 109.481 108.841C108.91 108.961 108.321 108.961 107.75 108.841Z" fill="#7E7E7E"/>
<path d="M104.29 108.841C104.861 108.721 105.45 108.721 106.02 108.841C105.45 108.961 104.861 108.961 104.29 108.841Z" fill="#7E7E7E"/>
<path d="M100.829 108.841C101.399 108.721 101.989 108.721 102.559 108.841C101.989 108.961 101.399 108.961 100.829 108.841Z" fill="#7E7E7E"/>
<path d="M97.3679 108.841C97.9385 108.721 98.5278 108.721 99.0984 108.841C98.5278 108.961 97.9385 108.961 97.3679 108.841Z" fill="#7E7E7E"/>
<path d="M93.9067 108.841C94.4773 108.721 95.0666 108.721 95.6372 108.841C95.0666 108.961 94.4773 108.961 93.9067 108.841Z" fill="#7E7E7E"/>
<path d="M90.4463 108.841C91.0169 108.721 91.6062 108.721 92.1767 108.841C91.6062 108.961 91.0169 108.961 90.4463 108.841Z" fill="#7E7E7E"/>
<path d="M86.9851 108.841C87.5557 108.721 88.145 108.721 88.7156 108.841C88.145 108.961 87.5557 108.961 86.9851 108.841Z" fill="#7E7E7E"/>
<path d="M83.5242 108.841C84.0947 108.721 84.684 108.721 85.2546 108.841C84.684 108.961 84.0947 108.961 83.5242 108.841Z" fill="#7E7E7E"/>
<path d="M80.0635 108.841C80.6341 108.721 81.2234 108.721 81.7939 108.841C81.2234 108.961 80.6341 108.961 80.0635 108.841Z" fill="#7E7E7E"/>
<path d="M76.6025 108.841C77.1731 108.721 77.7624 108.721 78.333 108.841C77.7624 108.961 77.1731 108.961 76.6025 108.841Z" fill="#7E7E7E"/>
<path d="M73.1414 108.841C73.7119 108.721 74.3012 108.721 74.8718 108.841C74.3012 108.961 73.7119 108.961 73.1414 108.841Z" fill="#7E7E7E"/>
<path d="M70.0892 108.433C70.1203 108.433 70.148 108.596 70.1653 108.841L70.0892 108.765C70.2207 108.765 70.3764 108.765 70.546 108.765C70.8375 108.735 71.1322 108.766 71.4112 108.855C71.1318 108.943 70.8375 108.974 70.546 108.945C70.3764 108.945 70.2207 108.945 70.0892 108.945H70.0061V108.876C70.0269 108.596 70.0546 108.433 70.0892 108.433Z" fill="#7E7E7E"/>
<path d="M70.0893 104.973C70.2093 105.543 70.2093 106.133 70.0893 106.703C69.9647 106.133 69.9647 105.543 70.0893 104.973Z" fill="#7E7E7E"/>
<path d="M70.0893 101.512C70.2093 102.082 70.2093 102.672 70.0893 103.242C69.9647 102.672 69.9647 102.082 70.0893 101.512Z" fill="#7E7E7E"/>
<path d="M70.0893 98.0503C70.2093 98.6209 70.2093 99.2102 70.0893 99.7807C69.9647 99.2107 69.9647 98.6204 70.0893 98.0503Z" fill="#7E7E7E"/>
<path d="M70.0893 94.5894C70.2093 95.1599 70.2093 95.7492 70.0893 96.3198C69.9647 95.7497 69.9647 95.1594 70.0893 94.5894Z" fill="#7E7E7E"/>
<path d="M70.0893 91.1289C70.2093 91.6995 70.2093 92.2888 70.0893 92.8594C69.9647 92.2893 69.9647 91.699 70.0893 91.1289Z" fill="#7E7E7E"/>
<path d="M70.0893 87.668C70.2093 88.2385 70.2093 88.8278 70.0893 89.3984C69.9647 88.8283 69.9647 88.2381 70.0893 87.668Z" fill="#7E7E7E"/>
<path d="M71.3247 85.446C71.0457 85.5357 70.751 85.5663 70.4595 85.536H70.0892L70.1688 85.4529C70.1688 85.7471 70.1238 85.9479 70.0892 85.9479C70.0546 85.9479 70.0199 85.7471 70.0061 85.4529V85.3768H70.0926C70.2034 85.3768 70.328 85.3768 70.4629 85.3768C70.7519 85.3422 71.0449 85.3658 71.3247 85.446Z" fill="#7E7E7E"/>
<path d="M74.7856 85.4459C74.215 85.5659 73.6258 85.5659 73.0552 85.4459C73.6258 85.326 74.215 85.326 74.7856 85.4459Z" fill="#7E7E7E"/>
<path d="M78.2466 85.4459C77.676 85.5659 77.0867 85.5659 76.5161 85.4459C77.0867 85.326 77.676 85.326 78.2466 85.4459Z" fill="#7E7E7E"/>
<path d="M81.7073 85.4459C81.1367 85.5659 80.5474 85.5659 79.9768 85.4459C80.5474 85.326 81.1367 85.326 81.7073 85.4459Z" fill="#7E7E7E"/>
<path d="M85.1682 85.4459C84.5976 85.5659 84.0083 85.5659 83.4377 85.4459C84.0083 85.326 84.5976 85.326 85.1682 85.4459Z" fill="#7E7E7E"/>
<path d="M88.6294 85.4459C88.0588 85.5659 87.4695 85.5659 86.8989 85.4459C87.4695 85.326 88.0588 85.326 88.6294 85.4459Z" fill="#7E7E7E"/>
<path d="M92.0898 85.4459C91.5192 85.5659 90.93 85.5659 90.3594 85.4459C90.93 85.326 91.5192 85.326 92.0898 85.4459Z" fill="#7E7E7E"/>
<path d="M95.551 85.4459C94.9804 85.5659 94.3911 85.5659 93.8206 85.4459C94.3911 85.326 94.9804 85.326 95.551 85.4459Z" fill="#7E7E7E"/>
<path d="M99.0119 85.4459C98.4414 85.5659 97.8521 85.5659 97.2815 85.4459C97.8521 85.326 98.4414 85.326 99.0119 85.4459Z" fill="#7E7E7E"/>
<path d="M102.472 85.4459C101.902 85.5659 101.313 85.5659 100.742 85.4459C101.313 85.326 101.902 85.326 102.472 85.4459Z" fill="#7E7E7E"/>
<path d="M105.934 85.4459C105.363 85.5659 104.774 85.5659 104.203 85.4459C104.774 85.326 105.363 85.326 105.934 85.4459Z" fill="#7E7E7E"/>
<path d="M109.395 85.4459C108.824 85.5659 108.235 85.5659 107.664 85.4459C108.235 85.326 108.824 85.326 109.395 85.4459Z" fill="#7E7E7E"/>
<path d="M112.855 85.4459C112.285 85.5659 111.695 85.5659 111.125 85.4459C111.695 85.326 112.285 85.326 112.855 85.4459Z" fill="#7E7E7E"/>
<path d="M116.316 85.4459C115.746 85.5659 115.156 85.5659 114.586 85.4459C115.156 85.326 115.746 85.326 116.316 85.4459Z" fill="#7E7E7E"/>
<path d="M119.777 85.4459C119.207 85.5659 118.617 85.5659 118.047 85.4459C118.617 85.326 119.207 85.326 119.777 85.4459Z" fill="#7E7E7E"/>
<path d="M123.239 85.4459C122.668 85.5659 122.079 85.5659 121.508 85.4459C122.079 85.326 122.668 85.326 123.239 85.4459Z" fill="#7E7E7E"/>
<path d="M126.699 85.4459C126.128 85.5659 125.539 85.5659 124.969 85.4459C125.539 85.326 126.128 85.326 126.699 85.4459Z" fill="#7E7E7E"/>
<path d="M130.16 85.4459C129.589 85.5659 129 85.5659 128.429 85.4459C129 85.326 129.589 85.326 130.16 85.4459Z" fill="#7E7E7E"/>
<path d="M133.621 85.4459C133.05 85.5659 132.461 85.5659 131.891 85.4459C132.461 85.326 133.05 85.326 133.621 85.4459Z" fill="#7E7E7E"/>
<path d="M137.082 85.4459C136.511 85.5659 135.922 85.5659 135.351 85.4459C135.922 85.326 136.511 85.326 137.082 85.4459Z" fill="#7E7E7E"/>
<path d="M140.543 85.4459C139.972 85.5659 139.383 85.5659 138.812 85.4459C139.383 85.326 139.972 85.326 140.543 85.4459Z" fill="#7E7E7E"/>
<path d="M144.004 85.4459C143.433 85.5659 142.844 85.5659 142.273 85.4459C142.844 85.326 143.433 85.326 144.004 85.4459Z" fill="#7E7E7E"/>
<path d="M147.464 85.4459C146.894 85.5659 146.304 85.5659 145.734 85.4459C146.304 85.326 146.894 85.326 147.464 85.4459Z" fill="#7E7E7E"/>
<path d="M150.925 85.4459C150.355 85.5659 149.765 85.5659 149.195 85.4459C149.765 85.326 150.355 85.326 150.925 85.4459Z" fill="#7E7E7E"/>
<path d="M154.386 85.4459C153.816 85.5659 153.227 85.5659 152.656 85.4459C153.227 85.326 153.816 85.326 154.386 85.4459Z" fill="#7E7E7E"/>
<path d="M154.473 88.8169C154.353 88.2463 154.353 87.657 154.473 87.0864C154.593 87.657 154.593 88.2463 154.473 88.8169Z" fill="#7E7E7E"/>
<path d="M154.473 92.2778C154.353 91.7072 154.353 91.1179 154.473 90.5474C154.593 91.1179 154.593 91.7072 154.473 92.2778Z" fill="#7E7E7E"/>
<path d="M154.473 95.7388C154.353 95.1682 154.353 94.5789 154.473 94.0083C154.593 94.5789 154.593 95.1682 154.473 95.7388Z" fill="#7E7E7E"/>
<path d="M154.473 99.2002C154.353 98.6296 154.353 98.0403 154.473 97.4697C154.593 98.0403 154.593 98.6296 154.473 99.2002Z" fill="#7E7E7E"/>
<path d="M154.473 102.661C154.353 102.09 154.353 101.501 154.473 100.93C154.593 101.501 154.593 102.09 154.473 102.661Z" fill="#7E7E7E"/>
<path d="M154.473 106.122C154.353 105.551 154.353 104.962 154.473 104.391C154.593 104.962 154.593 105.551 154.473 106.122Z" fill="#7E7E7E"/>
<path d="M160.979 18.8618H16.1924V39.873H160.979V18.8618Z" fill="#7E7E7E"/>
<path d="M78.3161 27.1645H75.7827V25.6729H82.6768V27.1645H80.1469V33.5845H78.3161V27.1645Z" fill="white"/>
<path d="M83.1851 25.673C83.1878 25.5348 83.219 25.3988 83.2766 25.2732C83.3342 25.1476 83.4171 25.0352 83.52 24.943C83.6229 24.8509 83.7436 24.7808 83.8748 24.7373C84.0059 24.6938 84.1446 24.6777 84.2822 24.6901C84.9363 24.6901 85.3793 25.095 85.3793 25.6384C85.3621 25.9149 85.2413 26.1748 85.0408 26.3662C84.8404 26.5576 84.5752 26.6663 84.2982 26.6706C84.0211 26.675 83.7526 26.5747 83.5463 26.3898C83.3399 26.2048 83.2109 25.9489 83.1851 25.673ZM83.3996 27.5038H85.1647V33.5846H83.3996V27.5038Z" fill="white"/>
<path d="M90.7229 33.29C90.2937 33.5596 89.7931 33.6935 89.2866 33.6742C87.8538 33.6742 87.0163 32.9405 87.0163 31.4938V28.995H86.0784V27.6487H87.0163V26.1675H88.7779V27.6487H90.2903V29.0054H88.7744V31.4557C88.7602 31.5607 88.7696 31.6674 88.8019 31.7682C88.8343 31.8691 88.8888 31.9613 88.9615 32.0383C89.0342 32.1153 89.1232 32.1751 89.222 32.2132C89.3207 32.2513 89.4268 32.2669 89.5324 32.2587C89.7879 32.2612 90.0375 32.1824 90.2453 32.0337L90.7229 33.29Z" fill="white"/>
<path d="M91.7161 25.1987H93.4811V33.5845H91.7161V25.1987Z" fill="white"/>
<path d="M101.04 31.0407H96.4405C96.6101 31.7986 97.2538 32.2624 98.1709 32.2624C98.4519 32.2728 98.7321 32.226 98.9944 32.1248C99.2568 32.0237 99.4959 31.8703 99.6972 31.6741L100.635 32.6916C100.071 33.3353 99.2231 33.6745 98.1259 33.6745C96.0252 33.6745 94.665 32.3524 94.665 30.5596C94.665 28.7669 96.0494 27.4448 97.9079 27.4448C99.6937 27.4448 101.071 28.6423 101.071 30.5977C101.075 30.7015 101.05 30.8953 101.04 31.0407ZM96.4197 30.0024H99.4134C99.3521 29.6499 99.1683 29.3304 98.8945 29.1001C98.6206 28.8698 98.2743 28.7436 97.9166 28.7436C97.5588 28.7436 97.2125 28.8698 96.9386 29.1001C96.6648 29.3304 96.4811 29.6499 96.4197 30.0024Z" fill="white"/>
<path d="M59.8689 63.248C60.1475 63.1561 60.4424 63.1242 60.7341 63.1546C60.5542 63.338 60.6822 63.2065 60.6441 63.2445V63.075V62.9123C60.6441 62.8085 60.6441 62.715 60.6614 62.6389C60.6614 62.4831 60.6995 62.3862 60.7272 62.3862C60.7549 62.3862 60.7722 62.4831 60.7895 62.6389C60.7895 62.715 60.7895 62.8085 60.8103 62.9123C60.831 63.0161 60.8103 63.023 60.8103 63.075V63.2445C60.7687 63.2861 60.9002 63.158 60.7203 63.338C60.4333 63.3648 60.1439 63.3342 59.8689 63.248Z" fill="#7E7E7E"/>
<path d="M56.3945 63.2475C56.9647 63.1239 57.5548 63.1239 58.125 63.2475C57.5543 63.3665 56.9652 63.3665 56.3945 63.2475Z" fill="#7E7E7E"/>
<path d="M52.9124 63.2475C53.4825 63.1239 54.0726 63.1239 54.6428 63.2475C54.0721 63.3665 53.483 63.3665 52.9124 63.2475Z" fill="#7E7E7E"/>
<path d="M49.4519 63.2475C50.0221 63.1239 50.6122 63.1239 51.1824 63.2475C50.6117 63.3665 50.0226 63.3665 49.4519 63.2475Z" fill="#7E7E7E"/>
<path d="M45.9907 63.2478C46.5609 63.1238 47.151 63.1238 47.7212 63.2478C47.1505 63.3673 46.5614 63.3673 45.9907 63.2478Z" fill="#7E7E7E"/>
<path d="M42.499 63.2475C43.0692 63.1239 43.6593 63.1239 44.2295 63.2475C43.6588 63.3665 43.0697 63.3665 42.499 63.2475Z" fill="#7E7E7E"/>
<path d="M39.0239 63.2475C39.5941 63.1239 40.1842 63.1239 40.7544 63.2475C40.1837 63.3665 39.5946 63.3665 39.0239 63.2475Z" fill="#7E7E7E"/>
<path d="M35.5491 63.2475C36.1193 63.1239 36.7093 63.1239 37.2795 63.2475C36.7088 63.3665 36.1198 63.3665 35.5491 63.2475Z" fill="#7E7E7E"/>
<path d="M32.0776 63.2475C32.6478 63.1239 33.2379 63.1239 33.8081 63.2475C33.2374 63.3665 32.6483 63.3665 32.0776 63.2475Z" fill="#7E7E7E"/>
<path d="M28.6033 63.2475C29.1735 63.1239 29.7635 63.1239 30.3337 63.2475C29.763 63.3665 29.174 63.3665 28.6033 63.2475Z" fill="#7E7E7E"/>
<path d="M25.1284 63.2475C25.6986 63.1239 26.2887 63.1239 26.8589 63.2475C26.2882 63.3665 25.6991 63.3665 25.1284 63.2475Z" fill="#7E7E7E"/>
<path d="M21.6541 63.2475C22.2242 63.1239 22.8143 63.1239 23.3845 63.2475C22.8138 63.3665 22.2247 63.3665 21.6541 63.2475Z" fill="#7E7E7E"/>
<path d="M18.1826 63.2475C18.7528 63.1239 19.3429 63.1239 19.9131 63.2475C19.3424 63.3665 18.7533 63.3665 18.1826 63.2475Z" fill="#7E7E7E"/>
<path d="M15.5798 62.3828C15.6679 62.6622 15.6985 62.9565 15.6698 63.248C15.4898 63.0646 15.6179 63.1961 15.5798 63.1546H15.7528H15.9155H16.1924C16.3481 63.1719 16.445 63.1927 16.445 63.2204C16.445 63.248 16.3481 63.2653 16.1924 63.2827L15.9155 63.3034H15.5694L15.4794 63.2134C15.4568 62.9326 15.491 62.6502 15.5798 62.3828Z" fill="#7E7E7E"/>
<path d="M15.5795 58.5894C15.6994 59.2159 15.6994 59.8594 15.5795 60.4859C15.4595 59.8594 15.4595 59.2159 15.5795 58.5894Z" fill="#7E7E7E"/>
<path d="M15.5795 54.7964C15.6994 55.4229 15.6994 56.0665 15.5795 56.693C15.4595 56.0665 15.4595 55.4229 15.5795 54.7964Z" fill="#7E7E7E"/>
<path d="M15.5795 51.0034C15.6994 51.6299 15.6994 52.2735 15.5795 52.9C15.4595 52.2735 15.4595 51.6299 15.5795 51.0034Z" fill="#7E7E7E"/>
<path d="M16.4448 48.2413C16.1654 48.329 15.8711 48.3596 15.5796 48.3313L15.6696 48.2413V48.5874C15.6696 48.6912 15.6696 48.7847 15.6488 48.8643C15.6488 49.02 15.6107 49.1169 15.5865 49.1169C15.5623 49.1169 15.5381 49.02 15.5208 48.8643C15.5208 48.7847 15.5208 48.6912 15.5035 48.5874V48.4247V48.2552C15.5415 48.2136 15.4135 48.3451 15.5934 48.1652C15.8795 48.1323 16.1692 48.1582 16.4448 48.2413Z" fill="#7E7E7E"/>
<path d="M19.9197 48.2416C19.349 48.3605 18.7599 48.3605 18.1892 48.2416C18.7599 48.1226 19.349 48.1226 19.9197 48.2416Z" fill="#7E7E7E"/>
<path d="M23.3911 48.2416C22.8204 48.3605 22.2313 48.3605 21.6606 48.2416C22.2313 48.1226 22.8204 48.1226 23.3911 48.2416Z" fill="#7E7E7E"/>
<path d="M26.866 48.2416C26.2953 48.3605 25.7062 48.3605 25.1355 48.2416C25.7062 48.1226 26.2953 48.1226 26.866 48.2416Z" fill="#7E7E7E"/>
<path d="M30.3403 48.2416C29.7696 48.3605 29.1805 48.3605 28.6099 48.2416C29.1805 48.1226 29.7696 48.1226 30.3403 48.2416Z" fill="#7E7E7E"/>
<path d="M33.8154 48.2416C33.2447 48.3605 32.6556 48.3605 32.085 48.2416C32.6556 48.1226 33.2447 48.1226 33.8154 48.2416Z" fill="#7E7E7E"/>
<path d="M37.2866 48.2416C36.7159 48.3605 36.1268 48.3605 35.5562 48.2416C36.1268 48.1226 36.7159 48.1226 37.2866 48.2416Z" fill="#7E7E7E"/>
<path d="M40.761 48.2416C40.1903 48.3605 39.6012 48.3605 39.0305 48.2416C39.6012 48.1226 40.1903 48.1226 40.761 48.2416Z" fill="#7E7E7E"/>
<path d="M44.2361 48.2416C43.6654 48.3605 43.0763 48.3605 42.5056 48.2416C43.0763 48.1226 43.6654 48.1226 44.2361 48.2416Z" fill="#7E7E7E"/>
<path d="M47.7212 48.241C47.1505 48.3604 46.5614 48.3604 45.9907 48.241C46.5614 48.1215 47.1505 48.1215 47.7212 48.241Z" fill="#7E7E7E"/>
<path d="M51.1824 48.2416C50.6117 48.3605 50.0226 48.3605 49.4519 48.2416C50.0226 48.1226 50.6117 48.1226 51.1824 48.2416Z" fill="#7E7E7E"/>
<path d="M54.6428 48.2416C54.0721 48.3605 53.483 48.3605 52.9124 48.2416C53.483 48.1226 54.0721 48.1226 54.6428 48.2416Z" fill="#7E7E7E"/>
<path d="M58.1316 48.2416C57.5609 48.3605 56.9718 48.3605 56.4011 48.2416C56.9718 48.1226 57.5609 48.1226 58.1316 48.2416Z" fill="#7E7E7E"/>
<path d="M60.7343 49.1067C60.6446 48.8276 60.614 48.533 60.6443 48.2415C60.8242 48.4214 60.6927 48.2899 60.7308 48.3314H60.3847C60.2809 48.3314 60.1874 48.3314 60.1113 48.3107C59.9555 48.3107 59.8586 48.2726 59.8586 48.2484C59.8586 48.2242 59.9555 48.1999 60.1113 48.1826L60.3847 48.1653H60.5474H60.7204C60.7619 48.2034 60.6339 48.0753 60.8138 48.2553C60.8437 48.5416 60.8166 48.8309 60.7343 49.1067Z" fill="#7E7E7E"/>
<path d="M60.7343 52.9137C60.6143 52.2872 60.6143 51.6436 60.7343 51.0171C60.8542 51.6436 60.8542 52.2872 60.7343 52.9137Z" fill="#7E7E7E"/>
<path d="M60.7343 56.693C60.6143 56.0665 60.6143 55.4229 60.7343 54.7964C60.8542 55.4229 60.8542 56.0665 60.7343 56.693Z" fill="#7E7E7E"/>
<path d="M60.7343 60.4859C60.6143 59.8594 60.6143 59.2159 60.7343 58.5894C60.8542 59.2159 60.8542 59.8594 60.7343 60.4859Z" fill="#7E7E7E"/>
<path d="M24.5994 55.4501C24.6241 55.0715 24.7593 54.7085 24.9881 54.4059C25.2168 54.1033 25.5293 53.8743 25.8868 53.7473C26.2442 53.6203 26.6311 53.6008 26.9995 53.6912C27.368 53.7816 27.7018 53.978 27.9599 54.2561L27.4373 54.7371C27.3293 54.6072 27.1938 54.5029 27.0406 54.4317C26.8874 54.3605 26.7203 54.3241 26.5513 54.3253C26.2633 54.3412 25.9924 54.4669 25.7942 54.6764C25.596 54.8859 25.4855 55.1634 25.4855 55.4518C25.4855 55.7402 25.596 56.0177 25.7942 56.2272C25.9924 56.4367 26.2633 56.5624 26.5513 56.5783C26.721 56.5799 26.8889 56.543 27.0423 56.4705C27.1958 56.398 27.3308 56.2917 27.4373 56.1596L27.9599 56.6441C27.7025 56.9237 27.3686 57.1215 26.9997 57.2129C26.6307 57.3042 26.2431 57.2851 25.885 57.1578C25.5268 57.0306 25.214 56.8009 24.9854 56.4972C24.7569 56.1936 24.6226 55.8294 24.5994 55.4501Z" fill="#7E7E7E"/>
<path d="M30.8251 55.6821V57.2257H30.0914V56.8796C30 57.0099 29.8754 57.1133 29.7306 57.179C29.5857 57.2448 29.4258 57.2704 29.2677 57.2534C28.6343 57.2534 28.2571 56.9073 28.2571 56.4366C28.2571 55.9659 28.6032 55.6267 29.4165 55.6267H30.0394C30.0394 55.2807 29.8387 55.0938 29.4165 55.0938C29.1363 55.0905 28.8627 55.1793 28.6378 55.3464L28.3574 54.7961C28.7053 54.5742 29.1113 54.461 29.5238 54.4708C30.3475 54.4673 30.8251 54.848 30.8251 55.6821ZM30.0394 56.3743V56.0974H29.503C29.1362 56.0974 29.0219 56.2324 29.0219 56.4158C29.0219 56.5993 29.1846 56.7412 29.4615 56.7412C29.5843 56.7496 29.7067 56.7185 29.8106 56.6525C29.9146 56.5865 29.9948 56.489 30.0394 56.3743Z" fill="#7E7E7E"/>
<path d="M33.2788 57.0667C33.0888 57.187 32.8666 57.2461 32.642 57.2363C32.0017 57.2363 31.6314 56.911 31.6314 56.2672V55.1563H31.2126V54.5541H31.6314V53.8931H32.4136V54.5541H33.0885V55.1563H32.4136V56.2569C32.4087 56.3035 32.4143 56.3507 32.4299 56.3949C32.4456 56.4391 32.4709 56.4793 32.5041 56.5124C32.5373 56.5456 32.5774 56.5709 32.6216 56.5866C32.6659 56.6023 32.713 56.6079 32.7597 56.603C32.8727 56.6042 32.9831 56.569 33.0746 56.5026L33.2788 57.0667Z" fill="#7E7E7E"/>
<path d="M36.2729 56.0803H34.224C34.265 56.249 34.3658 56.3971 34.5078 56.497C34.6497 56.597 34.8232 56.6419 34.9958 56.6236C35.1232 56.6307 35.2506 56.611 35.3698 56.5657C35.4891 56.5204 35.5975 56.4505 35.688 56.3606L36.1068 56.814C35.9636 56.9639 35.7893 57.0807 35.5962 57.156C35.403 57.2313 35.1958 57.2634 34.9889 57.25C34.0544 57.25 33.4453 56.6652 33.4453 55.8657C33.4451 55.6788 33.4828 55.4939 33.556 55.322C33.6292 55.1501 33.7365 54.9947 33.8714 54.8654C34.0062 54.736 34.1658 54.6353 34.3407 54.5693C34.5155 54.5033 34.7018 54.4734 34.8885 54.4813C35.074 54.4716 35.2595 54.5006 35.4331 54.5664C35.6068 54.6322 35.7649 54.7334 35.8974 54.8636C36.0298 54.9938 36.1338 55.1501 36.2026 55.3226C36.2714 55.4951 36.3036 55.6801 36.2971 55.8657C36.3006 55.928 36.2763 56.0283 36.2729 56.0803ZM34.224 55.6234H35.5565C35.5155 55.4782 35.4283 55.3504 35.3081 55.2593C35.1878 55.1683 35.0411 55.119 34.8902 55.119C34.7394 55.119 34.5927 55.1683 34.4724 55.2593C34.3522 55.3504 34.2649 55.4782 34.224 55.6234Z" fill="#7E7E7E"/>
<path d="M39.6021 54.5056V56.7586C39.6021 57.7658 39.0588 58.2261 38.0828 58.2261C37.6119 58.2453 37.1469 58.1158 36.7538 57.8557L37.0653 57.2916C37.3439 57.4937 37.6798 57.6017 38.024 57.5996C38.5742 57.5996 38.8165 57.347 38.8165 56.859V56.7448C38.7068 56.86 38.5739 56.9504 38.4264 57.0101C38.279 57.0698 38.1206 57.0973 37.9617 57.0909C37.7844 57.1 37.6072 57.073 37.4408 57.0114C37.2743 56.9499 37.1221 56.8551 36.9934 56.7329C36.8648 56.6107 36.7623 56.4636 36.6923 56.3005C36.6223 56.1375 36.5862 55.9618 36.5862 55.7844C36.5862 55.6069 36.6223 55.4313 36.6923 55.2682C36.7623 55.1052 36.8648 54.9581 36.9934 54.8358C37.1221 54.7136 37.2743 54.6189 37.4408 54.5573C37.6072 54.4958 37.7844 54.4688 37.9617 54.4779C38.131 54.4681 38.3002 54.498 38.4559 54.5653C38.6115 54.6326 38.7492 54.7354 38.858 54.8655V54.5194L39.6021 54.5056ZM38.8269 55.7723C38.8366 55.6294 38.8031 55.487 38.7308 55.3635C38.6584 55.24 38.5506 55.1411 38.4212 55.0797C38.2919 55.0183 38.1471 54.9973 38.0057 55.0194C37.8642 55.0415 37.7327 55.1056 37.6282 55.2035C37.5238 55.3013 37.4512 55.4284 37.4199 55.5681C37.3886 55.7077 37.4001 55.8536 37.4529 55.9867C37.5057 56.1197 37.5973 56.2338 37.7158 56.3141C37.8343 56.3944 37.9743 56.4371 38.1174 56.4368C38.2086 56.444 38.3003 56.4321 38.3867 56.4019C38.473 56.3716 38.5521 56.3237 38.6189 56.2612C38.6857 56.1987 38.7387 56.1229 38.7745 56.0387C38.8103 55.9545 38.8281 55.8638 38.8269 55.7723Z" fill="#7E7E7E"/>
<path d="M40.1281 55.8586C40.1073 55.5607 40.1766 55.2635 40.3269 55.0055C40.4773 54.7475 40.7018 54.5407 40.9712 54.412C41.2406 54.2832 41.5426 54.2386 41.8377 54.2837C42.1329 54.3289 42.4077 54.4618 42.6263 54.6652C42.845 54.8685 42.9973 55.133 43.0637 55.4241C43.13 55.7153 43.1073 56.0197 42.9983 56.2977C42.8894 56.5757 42.6994 56.8145 42.4529 56.9831C42.2064 57.1517 41.9149 57.2422 41.6163 57.243C41.426 57.2573 41.2348 57.2321 41.0546 57.169C40.8745 57.1058 40.7094 57.0061 40.5696 56.8761C40.4298 56.7461 40.3185 56.5886 40.2425 56.4135C40.1665 56.2384 40.1276 56.0495 40.1281 55.8586ZM42.3051 55.8586C42.3051 55.675 42.2321 55.499 42.1023 55.3692C41.9725 55.2394 41.7964 55.1664 41.6129 55.1664C41.4293 55.1664 41.2532 55.2394 41.1234 55.3692C40.9936 55.499 40.9207 55.675 40.9207 55.8586C40.9207 56.0422 40.9936 56.2183 41.1234 56.3481C41.2532 56.4779 41.4293 56.5508 41.6129 56.5508C41.7964 56.5508 41.9725 56.4779 42.1023 56.3481C42.2321 56.2183 42.3051 56.0422 42.3051 55.8586Z" fill="#7E7E7E"/>
<path d="M45.2982 54.4678V55.1911H45.1217C45.0218 55.1818 44.9211 55.1952 44.8271 55.2303C44.7331 55.2655 44.6483 55.3214 44.579 55.394C44.5098 55.4666 44.4579 55.554 44.4272 55.6495C44.3965 55.745 44.3878 55.8463 44.4018 55.9456V57.2227H43.6162V54.5059H44.3672V54.852C44.4799 54.7176 44.6234 54.6124 44.7855 54.5455C44.9476 54.4786 45.1236 54.452 45.2982 54.4678Z" fill="#7E7E7E"/>
<path d="M48.5521 54.5055L47.3304 57.378C47.0708 58.0322 46.6971 58.226 46.2091 58.226C45.937 58.2316 45.6711 58.145 45.4546 57.9802L45.7418 57.423C45.8649 57.53 46.0218 57.59 46.1848 57.5926C46.3994 57.5926 46.5309 57.4992 46.6278 57.2465V57.2223L45.4546 54.4951H46.2644L47.0224 56.3329L47.7872 54.4951L48.5521 54.5055Z" fill="#7E7E7E"/>
<path d="M51.4899 53.6924V57.2121H50.6731V54.3465H49.981V53.6924H51.4899Z" fill="#7E7E7E"/>
<path d="M76.1009 79.0226H75.4087V78.6143H77.288V79.0226H76.5958V80.7704H76.1009V79.0226Z" fill="#7E7E7E"/>
<path d="M77.4092 78.614C77.41 78.5766 77.4185 78.5397 77.4341 78.5056C77.4498 78.4716 77.4722 78.4412 77.5001 78.4162C77.5281 78.3912 77.5608 78.3722 77.5964 78.3604C77.6319 78.3486 77.6695 78.3442 77.7068 78.3475C77.7439 78.3432 77.7815 78.3466 77.8173 78.3576C77.853 78.3685 77.8861 78.3868 77.9144 78.4112C77.9427 78.4356 77.9656 78.4656 77.9817 78.4993C77.9978 78.533 78.0067 78.5697 78.0079 78.6071C78 78.6809 77.965 78.7492 77.9097 78.7989C77.8545 78.8485 77.7828 78.876 77.7085 78.876C77.6343 78.876 77.5626 78.8485 77.5074 78.7989C77.4521 78.7492 77.4171 78.6809 77.4092 78.6071V78.614ZM77.468 79.1158H77.9491V80.7702H77.4853L77.468 79.1158Z" fill="#7E7E7E"/>
<path d="M79.4615 80.6912C79.345 80.7654 79.2083 80.8017 79.0704 80.795C78.9889 80.8064 78.9059 80.7992 78.8277 80.7739C78.7494 80.7485 78.6779 80.7058 78.6186 80.6488C78.5593 80.5918 78.5137 80.5221 78.4852 80.4449C78.4568 80.3677 78.4462 80.2851 78.4543 80.2032V79.511H78.1982V79.1407H78.4543V78.7393H78.9354V79.1407H79.3473V79.511H78.9354V80.1859C78.9311 80.2143 78.9333 80.2434 78.9419 80.2708C78.9504 80.2983 78.9651 80.3234 78.9847 80.3444C79.0044 80.3654 79.0285 80.3816 79.0553 80.3919C79.0822 80.4023 79.111 80.4064 79.1396 80.404C79.2093 80.4052 79.2775 80.3833 79.3334 80.3417L79.4615 80.6912Z" fill="#7E7E7E"/>
<path d="M79.7349 78.4863H80.2159V80.7705H79.7349V78.4863Z" fill="#7E7E7E"/>
<path d="M82.2753 80.0782H81.0224C81.0449 80.1841 81.1058 80.2781 81.1933 80.342C81.2808 80.4058 81.3888 80.4351 81.4966 80.4242C81.573 80.427 81.6491 80.4144 81.7205 80.387C81.7918 80.3597 81.857 80.3182 81.9119 80.265L82.1645 80.5419C82.0348 80.6661 81.873 80.7516 81.6974 80.7889C81.5217 80.8262 81.3392 80.8137 81.1702 80.753C81.0012 80.6922 80.8525 80.5855 80.7408 80.4449C80.6291 80.3043 80.5589 80.1354 80.5379 79.957C80.5364 79.842 80.5584 79.7278 80.6025 79.6216C80.6467 79.5154 80.7121 79.4193 80.7948 79.3392C80.8774 79.2592 80.9755 79.1969 81.0831 79.1561C81.1907 79.1153 81.3055 79.097 81.4204 79.1022C81.5352 79.0962 81.6499 79.1144 81.7572 79.1556C81.8644 79.1968 81.9618 79.2601 82.0431 79.3413C82.1243 79.4226 82.1876 79.52 82.2288 79.6272C82.27 79.7345 82.2882 79.8492 82.2822 79.9639C82.2822 79.9847 82.2753 80.0366 82.2753 80.0782ZM81.0155 79.7978H81.8288C81.8133 79.7011 81.7639 79.6131 81.6894 79.5496C81.6148 79.4861 81.5201 79.4512 81.4222 79.4512C81.3242 79.4512 81.2295 79.4861 81.155 79.5496C81.0805 79.6131 81.031 79.7011 81.0155 79.7978Z" fill="#7E7E7E"/>
<path d="M109.326 63.7286C109.896 63.6087 110.486 63.6087 111.056 63.7286C110.486 63.8486 109.896 63.8486 109.326 63.7286Z" fill="#7E7E7E"/>
<path d="M105.865 63.7286C106.435 63.6087 107.024 63.6087 107.595 63.7286C107.024 63.8486 106.435 63.8486 105.865 63.7286Z" fill="#7E7E7E"/>
<path d="M102.404 63.7286C102.974 63.6087 103.563 63.6087 104.134 63.7286C103.563 63.8486 102.974 63.8486 102.404 63.7286Z" fill="#7E7E7E"/>
<path d="M98.9424 63.7286C99.513 63.6087 100.102 63.6087 100.673 63.7286C100.102 63.8486 99.513 63.8486 98.9424 63.7286Z" fill="#7E7E7E"/>
<path d="M95.4819 63.7286C96.0525 63.6087 96.6418 63.6087 97.2124 63.7286C96.6418 63.8486 96.0525 63.8486 95.4819 63.7286Z" fill="#7E7E7E"/>
<path d="M92.0208 63.7286C92.5913 63.6087 93.1806 63.6087 93.7512 63.7286C93.1806 63.8486 92.5913 63.8486 92.0208 63.7286Z" fill="#7E7E7E"/>
<path d="M88.5598 63.7286C89.1304 63.6087 89.7197 63.6087 90.2903 63.7286C89.7197 63.8486 89.1304 63.8486 88.5598 63.7286Z" fill="#7E7E7E"/>
<path d="M85.0994 63.7286C85.6699 63.6087 86.2592 63.6087 86.8298 63.7286C86.2592 63.8486 85.6699 63.8486 85.0994 63.7286Z" fill="#7E7E7E"/>
<path d="M81.6382 63.7286C82.2088 63.6087 82.7981 63.6087 83.3686 63.7286C82.7981 63.8486 82.2088 63.8486 81.6382 63.7286Z" fill="#7E7E7E"/>
<path d="M78.177 63.7286C78.7476 63.6087 79.3369 63.6087 79.9075 63.7286C79.3369 63.8486 78.7476 63.8486 78.177 63.7286Z" fill="#7E7E7E"/>
<path d="M74.7166 63.7286C75.2871 63.6087 75.8764 63.6087 76.447 63.7286C75.8764 63.8486 75.2871 63.8486 74.7166 63.7286Z" fill="#7E7E7E"/>
<path d="M71.2556 63.7286C71.8262 63.6087 72.4155 63.6087 72.9861 63.7286C72.4155 63.8486 71.8262 63.8486 71.2556 63.7286Z" fill="#7E7E7E"/>
<path d="M67.7944 63.7286C68.365 63.6087 68.9543 63.6087 69.5249 63.7286C68.9543 63.8486 68.365 63.8486 67.7944 63.7286Z" fill="#7E7E7E"/>
<path d="M65.9081 62.1611C65.9958 62.4406 66.0264 62.7348 65.9981 63.0264C66.001 63.2577 65.9883 63.4889 65.96 63.7185L65.9081 63.6666C66.0084 63.6839 66.0707 63.7012 66.0707 63.7185C66.0707 63.7358 66.0084 63.7566 65.9081 63.7705H65.8631V63.7116C65.8348 63.482 65.8221 63.2508 65.825 63.0194C65.7935 62.7307 65.8217 62.4385 65.9081 62.1611Z" fill="#7E7E7E"/>
<path d="M65.9086 58.7002C66.0286 59.2708 66.0286 59.8601 65.9086 60.4306C65.7886 59.8601 65.7886 59.2708 65.9086 58.7002Z" fill="#7E7E7E"/>
<path d="M65.9086 55.2393C66.0286 55.8098 66.0286 56.3991 65.9086 56.9697C65.7886 56.3991 65.7886 55.8098 65.9086 55.2393Z" fill="#7E7E7E"/>
<path d="M65.9086 51.7783C66.0286 52.3489 66.0286 52.9382 65.9086 53.5088C65.7886 52.9382 65.7886 52.3489 65.9086 51.7783Z" fill="#7E7E7E"/>
<path d="M66.3133 48.7256C66.3133 48.7568 66.1541 48.7845 65.9084 48.8018L65.9845 48.7256C65.9845 48.8572 65.9845 49.0129 65.9845 49.1825C66.0128 49.474 65.9822 49.7682 65.8945 50.0477C65.8049 49.7686 65.7742 49.474 65.8045 49.1825C65.8045 49.0129 65.8045 48.8572 65.8045 48.7256V48.6426H65.8772C66.1541 48.6633 66.3133 48.691 66.3133 48.7256Z" fill="#7E7E7E"/>
<path d="M69.7739 48.7262C69.2033 48.8462 68.614 48.8462 68.0435 48.7262C68.614 48.6062 69.2033 48.6062 69.7739 48.7262Z" fill="#7E7E7E"/>
<path d="M73.2351 48.7262C72.6645 48.8462 72.0752 48.8462 71.5046 48.7262C72.0752 48.6062 72.6645 48.6062 73.2351 48.7262Z" fill="#7E7E7E"/>
<path d="M76.6963 48.7262C76.1257 48.8462 75.5364 48.8462 74.9658 48.7262C75.5364 48.6062 76.1257 48.6062 76.6963 48.7262Z" fill="#7E7E7E"/>
<path d="M80.1567 48.7262C79.5861 48.8462 78.9968 48.8462 78.4263 48.7262C78.9968 48.6062 79.5861 48.6062 80.1567 48.7262Z" fill="#7E7E7E"/>
<path d="M83.6177 48.7262C83.0471 48.8462 82.4578 48.8462 81.8872 48.7262C82.4578 48.6062 83.0471 48.6062 83.6177 48.7262Z" fill="#7E7E7E"/>
<path d="M87.0788 48.7262C86.5083 48.8462 85.919 48.8462 85.3484 48.7262C85.919 48.6062 86.5083 48.6062 87.0788 48.7262Z" fill="#7E7E7E"/>
<path d="M90.5393 48.7262C89.9687 48.8462 89.3794 48.8462 88.8088 48.7262C89.3794 48.6062 89.9687 48.6062 90.5393 48.7262Z" fill="#7E7E7E"/>
<path d="M94.0005 48.7262C93.4299 48.8462 92.8406 48.8462 92.27 48.7262C92.8406 48.6062 93.4299 48.6062 94.0005 48.7262Z" fill="#7E7E7E"/>
<path d="M97.4617 48.7262C96.8911 48.8462 96.3018 48.8462 95.7312 48.7262C96.3018 48.6062 96.8911 48.6062 97.4617 48.7262Z" fill="#7E7E7E"/>
<path d="M100.922 48.7262C100.352 48.8462 99.7622 48.8462 99.1917 48.7262C99.7622 48.6062 100.352 48.6062 100.922 48.7262Z" fill="#7E7E7E"/>
<path d="M104.383 48.7262C103.812 48.8462 103.223 48.8462 102.653 48.7262C103.223 48.6062 103.812 48.6062 104.383 48.7262Z" fill="#7E7E7E"/>
<path d="M107.844 48.7262C107.274 48.8462 106.684 48.8462 106.114 48.7262C106.684 48.6062 107.274 48.6062 107.844 48.7262Z" fill="#7E7E7E"/>
<path d="M111.056 48.9715C111.032 48.9715 111.007 48.8781 110.99 48.7258L111.056 48.7881C110.849 48.808 110.641 48.8172 110.433 48.8158C110.141 48.8441 109.847 48.8135 109.568 48.7258C109.847 48.6362 110.141 48.6055 110.433 48.6358C110.641 48.6344 110.849 48.6436 111.056 48.6635H111.122V48.7189C111.108 48.8781 111.087 48.9715 111.056 48.9715Z" fill="#7E7E7E"/>
<path d="M111.056 52.4321C110.936 51.8615 110.936 51.2722 111.056 50.7017C111.176 51.2722 111.176 51.8615 111.056 52.4321Z" fill="#7E7E7E"/>
<path d="M111.056 55.8931C110.936 55.3225 110.936 54.7332 111.056 54.1626C111.176 54.7332 111.176 55.3225 111.056 55.8931Z" fill="#7E7E7E"/>
<path d="M111.056 59.3545C110.936 58.7839 110.936 58.1946 111.056 57.624C111.176 58.1946 111.176 58.7839 111.056 59.3545Z" fill="#7E7E7E"/>
<path d="M111.056 62.8149C110.936 62.2443 110.936 61.6551 111.056 61.0845C111.176 61.6551 111.176 62.2443 111.056 62.8149Z" fill="#7E7E7E"/>
<path d="M74.4324 55.9347C74.4547 55.5553 74.5883 55.1909 74.8165 54.887C75.0446 54.583 75.3573 54.353 75.7154 54.2256C76.0735 54.0983 76.4611 54.0792 76.83 54.1708C77.1988 54.2624 77.5326 54.4606 77.7895 54.7407L77.2669 55.2218C77.1592 55.0915 77.0237 54.9869 76.8704 54.9157C76.7172 54.8444 76.5499 54.8083 76.3809 54.81C76.0929 54.8259 75.822 54.9516 75.6237 55.1611C75.4255 55.3706 75.3151 55.6481 75.3151 55.9365C75.3151 56.2249 75.4255 56.5024 75.6237 56.7119C75.822 56.9214 76.0929 57.047 76.3809 57.063C76.5506 57.0648 76.7186 57.0281 76.872 56.9555C77.0255 56.883 77.1605 56.7765 77.2669 56.6442L77.7895 57.1288C77.5326 57.4089 77.1988 57.6071 76.83 57.6987C76.4611 57.7903 76.0735 57.7712 75.7154 57.6439C75.3573 57.5165 75.0446 57.2865 74.8165 56.9825C74.5883 56.6786 74.4547 56.3142 74.4324 55.9347Z" fill="#7E7E7E"/>
<path d="M80.6551 56.1533V57.6968H79.9075V57.3507C79.8174 57.4825 79.6931 57.5872 79.548 57.6536C79.4029 57.7201 79.2424 57.7458 79.0838 57.728C78.4505 57.728 78.0732 57.3819 78.0732 56.9112C78.0732 56.4405 78.4193 56.1014 79.2326 56.1014H79.8591C79.8591 55.7553 79.6583 55.5684 79.2326 55.5684C78.9531 55.5661 78.6802 55.6534 78.4539 55.8176L78.1736 55.2707C78.5214 55.0488 78.9275 54.9356 79.3399 54.9454C80.1775 54.9523 80.6551 55.3365 80.6551 56.1533ZM79.8729 56.8455V56.5686H79.333C78.9662 56.5686 78.8519 56.7036 78.8519 56.8835C78.8519 57.0635 79.0181 57.2123 79.2949 57.2123C79.4181 57.2199 79.5405 57.1881 79.6444 57.1215C79.7483 57.055 79.8283 56.9571 79.8729 56.842V56.8455Z" fill="#7E7E7E"/>
<path d="M83.1089 57.5653C82.9184 57.6843 82.6965 57.7434 82.4721 57.7348C81.8318 57.7348 81.4615 57.4095 81.4615 56.7658V55.6548H81.0427V55.0526H81.4615V54.3916H82.2471V55.0526H82.9185V55.6548H82.2471V56.7554C82.2422 56.8021 82.2478 56.8492 82.2635 56.8934C82.2791 56.9376 82.3045 56.9778 82.3376 57.011C82.3708 57.0441 82.411 57.0695 82.4552 57.0851C82.4994 57.1008 82.5466 57.1064 82.5932 57.1015C82.7063 57.1032 82.8169 57.068 82.9082 57.0011L83.1089 57.5653Z" fill="#7E7E7E"/>
<path d="M86.1028 56.5647H84.0609C84.1019 56.7334 84.2027 56.8815 84.3446 56.9814C84.4866 57.0814 84.66 57.1264 84.8327 57.108C84.96 57.1151 85.0875 57.0954 85.2067 57.0501C85.326 57.0048 85.4343 56.9349 85.5249 56.845L85.9436 57.2984C85.801 57.4481 85.6273 57.5646 85.4348 57.64C85.2422 57.7153 85.0355 57.7476 84.8292 57.7345C83.8913 57.7345 83.2856 57.1461 83.2856 56.3501C83.2855 56.1635 83.3231 55.9789 83.3961 55.8072C83.4691 55.6355 83.576 55.4804 83.7105 55.3511C83.845 55.2218 84.0042 55.121 84.1786 55.0548C84.353 54.9886 84.539 54.9583 84.7254 54.9657C84.9124 54.9558 85.0994 54.9853 85.2743 55.0521C85.4492 55.119 85.6081 55.2218 85.7409 55.3538C85.8736 55.4859 85.9772 55.6444 86.0449 55.8189C86.1126 55.9935 86.1429 56.1804 86.134 56.3674C86.1167 56.4124 86.1063 56.4989 86.1028 56.5647ZM84.0609 56.1078H85.3933C85.3524 55.9627 85.2652 55.8348 85.1449 55.7438C85.0247 55.6527 84.8779 55.6034 84.7271 55.6034C84.5763 55.6034 84.4296 55.6527 84.3093 55.7438C84.189 55.8348 84.1018 55.9627 84.0609 56.1078Z" fill="#7E7E7E"/>
<path d="M89.4322 54.9904V57.2435C89.4322 58.2506 88.8889 58.7109 87.9129 58.7109C87.443 58.7306 86.979 58.601 86.5874 58.3406L86.8988 57.7764C87.1759 57.979 87.5108 58.087 87.854 58.0845C88.4043 58.0845 88.6466 57.8318 88.6466 57.3438V57.2296C88.5371 57.345 88.4041 57.4356 88.2567 57.4952C88.1092 57.5549 87.9507 57.5824 87.7918 57.5757C87.6145 57.5848 87.4373 57.5578 87.2708 57.4963C87.1044 57.4347 86.9522 57.34 86.8235 57.2178C86.6949 57.0955 86.5924 56.9484 86.5224 56.7854C86.4524 56.6223 86.4163 56.4467 86.4163 56.2692C86.4163 56.0918 86.4524 55.9162 86.5224 55.7531C86.5924 55.59 86.6949 55.4429 86.8235 55.3207C86.9522 55.1985 87.1044 55.1037 87.2708 55.0422C87.4373 54.9806 87.6145 54.9536 87.7918 54.9627C87.9607 54.953 88.1296 54.9827 88.2851 55.0494C88.4407 55.116 88.5786 55.2179 88.6881 55.3469V55.0008L89.4322 54.9904ZM88.657 56.2571C88.6667 56.1136 88.6328 55.9704 88.5596 55.8465C88.4865 55.7226 88.3776 55.6237 88.2472 55.5629C88.1168 55.502 87.9711 55.482 87.8292 55.5055C87.6872 55.5291 87.5557 55.595 87.4519 55.6946C87.3481 55.7942 87.2769 55.923 87.2476 56.0638C87.2184 56.2047 87.2324 56.3511 87.2879 56.4839C87.3434 56.6166 87.4377 56.7295 87.5585 56.8076C87.6793 56.8857 87.821 56.9255 87.9648 56.9216C88.0546 56.9263 88.1444 56.9126 88.2287 56.8813C88.313 56.8499 88.39 56.8016 88.4548 56.7393C88.5197 56.677 88.5711 56.6021 88.6059 56.5192C88.6407 56.4362 88.658 56.347 88.657 56.2571Z" fill="#7E7E7E"/>
<path d="M89.9619 56.343C89.941 56.0451 90.0103 55.7479 90.1607 55.4899C90.311 55.2319 90.5355 55.0251 90.8049 54.8963C91.0744 54.7676 91.3763 54.7229 91.6715 54.7681C91.9667 54.8132 92.2414 54.9461 92.4601 55.1495C92.6787 55.3529 92.8311 55.6174 92.8974 55.9085C92.9638 56.1997 92.941 56.504 92.8321 56.7821C92.7232 57.0601 92.5331 57.2989 92.2866 57.4675C92.0402 57.6361 91.7487 57.7266 91.4501 57.7274C91.2597 57.7417 91.0685 57.7165 90.8884 57.6533C90.7082 57.5902 90.5431 57.4905 90.4033 57.3605C90.2636 57.2305 90.1522 57.073 90.0763 56.8979C90.0003 56.7228 89.9613 56.5339 89.9619 56.343ZM92.1388 56.343C92.128 56.209 92.0785 56.081 91.9962 55.9747C91.9139 55.8684 91.8024 55.7883 91.6754 55.7443C91.5483 55.7003 91.4112 55.6943 91.2808 55.7269C91.1504 55.7595 91.0323 55.8294 90.9409 55.9281C90.8496 56.0267 90.789 56.1499 90.7664 56.2824C90.7439 56.415 90.7605 56.5512 90.8141 56.6745C90.8677 56.7978 90.9561 56.9028 91.0684 56.9767C91.1808 57.0505 91.3122 57.0901 91.4466 57.0905C91.5424 57.0909 91.6371 57.0713 91.7249 57.0331C91.8128 56.9949 91.8917 56.9389 91.9567 56.8686C92.0218 56.7984 92.0716 56.7154 92.1029 56.6249C92.1342 56.5344 92.1465 56.4384 92.1388 56.343Z" fill="#7E7E7E"/>
<path d="M95.1358 54.9519V55.6822H94.9593C94.8594 55.6728 94.7587 55.6862 94.6647 55.7213C94.5707 55.7565 94.4859 55.8125 94.4167 55.885C94.3474 55.9576 94.2955 56.045 94.2648 56.1405C94.2341 56.236 94.2254 56.3373 94.2394 56.4366V57.7137H93.4573V54.99H94.2048V55.3361C94.3179 55.2021 94.4615 55.0973 94.6235 55.0304C94.7855 54.9636 94.9612 54.9366 95.1358 54.9519Z" fill="#7E7E7E"/>
<path d="M98.3822 54.9897L97.1605 57.8623C96.9009 58.5164 96.5271 58.7102 96.0391 58.7102C95.7671 58.7159 95.5012 58.6293 95.2847 58.4645L95.5719 57.9073C95.695 58.0142 95.8519 58.0743 96.0149 58.0769C96.233 58.0769 96.361 57.9834 96.4579 57.7308V57.7066L95.2951 54.9897H96.1049L96.8663 56.824L97.6277 54.9897H98.3822Z" fill="#7E7E7E"/>
<path d="M102.594 57.0317V57.6962H99.9324V57.1667L101.289 55.8861C101.601 55.5885 101.656 55.4085 101.656 55.2355C101.656 54.9621 101.466 54.7994 101.095 54.7994C100.954 54.7921 100.814 54.8199 100.686 54.8803C100.559 54.9407 100.449 55.0318 100.365 55.1455L99.7732 54.7613C99.9329 54.5475 100.143 54.3761 100.384 54.262C100.625 54.148 100.891 54.0949 101.158 54.1072C101.943 54.1072 102.466 54.5121 102.466 55.1455C102.466 55.4916 102.372 55.7996 101.877 56.2564L101.068 57.0213L102.594 57.0317Z" fill="#7E7E7E"/>
<path d="M102.058 82.5597C102.628 82.4397 103.218 82.4397 103.788 82.5597C103.218 82.6797 102.628 82.6797 102.058 82.5597Z" fill="#7E7E7E"/>
<path d="M98.5967 82.5597C99.1673 82.4397 99.7566 82.4397 100.327 82.5597C99.7566 82.6797 99.1673 82.6797 98.5967 82.5597Z" fill="#7E7E7E"/>
<path d="M95.1357 82.5597C95.7063 82.4397 96.2956 82.4397 96.8662 82.5597C96.2956 82.6797 95.7063 82.6797 95.1357 82.5597Z" fill="#7E7E7E"/>
<path d="M91.6746 82.5597C92.2451 82.4397 92.8344 82.4397 93.405 82.5597C92.8344 82.6797 92.2451 82.6797 91.6746 82.5597Z" fill="#7E7E7E"/>
<path d="M88.2141 82.5597C88.7847 82.4397 89.374 82.4397 89.9446 82.5597C89.374 82.6797 88.7847 82.6797 88.2141 82.5597Z" fill="#7E7E7E"/>
<path d="M84.7529 82.5597C85.3235 82.4397 85.9128 82.4397 86.4834 82.5597C85.9128 82.6797 85.3235 82.6797 84.7529 82.5597Z" fill="#7E7E7E"/>
<path d="M81.292 82.5597C81.8626 82.4397 82.4519 82.4397 83.0224 82.5597C82.4519 82.6797 81.8626 82.6797 81.292 82.5597Z" fill="#7E7E7E"/>
<path d="M77.8313 82.5597C78.4019 82.4397 78.9912 82.4397 79.5618 82.5597C78.9912 82.6797 78.4019 82.6797 77.8313 82.5597Z" fill="#7E7E7E"/>
<path d="M74.3704 82.5597C74.9409 82.4397 75.5302 82.4397 76.1008 82.5597C75.5302 82.6797 74.9409 82.6797 74.3704 82.5597Z" fill="#7E7E7E"/>
<path d="M70.9092 82.5597C71.4798 82.4397 72.0691 82.4397 72.6396 82.5597C72.0691 82.6797 71.4798 82.6797 70.9092 82.5597Z" fill="#7E7E7E"/>
<path d="M70.0893 79.9082C70.2093 80.4788 70.2093 81.0681 70.0893 81.6387C69.9647 81.0686 69.9647 80.4783 70.0893 79.9082Z" fill="#7E7E7E"/>
<path d="M70.435 76.7934C70.435 76.8246 70.3001 76.8488 70.0889 76.8661L70.1582 76.7934C70.1582 76.9388 70.1789 77.1188 70.1789 77.3126C70.2073 77.6041 70.1767 77.8983 70.0889 78.1778C69.997 77.8992 69.9652 77.6043 69.9955 77.3126C69.9955 77.1188 69.9955 76.9388 70.0163 76.7934V76.7173H70.0855C70.3001 76.7484 70.435 76.7934 70.435 76.7934Z" fill="#7E7E7E"/>
<path d="M73.8962 76.7936C73.3256 76.9136 72.7364 76.9136 72.1658 76.7936C72.7364 76.6736 73.3256 76.6736 73.8962 76.7936Z" fill="#7E7E7E"/>
<path d="M77.3569 76.7936C76.7863 76.9136 76.197 76.9136 75.6265 76.7936C76.197 76.6736 76.7863 76.6736 77.3569 76.7936Z" fill="#7E7E7E"/>
<path d="M80.8179 76.7936C80.2473 76.9136 79.658 76.9136 79.0874 76.7936C79.658 76.6736 80.2473 76.6736 80.8179 76.7936Z" fill="#7E7E7E"/>
<path d="M84.279 76.7936C83.7085 76.9136 83.1192 76.9136 82.5486 76.7936C83.1192 76.6736 83.7085 76.6736 84.279 76.7936Z" fill="#7E7E7E"/>
<path d="M87.7395 76.7936C87.1689 76.9136 86.5796 76.9136 86.009 76.7936C86.5796 76.6736 87.1689 76.6736 87.7395 76.7936Z" fill="#7E7E7E"/>
<path d="M91.2007 76.7936C90.6301 76.9136 90.0408 76.9136 89.4702 76.7936C90.0408 76.6736 90.6301 76.6736 91.2007 76.7936Z" fill="#7E7E7E"/>
<path d="M94.6616 76.7936C94.091 76.9136 93.5017 76.9136 92.9312 76.7936C93.5017 76.6736 94.091 76.6736 94.6616 76.7936Z" fill="#7E7E7E"/>
<path d="M98.1221 76.7936C97.5515 76.9136 96.9622 76.9136 96.3916 76.7936C96.9622 76.6736 97.5515 76.6736 98.1221 76.7936Z" fill="#7E7E7E"/>
<path d="M101.583 76.7936C101.013 76.9136 100.423 76.9136 99.8528 76.7936C100.423 76.6736 101.013 76.6736 101.583 76.7936Z" fill="#7E7E7E"/>
<path d="M103.788 78.064C103.7 77.7845 103.669 77.4903 103.698 77.1988C103.698 77.0569 103.698 76.9219 103.698 76.8042L103.777 76.8873C103.497 76.8873 103.307 76.8388 103.307 76.8042C103.307 76.7696 103.497 76.7385 103.777 76.7246H103.853V76.8077C103.853 76.9253 103.853 77.0603 103.853 77.2022C103.891 77.4909 103.869 77.7843 103.788 78.064Z" fill="#7E7E7E"/>
<path d="M103.788 81.5249C103.668 80.9543 103.668 80.365 103.788 79.7944C103.908 80.365 103.908 80.9543 103.788 81.5249Z" fill="#7E7E7E"/>
<path d="M60.658 76.8455C60.6892 76.8836 51.9296 84.0373 41.09 92.8176C30.2505 101.598 21.439 108.689 21.4182 108.651C21.3975 108.613 30.1467 101.463 40.9897 92.6791C51.8327 83.8954 60.6269 76.7936 60.658 76.8455Z" fill="#E0E0E0"/>
<path d="M60.658 108.88C60.6269 108.921 51.8189 101.778 40.9862 92.9351C30.1536 84.0925 21.3906 76.8834 21.4183 76.8454C21.446 76.8073 30.2574 83.9472 41.097 92.7932C51.9366 101.639 60.6926 108.841 60.658 108.88Z" fill="#E0E0E0"/>
<path d="M35.3626 91.8795C35.3626 92.8763 34.615 93.4958 33.421 93.4958H32.5212V94.7278H31.4829V90.2563H33.4176C34.615 90.2563 35.3626 90.8759 35.3626 91.8795ZM34.3243 91.8795C34.3243 91.3881 34.0024 91.1008 33.3691 91.1008H32.5281V92.6513H33.3691C33.9955 92.6513 34.3174 92.3675 34.3174 91.8795H34.3243Z" fill="#7E7E7E"/>
<path d="M39.6054 92.7619V94.7277H38.6086V92.9142C38.6086 92.357 38.3525 92.1044 37.9164 92.1044C37.4804 92.1044 37.0927 92.3985 37.0927 93.0284V94.7277H36.0925V89.9897H37.0893V91.651C37.2348 91.5127 37.4066 91.4051 37.5944 91.3343C37.7822 91.2636 37.9824 91.2312 38.1829 91.2391C38.9928 91.2391 39.6054 91.7133 39.6054 92.7619Z" fill="#7E7E7E"/>
<path d="M40.291 93.0118C40.3264 92.5353 40.5406 92.0898 40.8908 91.7646C41.2409 91.4395 41.7011 91.2588 42.1789 91.2588C42.6568 91.2588 43.1169 91.4395 43.4671 91.7646C43.8172 92.0898 44.0315 92.5353 44.0669 93.0118C44.0669 94.0501 43.2743 94.7803 42.1807 94.7803C41.087 94.7803 40.291 94.0466 40.291 93.0118ZM43.0597 93.0118C43.0456 92.8416 42.9822 92.6792 42.8773 92.5445C42.7724 92.4097 42.6305 92.3084 42.4689 92.253C42.3074 92.1976 42.1332 92.1904 41.9677 92.2324C41.8021 92.2743 41.6524 92.3636 41.5367 92.4893C41.4211 92.615 41.3446 92.7716 41.3165 92.9401C41.2885 93.1086 41.3101 93.2816 41.3788 93.4379C41.4475 93.5943 41.5602 93.7273 41.7032 93.8206C41.8462 93.914 42.0133 93.9636 42.1841 93.9636C42.306 93.9651 42.4268 93.941 42.5387 93.8926C42.6506 93.8443 42.751 93.7728 42.8333 93.683C42.9156 93.5931 42.9781 93.4869 43.0165 93.3712C43.0549 93.2555 43.0685 93.1331 43.0563 93.0118H43.0597Z" fill="#7E7E7E"/>
<path d="M46.9496 94.5617C46.707 94.7154 46.4232 94.7915 46.1363 94.7798C45.3264 94.7798 44.8523 94.3645 44.8523 93.5477V92.1356H44.3228V91.3673H44.8523V90.5298H45.849V91.3673H46.7073V92.1356H45.849V93.52C45.8411 93.5793 45.8465 93.6397 45.8649 93.6966C45.8833 93.7536 45.9143 93.8057 45.9554 93.8491C45.9965 93.8926 46.0469 93.9263 46.1027 93.9478C46.1586 93.9693 46.2185 93.978 46.2782 93.9734C46.4224 93.9756 46.5634 93.9307 46.6796 93.8453L46.9496 94.5617Z" fill="#7E7E7E"/>
<path d="M47.1467 93.011C47.1467 91.9727 47.9462 91.239 49.0398 91.239C49.2789 91.2285 49.5176 91.2664 49.7416 91.3506C49.9656 91.4348 50.1702 91.5635 50.3431 91.7289C50.516 91.8943 50.6536 92.0931 50.7476 92.3131C50.8417 92.5332 50.8901 92.77 50.8901 93.0093C50.8901 93.2486 50.8417 93.4854 50.7476 93.7054C50.6536 93.9255 50.516 94.1242 50.3431 94.2897C50.1702 94.4551 49.9656 94.5838 49.7416 94.668C49.5176 94.7522 49.2789 94.7901 49.0398 94.7795C47.9462 94.7899 47.1467 94.0458 47.1467 93.011ZM49.9155 93.011C49.902 92.8398 49.8388 92.6762 49.7337 92.5403C49.6286 92.4044 49.4862 92.3022 49.3238 92.2461C49.1614 92.19 48.9862 92.1825 48.8197 92.2246C48.6531 92.2666 48.5025 92.3563 48.3862 92.4827C48.2699 92.6091 48.193 92.7668 48.1649 92.9362C48.1369 93.1057 48.1589 93.2797 48.2283 93.4368C48.2977 93.5939 48.4115 93.7274 48.5556 93.8208C48.6998 93.9143 48.8681 93.9636 49.0398 93.9628C49.162 93.9648 49.2832 93.941 49.3955 93.8929C49.5078 93.8448 49.6086 93.7734 49.6913 93.6835C49.774 93.5936 49.8368 93.4872 49.8754 93.3713C49.914 93.2553 49.9277 93.1326 49.9155 93.011Z" fill="#7E7E7E"/>
<path d="M151.981 89.7307C151.981 89.7791 134.407 89.8206 112.731 89.8206C91.0555 89.8206 73.4775 89.7791 73.4775 89.7307C73.4775 89.6822 91.0486 89.6372 112.731 89.6372C134.414 89.6372 151.981 89.6787 151.981 89.7307Z" fill="#E0E0E0"/>
<path d="M151.981 92.8629C151.981 92.9148 134.407 92.9529 112.731 92.9529C91.0555 92.9529 73.4775 92.9148 73.4775 92.8629C73.4775 92.811 91.0486 92.7729 112.731 92.7729C134.414 92.7729 151.981 92.8145 151.981 92.8629Z" fill="#E0E0E0"/>
<path d="M151.981 95.9982C151.981 96.0466 134.407 96.0882 112.731 96.0882C91.0555 96.0882 73.4775 96.0466 73.4775 95.9982C73.4775 95.9497 91.0486 95.9082 112.731 95.9082C134.414 95.9082 151.981 95.9497 151.981 95.9982Z" fill="#E0E0E0"/>
<path d="M151.981 99.1339C151.981 99.1824 134.407 99.2239 112.731 99.2239C91.0555 99.2239 73.4775 99.1824 73.4775 99.1339C73.4775 99.0855 91.0486 99.0439 112.731 99.0439C134.414 99.0439 151.981 99.082 151.981 99.1339Z" fill="#E0E0E0"/>
<path d="M151.981 102.266C151.981 102.318 134.407 102.359 112.731 102.359C91.0555 102.359 73.4775 102.318 73.4775 102.266C73.4775 102.214 91.0486 102.176 112.731 102.176C134.414 102.176 151.981 102.217 151.981 102.266Z" fill="#E0E0E0"/>
<path d="M151.981 105.402C151.981 105.453 134.407 105.491 112.731 105.491C91.0555 105.491 73.4775 105.453 73.4775 105.402C73.4775 105.35 91.0486 105.312 112.731 105.312C134.414 105.312 151.981 105.353 151.981 105.402Z" fill="#E0E0E0"/>
<path d="M104.082 95.8288H102.649V94.9878H106.556V95.8288H105.127V99.4593H104.089L104.082 95.8288Z" fill="#7E7E7E"/>
<path d="M110.018 98.0298H107.419C107.472 98.2442 107.6 98.4323 107.781 98.5594C107.961 98.6866 108.182 98.7443 108.402 98.722C108.562 98.7269 108.721 98.6987 108.87 98.6392C109.019 98.5796 109.154 98.49 109.267 98.3759L109.796 98.9504C109.615 99.1413 109.394 99.2901 109.149 99.3864C108.903 99.4826 108.64 99.524 108.377 99.5077C107.19 99.5077 106.415 98.7601 106.415 97.7357C106.412 97.4969 106.458 97.2601 106.55 97.0398C106.641 96.8194 106.778 96.6203 106.949 96.4546C107.121 96.2888 107.325 96.1601 107.549 96.0763C107.772 95.9925 108.011 95.9553 108.249 95.9671C108.487 95.9548 108.724 95.9924 108.947 96.0775C109.169 96.1626 109.371 96.2933 109.539 96.4612C109.708 96.6292 109.84 96.8306 109.925 97.0525C110.011 97.2744 110.05 97.5118 110.039 97.7495C110.049 97.836 110.035 97.9468 110.018 98.0298ZM107.405 97.4484H109.101C109.069 97.2463 108.966 97.0622 108.811 96.9292C108.655 96.7963 108.457 96.7232 108.253 96.7232C108.048 96.7232 107.85 96.7963 107.695 96.9292C107.539 97.0622 107.436 97.2463 107.405 97.4484Z" fill="#7E7E7E"/>
<path d="M112.803 99.466L112.049 98.4104L111.27 99.466H110.184L111.506 97.7355L110.229 96.0293H111.346L112.073 97.033L112.821 96.0293H113.883L112.606 97.7078L113.935 99.466H112.803Z" fill="#7E7E7E"/>
<path d="M116.638 99.2896C116.395 99.4417 116.112 99.5177 115.825 99.5077C115.015 99.5077 114.541 99.0924 114.541 98.2721V96.867H114.011V96.1056H114.541V95.2681H115.555V96.1056H116.413V96.867H115.555V98.2687C115.547 98.328 115.553 98.3883 115.571 98.4453C115.589 98.5022 115.62 98.5543 115.661 98.5978C115.703 98.6412 115.753 98.675 115.809 98.6965C115.865 98.718 115.925 98.7267 115.984 98.722C116.128 98.7238 116.269 98.6789 116.386 98.594L116.638 99.2896Z" fill="#7E7E7E"/>
<path d="M10.5616 121.05L165.759 120.967L165.759 120.917H165.788C165.788 120.301 165.788 73.4749 165.861 1.07273V1V0.95H165.811H165.738H10.5789H10.4785H10.4285V1V1.08652V1.33945V1.59233V1.84515V2.09792V2.35064V2.6033V2.85591V3.10846V3.36096V3.61341V3.8658V4.11813V4.37042V4.62264V4.87481V5.12693V5.37899V5.631V5.88295V6.13484V6.38668V6.63846V6.89019V7.14186V7.39348V7.64503V7.89654V8.14798V8.39937V8.6507V8.90198V9.1532V9.40436V9.65546V9.90651V10.1575V10.4084V10.6593V10.9101V11.1609V11.4116V11.6622V11.9128V12.1633V12.4138V12.6642V12.9145V13.1648V13.4151V13.6652V13.9153V14.1654V14.4154V14.6653V14.9152V15.165V15.4148V15.6644V15.9141V16.1636V16.4132V16.6626V16.912V17.1613V17.4106V17.6598V17.9089V18.158V18.4071V18.656V18.9049V19.1538V19.4025V19.6512V19.8999V20.1485V20.397V20.6455V20.8939V21.1422V21.3905V21.6387V21.8868V22.1349V22.383V22.6309V22.8788V23.1266V23.3744V23.6221V23.8697V24.1173V24.3648V24.6123V24.8597V25.107V25.3542V25.6014V25.8485V26.0956V26.3426V26.5895V26.8364V27.0832V27.3299V27.5765V27.8231V28.0697V28.3161V28.5625V28.8089V29.0551V29.3013V29.5475V29.7935V30.0395V30.2854V30.5313V30.7771V31.0228V31.2685V31.5141V31.7596V32.005V32.2504V32.4958V32.741V32.9862V33.2313V33.4763V33.7213V33.9662V34.211V34.4558V34.7005V34.9451V35.1897V35.4342V35.6786V35.9229V36.1672V36.4114V36.6556V36.8996V37.1436V37.3876V37.6314V37.8752V38.1189V38.3625V38.6061V38.8496V39.093V39.3364V39.5797V39.8229V40.066V40.3091V40.5521V40.795V41.0378V41.2806V41.5233V41.766V42.0085V42.251V42.4934V42.7357V42.978V43.2202V43.4623V43.7044V43.9463V44.1882V44.43V44.6718V44.9134V45.155V45.3966V45.638V45.8794V46.1207V46.3619V46.603V46.8441V47.0851V47.326V47.5669V47.8076V48.0483V48.2889V48.5295V48.7699V49.0103V49.2506V49.4909V49.731V49.9711V50.2111V50.451V50.6909V50.9306V51.1703V51.4099V51.6495V51.8889V52.1283V52.3676V52.6068V52.846V53.085V53.324V53.5629V53.8018V54.0405V54.2792V54.5178V54.7563V54.9947V55.2331V55.4713V55.7095V55.9476V56.1857V56.4236V56.6615V56.8993V57.137V57.3746V57.6122V57.8496V58.087V58.3243V58.5616V58.7987V59.0358V59.2727V59.5096V59.7464V59.9832V60.2198V60.4564V60.6929V60.9293V61.1656V61.4018V61.638V61.8741V62.1101V62.346V62.5818V62.8175V63.0532V63.2887V63.5242V63.7596V63.995V64.2302V64.4653V64.7004V64.9354V65.1703V65.4051V65.6398V65.8745V66.109V66.3435V66.5779V66.8122V67.0464V67.2805V67.5145V67.7485V67.9824V68.2161V68.4498V68.6835V68.917V69.1504V69.3838V69.617V69.8502V70.0833V70.3163V70.5492V70.782V71.0148V71.2474V71.48V71.7124V71.9448V72.1771V72.4093V72.6415V72.8735V73.1054V73.3373V73.569V73.8007V74.0323V74.2638V74.4952V74.7265V74.9577V75.1889V75.4199V75.6509V75.8818V76.1125V76.3432V76.5738V76.8043V77.0347V77.265V77.4953V77.7254V77.9555V78.1854V78.4153V78.6451V78.8747V79.1043V79.3338V79.5632V79.7925V80.0218V80.2509V80.4799V80.7089V80.9377V81.1665V81.3951V81.6237V81.8522V82.0806V82.3088V82.537V82.7651V82.9931V83.2211V83.4489V83.6766V83.9042V84.1318V84.3592V84.5865V84.8138V85.0409V85.268V85.495V85.7218V85.9486V86.1753V86.4019V86.6284V86.8547V87.081V87.3072V87.5333V87.7593V87.9852V88.2111V88.4368V88.6624V88.8879V89.1133V89.3386V89.5639V89.789V90.014V90.239V90.4638V90.6885V90.9132V91.1377V91.3622V91.5865V91.8108V92.0349V92.2589V92.4829V92.7067V92.9305V93.1541V93.3777V93.6011V93.8245V94.0477V94.2709V94.4939V94.7169V94.9397V95.1625V95.3851V95.6077V95.8301V96.0525V96.2747V96.4969V96.7189V96.9408V97.1627V97.3844V97.6061V97.8276V98.049V98.2703V98.4916V98.7127V98.9337V99.1546V99.3755V99.5962V99.8168V100.037V100.258V100.478V100.698V100.918V101.138V101.358V101.578V101.798V102.017V102.237V102.456V102.675V102.894V103.113V103.332V103.551V103.77V103.989V104.207V104.426V104.644V104.862V105.08V105.298V105.516V105.734V105.951V106.169V106.387V106.604V106.821V107.038V107.255V107.472V107.689V107.906V108.122V108.339V108.555V108.772V108.988V109.204V109.42V109.636V109.851V110.067V110.282V110.498V110.713V110.928V111.143V111.358V111.573V111.788V112.003V112.217V112.432V112.646V112.86V113.074V113.288V113.502V113.716V113.929V114.143V114.356V114.57V114.783V114.996V115.209V115.422V115.635V115.847V116.06V116.272V116.485V116.697V116.909V117.121V117.333V117.544V117.756V117.968V118.179V118.39V118.601V118.813V119.024V119.234V119.445V119.656V119.866V120.077V120.287V120.497V120.707V120.917V121V121.05H10.4785H10.5616ZM165.612 1.21268C165.643 50.5434 165.667 87.9875 165.679 107.002C165.685 115.487 165.688 120.302 165.688 120.867L10.6912 120.787V120.707V120.497V120.287V120.077V119.866V119.656V119.445V119.234V119.024V118.813V118.601V118.39V118.179V117.968V117.756V117.544V117.333V117.121V116.909V116.697V116.485V116.272V116.06V115.847V115.635V115.422V115.209V114.996V114.783V114.57V114.356V114.143V113.929V113.716V113.502V113.288V113.074V112.86V112.646V112.432V112.217V112.003V111.788V111.573V111.358V111.143V110.928V110.713V110.498V110.282V110.067V109.851V109.636V109.42V109.204V108.988V108.772V108.555V108.339V108.122V107.906V107.689V107.472V107.255V107.038V106.821V106.604V106.387V106.169V105.951V105.734V105.516V105.298V105.08V104.862V104.644V104.426V104.207V103.989V103.77V103.551V103.332V103.113V102.894V102.675V102.456V102.237V102.017V101.798V101.578V101.358V101.138V100.918V100.698V100.478V100.258V100.037V99.8168V99.5962V99.3755V99.1546V98.9337V98.7127V98.4916V98.2703V98.049V97.8276V97.6061V97.3844V97.1627V96.9408V96.7189V96.4969V96.2747V96.0525V95.8301V95.6077V95.3851V95.1625V94.9397V94.7169V94.4939V94.2709V94.0477V93.8245V93.6011V93.3777V93.1541V92.9305V92.7067V92.4829V92.2589V92.0349V91.8108V91.5865V91.3622V91.1377V90.9132V90.6885V90.4638V90.239V90.014V89.789V89.5639V89.3386V89.1133V88.8879V88.6624V88.4368V88.2111V87.9852V87.7593V87.5333V87.3072V87.081V86.8547V86.6284V86.4019V86.1753V85.9486V85.7218V85.495V85.268V85.0409V84.8138V84.5865V84.3592V84.1318V83.9042V83.6766V83.4489V83.2211V82.9931V82.7651V82.537V82.3088V82.0806V81.8522V81.6237V81.3951V81.1665V80.9377V80.7089V80.4799V80.2509V80.0218V79.7925V79.5632V79.3338V79.1043V78.8747V78.6451V78.4153V78.1854V77.9555V77.7254V77.4953V77.265V77.0347V76.8043V76.5738V76.3432V76.1125V75.8818V75.6509V75.4199V75.1889V74.9577V74.7265V74.4952V74.2638V74.0323V73.8007V73.569V73.3373V73.1054V72.8735V72.6415V72.4093V72.1771V71.9448V71.7124V71.48V71.2474V71.0148V70.782V70.5492V70.3163V70.0833V69.8502V69.617V69.3838V69.1504V68.917V68.6835V68.4498V68.2161V67.9824V67.7485V67.5145V67.2805V67.0464V66.8122V66.5779V66.3435V66.109V65.8745V65.6398V65.4051V65.1703V64.9354V64.7004V64.4653V64.2302V63.995V63.7596V63.5242V63.2887V63.0532V62.8175V62.5818V62.346V62.1101V61.8741V61.638V61.4018V61.1656V60.9293V60.6929V60.4564V60.2198V59.9832V59.7464V59.5096V59.2727V59.0358V58.7987V58.5616V58.3243V58.087V57.8496V57.6122V57.3746V57.137V56.8993V56.6615V56.4236V56.1857V55.9476V55.7095V55.4713V55.2331V54.9947V54.7563V54.5178V54.2792V54.0405V53.8018V53.5629V53.324V53.085V52.846V52.6068V52.3676V52.1283V51.8889V51.6495V51.4099V51.1703V50.9306V50.6909V50.451V50.2111V49.9711V49.731V49.4909V49.2506V49.0103V48.7699V48.5295V48.2889V48.0483V47.8076V47.5669V47.326V47.0851V46.8441V46.603V46.3619V46.1207V45.8794V45.638V45.3966V45.155V44.9134V44.6718V44.43V44.1882V43.9463V43.7044V43.4623V43.2202V42.978V42.7357V42.4934V42.251V42.0085V41.766V41.5233V41.2806V41.0378V40.795V40.5521V40.3091V40.066V39.8229V39.5797V39.3364V39.093V38.8496V38.6061V38.3625V38.1189V37.8752V37.6314V37.3876V37.1436V36.8996V36.6556V36.4114V36.1672V35.9229V35.6786V35.4342V35.1897V34.9451V34.7005V34.4558V34.211V33.9662V33.7213V33.4763V33.2313V32.9862V32.741V32.4958V32.2504V32.005V31.7596V31.5141V31.2685V31.0228V30.7771V30.5313V30.2854V30.0395V29.7935V29.5475V29.3013V29.0551V28.8089V28.5625V28.3161V28.0697V27.8231V27.5765V27.3299V27.0832V26.8364V26.5895V26.3426V26.0956V25.8485V25.6014V25.3542V25.107V24.8597V24.6123V24.3648V24.1173V23.8697V23.6221V23.3744V23.1266V22.8788V22.6309V22.383V22.1349V21.8868V21.6387V21.3905V21.1422V20.8939V20.6455V20.397V20.1485V19.8999V19.6512V19.4025V19.1538V18.9049V18.656V18.4071V18.158V17.9089V17.6598V17.4106V17.1613V16.912V16.6626V16.4132V16.1636V15.9141V15.6644V15.4148V15.165V14.9152V14.6653V14.4154V14.1654V13.9153V13.6652V13.4151V13.1648V12.9145V12.6642V12.4138V12.1633V11.9128V11.6622V11.4116V11.1609V10.9101V10.6593V10.4084V10.1575V9.90651V9.65546V9.40436V9.1532V8.90198V8.6507V8.39937V8.14798V7.89654V7.64503V7.39348V7.14186V6.89019V6.63846V6.38668V6.13484V5.88295V5.631V5.37899V5.12693V4.87481V4.62264V4.37042V4.11813V3.8658V3.61341V3.36096V3.10846V2.85591V2.6033V2.35064V2.09792V1.84515V1.59233V1.33945V1.22995L165.612 1.21268Z" fill="#263238" stroke="black" stroke-width="0.1"/>
<path d="M171.449 48.7167L126.856 55.8193L129.217 70.639L173.809 63.5364L171.449 48.7167Z" fill="white"/>
<path d="M173.803 63.5454C173.803 63.5454 173.803 63.4554 173.758 63.2859C173.713 63.1163 173.685 62.8567 173.63 62.5279C173.519 61.86 173.36 60.8771 173.149 59.6104L171.387 48.7362L171.453 48.7847L126.869 55.9141L126.945 55.8138C127.766 60.9601 128.558 65.9542 129.302 70.6299L129.202 70.5572L161.108 65.5181L170.428 64.0611L172.934 63.6735L173.581 63.5731L173.806 63.5454L173.595 63.5835L172.958 63.6908L170.477 64.0992L161.181 65.6012L129.226 70.7303H129.14V70.6437C128.396 65.9681 127.6 60.974 126.776 55.8276V55.7376H126.866L171.46 48.667H171.518V48.7258C172.249 53.3842 172.827 57.0943 173.225 59.645C173.422 60.9117 173.571 61.8911 173.675 62.5556C173.723 62.8809 173.761 63.1301 173.789 63.3032C173.796 63.4624 173.803 63.5454 173.803 63.5454Z" fill="#7E7E7E"/>
<path d="M137.456 61.2198C137.419 60.9776 137.431 60.7303 137.492 60.493C137.553 60.2556 137.661 60.0331 137.811 59.839C137.96 59.6448 138.148 59.483 138.361 59.3634C138.575 59.2438 138.811 59.1689 139.055 59.1432C139.323 59.0899 139.599 59.097 139.864 59.1641C140.128 59.2312 140.375 59.3565 140.585 59.5308L140.128 60.0777C140.002 59.9651 139.852 59.8824 139.69 59.8357C139.527 59.7889 139.357 59.7794 139.19 59.8077C139.037 59.8218 138.888 59.8673 138.752 59.9412C138.617 60.015 138.499 60.1159 138.404 60.2374C138.309 60.3589 138.24 60.4985 138.201 60.6477C138.163 60.7968 138.155 60.9523 138.179 61.1046C138.202 61.2569 138.257 61.4026 138.339 61.533C138.421 61.6633 138.529 61.7755 138.656 61.8625C138.784 61.9495 138.927 62.0095 139.079 62.0388C139.23 62.0682 139.386 62.0662 139.536 62.0331C139.703 62.0076 139.862 61.9449 140.002 61.8497C140.141 61.7544 140.258 61.629 140.342 61.4828L140.934 61.8773C140.722 62.1864 140.424 62.4269 140.077 62.5698C139.73 62.7126 139.349 62.7516 138.981 62.6819C138.612 62.6122 138.272 62.4369 138.001 62.1773C137.731 61.9177 137.541 61.5851 137.456 61.2198Z" fill="#7E7E7E"/>
<path d="M143.638 60.4615L143.88 61.9877L143.157 62.1019L143.101 61.7558C143.032 61.8997 142.926 62.0222 142.793 62.1105C142.66 62.1988 142.506 62.2497 142.347 62.2577C141.72 62.358 141.308 62.0673 141.218 61.607C141.128 61.1467 141.426 60.7556 142.257 60.6241L142.873 60.5272C142.821 60.1811 142.589 60.0323 142.181 60.0981C141.904 60.1402 141.648 60.27 141.45 60.4684L141.104 59.9735C141.412 59.6982 141.796 59.521 142.205 59.4647C142.977 59.3505 143.51 59.6516 143.638 60.4615ZM142.97 61.2644L142.928 60.991L142.395 61.0775C142.049 61.1363 141.942 61.2886 141.969 61.4651C141.997 61.6416 142.184 61.7628 142.457 61.7178C142.58 61.7076 142.697 61.658 142.789 61.5763C142.881 61.4945 142.945 61.3851 142.97 61.2644Z" fill="#7E7E7E"/>
<path d="M146.281 61.4722C146.113 61.621 145.903 61.7151 145.679 61.7422C145.049 61.8426 144.641 61.5761 144.53 60.9427L144.354 59.8456L143.942 59.9114L143.848 59.3126L144.26 59.2469L144.156 58.5962L144.928 58.4751L145.032 59.1257L145.7 59.0185L145.793 59.6137L145.129 59.721L145.302 60.8077C145.303 60.8548 145.314 60.9011 145.335 60.9433C145.356 60.9854 145.386 61.0222 145.424 61.0511C145.461 61.08 145.504 61.1002 145.55 61.1102C145.596 61.1202 145.644 61.1197 145.69 61.1088C145.802 61.0909 145.906 61.039 145.987 60.96L146.281 61.4722Z" fill="#7E7E7E"/>
<path d="M149.081 60.0121L147.06 60.3339C147.128 60.4937 147.251 60.6237 147.407 60.7C147.562 60.7763 147.741 60.7938 147.908 60.7492C148.031 60.7366 148.15 60.6994 148.258 60.6399C148.366 60.5805 148.462 60.5 148.538 60.4032L149.023 60.7839C148.904 60.9545 148.75 61.0971 148.571 61.2017C148.391 61.3064 148.191 61.3705 147.984 61.3895C147.06 61.5383 146.368 61.0434 146.254 60.2578C146.223 60.0729 146.23 59.8837 146.275 59.7016C146.319 59.5196 146.4 59.3484 146.513 59.1986C146.625 59.0488 146.767 58.9234 146.93 58.83C147.092 58.7366 147.272 58.6772 147.458 58.6554C147.641 58.616 147.831 58.6155 148.014 58.654C148.197 58.6924 148.37 58.7689 148.522 58.8786C148.674 58.9882 148.801 59.1285 148.895 59.2904C148.989 59.4523 149.048 59.6321 149.068 59.8183C149.071 59.8633 149.075 59.9463 149.081 60.0121ZM146.977 59.884L148.292 59.6764C148.229 59.5398 148.123 59.4276 147.99 59.3567C147.857 59.2859 147.705 59.2602 147.556 59.2837C147.408 59.3072 147.271 59.3785 147.166 59.4868C147.062 59.5951 146.995 59.7346 146.977 59.884Z" fill="#7E7E7E"/>
<path d="M152.12 57.9351L152.466 60.1604C152.622 61.1537 152.158 61.6936 151.196 61.8493C150.729 61.9449 150.244 61.8891 149.812 61.6901L150.033 61.0845C150.339 61.2388 150.685 61.2921 151.023 61.2368C151.57 61.1502 151.767 60.863 151.691 60.3819L151.674 60.2677C151.582 60.3975 151.464 60.5064 151.328 60.5869C151.191 60.6675 151.039 60.718 150.881 60.7349C150.708 60.7701 150.53 60.7699 150.357 60.7343C150.184 60.6987 150.02 60.6285 149.874 60.5278C149.729 60.4271 149.606 60.2981 149.512 60.1485C149.418 59.9989 149.356 59.8318 149.328 59.6574C149.3 59.4829 149.308 59.3047 149.352 59.1334C149.395 58.9621 149.472 58.8014 149.579 58.6608C149.686 58.5202 149.82 58.4028 149.974 58.3155C150.127 58.2283 150.297 58.173 150.473 58.1531C150.638 58.1176 150.81 58.121 150.974 58.1631C151.137 58.2051 151.289 58.2846 151.417 58.3954L151.362 58.0493L152.12 57.9351ZM151.556 59.3194C151.544 59.1766 151.489 59.0409 151.398 58.9298C151.307 58.8188 151.185 58.7377 151.048 58.697C150.91 58.6564 150.764 58.6581 150.627 58.7019C150.491 58.7457 150.371 58.8297 150.283 58.9428C150.195 59.0559 150.143 59.1929 150.134 59.3359C150.125 59.479 150.159 59.6214 150.233 59.7446C150.306 59.8679 150.414 59.9662 150.544 60.0268C150.674 60.0874 150.819 60.1074 150.961 60.0843C151.052 60.0767 151.141 60.05 151.221 60.0058C151.302 59.9616 151.372 59.901 151.428 59.8278C151.483 59.7547 151.523 59.6707 151.544 59.5814C151.564 59.492 151.566 59.3992 151.549 59.309L151.556 59.3194Z" fill="#7E7E7E"/>
<path d="M152.857 59.1879C152.791 58.8968 152.815 58.5927 152.924 58.315C153.033 58.0374 153.224 57.799 153.47 57.6308C153.717 57.4627 154.008 57.3725 154.306 57.3721C154.605 57.3716 154.897 57.4609 155.144 57.6283C155.391 57.7957 155.582 58.0335 155.692 58.3108C155.802 58.5881 155.826 58.8921 155.761 59.1834C155.697 59.4747 155.546 59.7398 155.328 59.9443C155.111 60.1487 154.837 60.2831 154.543 60.33C154.356 60.3737 154.163 60.3784 153.975 60.3436C153.787 60.3089 153.608 60.2356 153.45 60.1283C153.291 60.021 153.157 59.882 153.055 59.7202C152.953 59.5583 152.885 59.3771 152.857 59.1879ZM155.006 58.8418C154.974 58.7112 154.905 58.5926 154.807 58.5007C154.709 58.4088 154.586 58.3475 154.454 58.3243C154.321 58.301 154.185 58.3169 154.061 58.3699C153.938 58.4228 153.832 58.5107 153.758 58.6226C153.683 58.7346 153.643 58.8658 153.642 59.0003C153.641 59.1347 153.679 59.2666 153.751 59.3798C153.824 59.493 153.928 59.5826 154.051 59.6376C154.173 59.6926 154.309 59.7107 154.442 59.6897C154.537 59.6751 154.627 59.6411 154.708 59.5898C154.788 59.5385 154.858 59.4711 154.911 59.3918C154.964 59.3124 155.001 59.2229 155.018 59.1289C155.035 59.0348 155.032 58.9382 155.01 58.8452L155.006 58.8418Z" fill="#7E7E7E"/>
<path d="M157.747 56.9971L157.862 57.7135C157.803 57.7097 157.744 57.7097 157.685 57.7135C157.582 57.7183 157.482 57.7469 157.392 57.797C157.303 57.8471 157.226 57.9173 157.168 58.0022C157.11 58.087 157.072 58.1842 157.058 58.2861C157.044 58.3879 157.054 58.4916 157.086 58.5891L157.287 59.8489L156.512 59.9734L156.086 57.3016L156.827 57.184L156.882 57.53C156.973 57.3782 157.099 57.2505 157.25 57.1577C157.4 57.0649 157.571 57.0098 157.747 56.9971Z" fill="#7E7E7E"/>
<path d="M160.959 56.5264L160.201 59.5547C160.046 60.2468 159.71 60.4926 159.229 60.5687C158.962 60.6188 158.685 60.5748 158.447 60.4441L158.64 59.8488C158.778 59.9359 158.943 59.9714 159.104 59.9492C159.319 59.9146 159.423 59.8004 159.488 59.5443V59.52L157.903 57.0144L158.703 56.8863L159.741 58.5787L160.205 56.644L160.959 56.5264Z" fill="#7E7E7E"/>
<path d="M165.344 57.4788C165.438 58.0637 165.071 58.6729 164.084 58.8321C163.617 58.913 163.136 58.8565 162.7 58.6694L162.915 58.0049C163.237 58.1619 163.599 58.2151 163.953 58.1572C164.354 58.0949 164.576 57.8907 164.531 57.6069C164.486 57.3231 164.271 57.2124 163.814 57.285L163.444 57.3439L163.361 56.8109L163.946 55.8903L162.468 56.1256L162.364 55.4784L164.787 55.0908L164.87 55.6134L164.226 56.6309C164.487 56.5973 164.75 56.6674 164.959 56.826C165.168 56.9846 165.306 57.2191 165.344 57.4788Z" fill="#7E7E7E"/>
<path d="M32.99 59.5995L0 67.4219L6.25424 93.7984L39.2443 85.9761L32.99 59.5995Z" fill="#FAFAFA"/>
<path d="M0.0994089 67.7191L0.262072 67.6845L0.729294 67.5807L2.52896 67.1688L9.31234 65.5941L33.2272 60.0013L33.1199 59.9355C34.9715 67.816 37.0965 76.8455 39.3495 86.4045L39.4222 86.2869L6.31865 94.0981L6.41902 94.1604C4.52245 86.2004 2.95812 79.59 1.85409 74.9732L0.566631 69.6122L0.22054 68.2002C0.1444 67.8818 0.0959473 67.7122 0.0959473 67.7122L0.199775 68.1863C0.275915 68.5117 0.383204 68.9789 0.52164 69.5915C0.808895 70.827 1.21382 72.6371 1.76064 74.942C2.84391 79.5762 4.38747 86.2038 6.25982 94.1951L6.27713 94.2781L6.35672 94.2573L39.4638 86.4842L39.5607 86.4599L39.5399 86.363C37.2834 76.8109 35.1515 67.7814 33.293 59.9044L33.2722 59.8179L33.1857 59.8352L9.2362 65.5249L2.48397 67.1377L0.705067 67.5703L0.251687 67.6811L0.0994089 67.7191Z" fill="#263238"/>
<path d="M32.4553 61.8518L1.67603 69.105L7.12804 92.2408L37.9073 84.9876L32.4553 61.8518Z" fill="#455A64"/>
<path d="M37.9099 84.9854L23.7687 73.1387L19.2314 83.7048L13.5798 79.9601L7.13208 92.2394L37.9099 84.9854Z" fill="#455A64"/>
<path d="M13.8674 73.6132C13.9798 74.0932 14.232 74.5291 14.5922 74.8657C14.9524 75.2023 15.4043 75.4245 15.8908 75.5042C16.3773 75.5838 16.8765 75.5174 17.3252 75.3133C17.774 75.1093 18.1521 74.7766 18.4117 74.3576C18.6714 73.9386 18.8009 73.4519 18.784 72.9592C18.767 72.4665 18.6042 71.99 18.3163 71.5898C18.0284 71.1896 17.6283 70.8839 17.1666 70.7111C16.7048 70.5384 16.2023 70.5066 15.7224 70.6196C15.4039 70.6941 15.1032 70.8307 14.8376 71.0215C14.5719 71.2124 14.3465 71.4537 14.1742 71.7318C14.0019 72.0098 13.8861 72.3191 13.8335 72.642C13.7808 72.9648 13.7923 73.2949 13.8674 73.6132Z" fill="#455A64"/>
<g opacity="0.3">
<path d="M37.9099 84.9854L23.7687 73.1387L19.2314 83.7048L13.5798 79.9601L7.13208 92.2394L37.9099 84.9854Z" fill="black"/>
</g>
<g opacity="0.3">
<path d="M13.8674 73.6132C13.9798 74.0932 14.232 74.5291 14.5922 74.8657C14.9524 75.2023 15.4043 75.4245 15.8908 75.5042C16.3773 75.5838 16.8765 75.5174 17.3252 75.3133C17.774 75.1093 18.1521 74.7766 18.4117 74.3576C18.6714 73.9386 18.8009 73.4519 18.784 72.9592C18.767 72.4665 18.6042 71.99 18.3163 71.5898C18.0284 71.1896 17.6283 70.8839 17.1666 70.7111C16.7048 70.5384 16.2023 70.5066 15.7224 70.6196C15.4039 70.6941 15.1032 70.8307 14.8376 71.0215C14.5719 71.2124 14.3465 71.4537 14.1742 71.7318C14.0019 72.0098 13.8861 72.3191 13.8335 72.642C13.7808 72.9648 13.7923 73.2949 13.8674 73.6132Z" fill="black"/>
</g>
</svg>
