<svg width="160" height="122" viewBox="0 0 160 122" fill="none" xmlns="http://www.w3.org/2000/svg">
<path d="M8.54645 1H142.462C143.061 1 143.636 1.23791 144.059 1.66139C144.483 2.08487 144.72 2.65923 144.72 3.25812V9.57445H6.28833V3.25812C6.28833 2.65923 6.52624 2.08487 6.94972 1.66139C7.3732 1.23791 7.94756 1 8.54645 1Z" fill="#7E7E7E" stroke="#3D515A" stroke-linecap="round" stroke-linejoin="round"/>
<path d="M145.871 11.1567H5.95825V109.614H145.871V11.1567Z" fill="white" stroke="#3D515A" stroke-linecap="round" stroke-linejoin="round"/>
<path d="M142.686 5.28215C142.686 5.70349 142.561 6.11536 142.327 6.46568C142.093 6.81601 141.76 7.08906 141.371 7.25029C140.982 7.41153 140.553 7.45372 140.14 7.37152C139.727 7.28932 139.347 7.08643 139.049 6.7885C138.751 6.49057 138.548 6.11099 138.466 5.69775C138.384 5.28451 138.426 4.85618 138.587 4.46692C138.749 4.07766 139.022 3.74495 139.372 3.51087C139.722 3.27679 140.134 3.15186 140.556 3.15186C141.121 3.15186 141.662 3.3763 142.062 3.7758C142.461 4.17531 142.686 4.71716 142.686 5.28215Z" fill="white" stroke="#3D515A" stroke-linecap="round" stroke-linejoin="round"/>
<path d="M135.145 5.28215C135.145 5.70349 135.02 6.11536 134.786 6.46568C134.552 6.81601 134.219 7.08906 133.83 7.25029C133.441 7.41153 133.012 7.45372 132.599 7.37152C132.186 7.28932 131.806 7.08643 131.508 6.7885C131.21 6.49057 131.007 6.11099 130.925 5.69775C130.843 5.28451 130.885 4.85618 131.046 4.46692C131.208 4.07766 131.481 3.74495 131.831 3.51087C132.181 3.27679 132.593 3.15186 133.015 3.15186C133.58 3.15186 134.121 3.3763 134.521 3.7758C134.92 4.17531 135.145 4.71716 135.145 5.28215Z" fill="white" stroke="#3D515A" stroke-linecap="round" stroke-linejoin="round"/>
<path d="M127.588 5.28215C127.588 5.70349 127.463 6.11536 127.229 6.46568C126.995 6.81601 126.662 7.08906 126.273 7.25029C125.883 7.41153 125.455 7.45372 125.042 7.37152C124.629 7.28932 124.249 7.08643 123.951 6.7885C123.653 6.49057 123.45 6.11099 123.368 5.69775C123.286 5.28451 123.328 4.85618 123.489 4.46692C123.651 4.07766 123.924 3.74495 124.274 3.51087C124.624 3.27679 125.036 3.15186 125.457 3.15186C126.022 3.15186 126.564 3.3763 126.964 3.7758C127.363 4.17531 127.588 4.71716 127.588 5.28215Z" fill="white" stroke="#3D515A" stroke-linecap="round" stroke-linejoin="round"/>
<path d="M141.632 15.3799H136.093" stroke="#3D515A" stroke-width="2" stroke-linecap="round" stroke-linejoin="round"/>
<path d="M141.632 17.6265H136.093" stroke="#3D515A" stroke-width="2" stroke-linecap="round" stroke-linejoin="round"/>
<path d="M141.632 19.875H136.093" stroke="#3D515A" stroke-width="2" stroke-linecap="round" stroke-linejoin="round"/>
<path d="M15.6453 73.4727H57.5749" stroke="#3D515A" stroke-width="2" stroke-linecap="round" stroke-linejoin="round"/>
<path d="M15.6453 76.7803H57.5749" stroke="#3D515A" stroke-width="2" stroke-linecap="round" stroke-linejoin="round"/>
<path d="M15.6453 80.1455H48.7075" stroke="#3D515A" stroke-width="2" stroke-linecap="round" stroke-linejoin="round"/>
<path d="M104.559 12.2642V12.5304" stroke="#3D515A" stroke-linecap="round" stroke-linejoin="round"/>
<path d="M104.559 14.1274V106.918" stroke="#3D515A" stroke-linecap="round" stroke-linejoin="round" stroke-dasharray="1 3"/>
<path d="M104.559 107.717V107.984" stroke="#3D515A" stroke-linecap="round" stroke-linejoin="round"/>
<path d="M7.64185 87.5327H7.90813" stroke="#3D515A" stroke-linecap="round" stroke-linejoin="round"/>
<path d="M9.49976 87.5327H142.665" stroke="#3D515A" stroke-linecap="round" stroke-linejoin="round" stroke-dasharray="1 2.99"/>
<path d="M143.464 87.5327H143.73" stroke="#3D515A" stroke-linecap="round" stroke-linejoin="round"/>
<path d="M105.48 86.6113H103.643V88.4487H105.48V86.6113Z" fill="white" stroke="#3D515A" stroke-linecap="round" stroke-linejoin="round"/>
<path d="M97.2255 69.8833H72.6951" stroke="#3D515A" stroke-linecap="round" stroke-linejoin="round"/>
<path d="M97.6999 81.2271C97.6999 81.2271 97.6999 69.8247 84.9607 69.8247C72.2215 69.8247 72.2002 81.2271 72.2002 81.2271" stroke="#3D515A" stroke-linecap="round" stroke-linejoin="round"/>
<path d="M97.6991 82.3025C98.2932 82.3025 98.7749 81.8208 98.7749 81.2267C98.7749 80.6325 98.2932 80.1509 97.6991 80.1509C97.1049 80.1509 96.6233 80.6325 96.6233 81.2267C96.6233 81.8208 97.1049 82.3025 97.6991 82.3025Z" fill="#7E7E7E" stroke="#3D515A" stroke-linecap="round" stroke-linejoin="round"/>
<path d="M71.1343 81.2273C71.1343 81.0166 71.1968 80.8107 71.3138 80.6355C71.4308 80.4603 71.5972 80.3238 71.7918 80.2432C71.9864 80.1626 72.2006 80.1415 72.4072 80.1826C72.6138 80.2237 72.8036 80.3251 72.9526 80.4741C73.1016 80.6231 73.203 80.8128 73.2441 81.0195C73.2852 81.2261 73.2641 81.4402 73.1835 81.6349C73.1029 81.8295 72.9664 81.9959 72.7912 82.1129C72.616 82.2299 72.4101 82.2924 72.1994 82.2924C71.9169 82.2924 71.646 82.1802 71.4463 81.9804C71.2465 81.7807 71.1343 81.5098 71.1343 81.2273Z" fill="#7E7E7E" stroke="#3D515A" stroke-linecap="round" stroke-linejoin="round"/>
<path d="M96.7573 70.7676H98.6426V68.8823H96.7573V70.7676Z" fill="#7E7E7E" stroke="#3D515A" stroke-linecap="round" stroke-linejoin="round"/>
<path d="M84.0178 70.7676H85.9031V68.8823H84.0178V70.7676Z" fill="#7E7E7E" stroke="#3D515A" stroke-linecap="round" stroke-linejoin="round"/>
<path d="M71.2785 70.7676H73.1638V68.8823H71.2785V70.7676Z" fill="#7E7E7E" stroke="#3D515A" stroke-linecap="round" stroke-linejoin="round"/>
<path d="M30.8876 35.6014V31.8308L28.0703 31.5912C27.903 31.0019 27.6689 30.4337 27.3726 29.8976L29.194 27.7353L26.5311 25.0724L24.3636 26.8939C23.8293 26.5936 23.2606 26.3594 22.67 26.1962L22.425 23.3735H18.665L18.42 26.1962C17.8308 26.3587 17.2638 26.593 16.7318 26.8939L14.5642 25.0724L11.9013 27.7353L13.7227 29.8976C13.4242 30.4326 13.19 31.0011 13.025 31.5912L10.2024 31.8308V35.6014L13.025 35.8411C13.1909 36.4309 13.425 36.9992 13.7227 37.5347L11.9013 39.6969L14.5642 42.3598L16.7318 40.5384C17.2604 40.8385 17.8238 41.0728 18.4094 41.2361L18.6544 44.0587H22.4197L22.6646 41.2361C23.2535 41.0725 23.8204 40.8382 24.3529 40.5384L26.5205 42.3598L29.1834 39.6969L27.3619 37.5347C27.6574 36.9982 27.8914 36.4301 28.0596 35.8411L30.8876 35.6014ZM20.5397 38.0939C19.6738 38.0939 18.8274 37.8371 18.1075 37.3561C17.3876 36.8751 16.8265 36.1914 16.4951 35.3914C16.1638 34.5915 16.0771 33.7113 16.246 32.8621C16.4149 32.0129 16.8319 31.2328 17.4441 30.6206C18.0564 30.0083 18.8364 29.5914 19.6856 29.4225C20.5348 29.2536 21.415 29.3403 22.215 29.6716C23.0149 30.003 23.6986 30.5641 24.1796 31.284C24.6607 32.0039 24.9174 32.8503 24.9174 33.7161C24.9174 34.8772 24.4562 35.9907 23.6352 36.8117C22.8142 37.6327 21.7007 38.0939 20.5397 38.0939Z" fill="#7E7E7E" stroke="#3D515A" stroke-linecap="round" stroke-linejoin="round"/>
<path d="M43.6912 44.0483V41.4706L41.7579 41.3002C41.6467 40.8974 41.4876 40.5094 41.284 40.1445L42.5302 38.664L40.7034 36.8426L39.2229 38.0888C38.8571 37.8856 38.4694 37.7248 38.0672 37.6095L37.9021 35.6709H35.3244L35.154 37.6041C34.7518 37.7195 34.3641 37.8803 33.9983 38.0835L32.5178 36.8372L30.691 38.6586L31.9426 40.1392C31.735 40.5028 31.574 40.8911 31.4633 41.2949L29.53 41.4653V44.043L31.4633 44.2081C31.573 44.6122 31.7341 45.0006 31.9426 45.3638L30.691 46.855L32.5178 48.6764L33.9983 47.4301C34.3641 47.6333 34.7518 47.7941 35.154 47.9095L35.3244 49.8374H37.9021L38.0672 47.9095C38.4694 47.7941 38.8571 47.6333 39.2229 47.4301L40.7034 48.6764L42.5302 46.855L41.3106 45.3691C41.5152 45.0047 41.6744 44.6165 41.7846 44.2134L43.6912 44.0483ZM36.6133 45.7525C36.0198 45.7536 35.4394 45.5785 34.9455 45.2494C34.4516 44.9204 34.0664 44.4521 33.8388 43.904C33.6112 43.3559 33.5514 42.7526 33.6669 42.1705C33.7824 41.5884 34.0681 41.0536 34.4878 40.634C34.9074 40.2143 35.4422 39.9286 36.0243 39.8131C36.6064 39.6976 37.2097 39.7574 37.7578 39.985C38.3059 40.2126 38.7742 40.5977 39.1032 41.0916C39.4323 41.5855 39.6074 42.166 39.6063 42.7595C39.6049 43.5528 39.2891 44.3133 38.7281 44.8743C38.1671 45.4353 37.4067 45.7511 36.6133 45.7525Z" fill="#7E7E7E" stroke="#3D515A" stroke-linecap="round" stroke-linejoin="round"/>
<path d="M109.821 93.7959H130.448" stroke="#3D515A" stroke-width="2" stroke-linecap="round" stroke-linejoin="round"/>
<path d="M109.821 97.103H130.448" stroke="#3D515A" stroke-width="2" stroke-linecap="round" stroke-linejoin="round"/>
<path d="M109.821 100.469H121.581" stroke="#3D515A" stroke-width="2" stroke-linecap="round" stroke-linejoin="round"/>
<path d="M82.6439 101.843H71.7847C71.0785 101.843 70.4011 101.562 69.9018 101.063C69.4024 100.564 69.1218 99.8862 69.1218 99.18C69.1218 98.4737 69.4024 97.7964 69.9018 97.297C70.4011 96.7976 71.0785 96.5171 71.7847 96.5171H82.6439C83.3501 96.5171 84.0274 96.7976 84.5268 97.297C85.0262 97.7964 85.3068 98.4737 85.3068 99.18C85.3068 99.8862 85.0262 100.564 84.5268 101.063C84.0274 101.562 83.3501 101.843 82.6439 101.843Z" fill="#7E7E7E" stroke="#3D515A" stroke-linecap="round" stroke-linejoin="round"/>
<path d="M102.882 101.843H92.0225C91.3163 101.843 90.6389 101.562 90.1396 101.063C89.6402 100.564 89.3596 99.8862 89.3596 99.18C89.3596 98.4737 89.6402 97.7964 90.1396 97.297C90.6389 96.7976 91.3163 96.5171 92.0225 96.5171H102.882C103.588 96.5171 104.265 96.7976 104.765 97.297C105.264 97.7964 105.545 98.4737 105.545 99.18C105.545 99.8862 105.264 100.564 104.765 101.063C104.265 101.562 103.588 101.843 102.882 101.843Z" fill="#7E7E7E" stroke="#3D515A" stroke-linecap="round" stroke-linejoin="round"/>
<path d="M134.357 44.708H111.329V67.7365H134.357V44.708Z" fill="white" stroke="#3D515A" stroke-linecap="round" stroke-linejoin="round"/>
<path d="M111.329 44.708L134.357 67.7365" stroke="#3D515A" stroke-linecap="round" stroke-linejoin="round"/>
<path d="M134.357 44.708L111.329 67.7365" stroke="#3D515A" stroke-linecap="round" stroke-linejoin="round"/>
<path d="M120.361 18.564V23.9376L117.991 26.3076H112.617V18.564H120.361Z" fill="white" stroke="#3D515A" stroke-linecap="round" stroke-linejoin="round"/>
<path d="M120.361 23.9375L117.991 26.3075V23.9375H120.361Z" fill="white" stroke="#3D515A" stroke-linecap="round" stroke-linejoin="round"/>
<path d="M38.0085 60.1211V65.4948L35.6386 67.8701H30.2649V60.1211H38.0085Z" fill="white" stroke="#3D515A" stroke-linecap="round" stroke-linejoin="round"/>
<path d="M38.0081 65.4946L35.6382 67.8699V65.4946H38.0081Z" fill="white" stroke="#3D515A" stroke-linecap="round" stroke-linejoin="round"/>
<path d="M8.74896 93.2314V98.6051L6.379 100.975H1V93.2314H8.74896Z" fill="white" stroke="#3D515A" stroke-linecap="round" stroke-linejoin="round"/>
<path d="M8.74886 98.605L6.37891 100.975V98.605H8.74886Z" fill="white" stroke="#3D515A" stroke-linecap="round" stroke-linejoin="round"/>
<path d="M159.367 31.0264H130.789V48.9369H159.367V31.0264Z" fill="#3D515A" stroke="#3D515A" stroke-linecap="round" stroke-linejoin="round"/>
<path d="M159.367 31.0264H130.789V33.7478H159.367V31.0264Z" fill="#7E7E7E" stroke="#3D515A" stroke-linecap="round" stroke-linejoin="round"/>
<path d="M133.702 36.0435H141.009" stroke="white" stroke-linecap="round" stroke-linejoin="round"/>
<path d="M137.355 38.0835H149.999" stroke="white" stroke-linecap="round" stroke-linejoin="round"/>
<path d="M135.742 39.9844H139.464" stroke="white" stroke-linecap="round" stroke-linejoin="round"/>
<path d="M137.355 42.2266H145.871" stroke="white" stroke-linecap="round" stroke-linejoin="round"/>
<path d="M133.702 44.2612H141.009" stroke="white" stroke-linecap="round" stroke-linejoin="round"/>
<path d="M51.8875 103.089H23.3096V121H51.8875V103.089Z" fill="#3D515A" stroke="#3D515A" stroke-linecap="round" stroke-linejoin="round"/>
<path d="M51.8875 103.089H23.3096V105.811H51.8875V103.089Z" fill="#7E7E7E" stroke="#3D515A" stroke-linecap="round" stroke-linejoin="round"/>
<path d="M26.228 108.112H33.5296" stroke="white" stroke-linecap="round" stroke-linejoin="round"/>
<path d="M29.8765 110.146H42.5198" stroke="white" stroke-linecap="round" stroke-linejoin="round"/>
<path d="M28.2625 112.047H31.9851" stroke="white" stroke-linecap="round" stroke-linejoin="round"/>
<path d="M29.8765 114.29H38.3923" stroke="white" stroke-linecap="round" stroke-linejoin="round"/>
<path d="M26.228 116.329H33.5296" stroke="white" stroke-linecap="round" stroke-linejoin="round"/>
</svg>
