<svg width="170" height="122" viewBox="0 0 170 122" fill="none" xmlns="http://www.w3.org/2000/svg">
<path d="M169.318 1.10742H1.1311V120.94H169.318V1.10742Z" fill="white"/>
<path d="M65.4963 53.1299H1.1311V120.941H65.4963V53.1299Z" fill="#EBEBEB"/>
<path d="M169.318 8.14062H1.1311V20.8303H169.318V8.14062Z" fill="#7E7E7E"/>
<path d="M9.53512 18.0844C11.5222 18.0844 13.133 16.4736 13.133 14.4865C13.133 12.4995 11.5222 10.8887 9.53512 10.8887C7.54807 10.8887 5.93726 12.4995 5.93726 14.4865C5.93726 16.4736 7.54807 18.0844 9.53512 18.0844Z" fill="white"/>
<path d="M85.8607 16.9983H20.6291C20.2966 16.9999 19.9672 16.9355 19.6599 16.8089C19.3525 16.6822 19.0733 16.4959 18.8384 16.2607C18.6036 16.0255 18.4177 15.746 18.2915 15.4384C18.1654 15.1309 18.1015 14.8014 18.1036 14.4689C18.1036 13.8033 18.368 13.1648 18.8387 12.6941C19.3094 12.2234 19.9478 11.959 20.6135 11.959H85.8607C86.5268 11.959 87.1656 12.2233 87.6369 12.6939C88.1082 13.1645 88.3735 13.8029 88.3746 14.4689C88.3766 14.8004 88.3131 15.1289 88.1877 15.4357C88.0623 15.7425 87.8774 16.0215 87.6438 16.2566C87.4102 16.4916 87.1324 16.6782 86.8263 16.8055C86.5203 16.9328 86.1922 16.9983 85.8607 16.9983Z" fill="white"/>
<path d="M169.318 20.8301H1.1311V53.1293H169.318V20.8301Z" fill="#FAFAFA"/>
<path d="M111.295 49.6417L120.721 44.4664L133.418 47.4892L141.36 39.2949L151.769 49.6145L111.295 49.6417Z" fill="#E0E0E0"/>
<path d="M158.277 33.0036C158.46 31.6826 156.591 30.5908 155.189 30.4781C154.52 30.4237 153.825 30.5286 153.188 30.3072C151.816 29.8293 151.264 28.0537 149.924 27.4864C148.921 27.0629 147.767 27.4398 146.816 27.9293C145.864 28.4189 144.873 29.0328 143.797 29.0949C142.852 29.1571 141.827 28.8074 141.003 29.2659C140.385 29.6117 140.063 30.3188 139.495 30.7384C138.905 31.1048 138.22 31.2899 137.526 31.2708C136.835 31.2551 136.147 31.3684 135.497 31.6049C134.872 31.8924 134.351 32.5529 134.483 33.2329L158.277 33.0036Z" fill="#E0E0E0"/>
<path d="M110.995 29.8295C111.1 29.0524 110.028 28.4424 109.219 28.3763C108.828 28.3932 108.436 28.3592 108.054 28.2753C107.277 27.9995 106.946 26.9815 106.177 26.6551C105.598 26.4103 104.938 26.6279 104.378 26.9077C103.851 27.2482 103.26 27.4782 102.641 27.5837C102.097 27.6187 101.511 27.4167 101.033 27.6847C100.679 27.8829 100.493 28.2909 100.166 28.5318C99.8268 28.74 99.4341 28.8453 99.0358 28.8348C98.6385 28.8262 98.2432 28.8921 97.8702 29.0291C97.6843 29.1007 97.5266 29.2307 97.4208 29.3995C97.315 29.5683 97.2668 29.7669 97.2835 29.9655L110.995 29.8295Z" fill="#EBEBEB"/>
<path d="M154.294 49.9118C154.294 49.939 124.765 49.9623 88.3781 49.9623C51.9915 49.9623 22.4548 49.939 22.4548 49.9118C22.4548 49.8846 51.9643 49.8574 88.3781 49.8574C124.792 49.8574 154.294 49.8807 154.294 49.9118Z" fill="#E0E0E0"/>
<path d="M58.8609 39.2718C59.9285 40.786 61.5534 41.8148 63.3788 42.1321C65.2042 42.4495 67.081 42.0295 68.5971 40.9644C70.1131 39.8993 71.1446 38.2762 71.465 36.4513C71.7855 34.6265 71.3687 32.749 70.3062 31.2312C69.2437 29.7133 67.6223 28.6791 65.798 28.3555C63.9736 28.032 62.0955 28.4456 60.5758 29.5055C59.0562 30.5654 58.0192 32.1851 57.6926 34.0089C57.3659 35.8326 57.7763 37.7115 58.8337 39.2329" fill="#E0E0E0"/>
<path d="M47.8115 49.9289L56.5264 39.2713L61.6551 44.1591L73.9951 30.0125L79.8348 27.6035L91.4172 41.4394L95.5434 39.8386L102.32 45.7444L104.942 43.7861L112.581 49.7774L47.8115 49.9289Z" fill="#EBEBEB"/>
<path d="M48.5458 29.7519C48.5458 29.7519 48.3205 29.6742 47.9086 29.5848C47.328 29.4577 46.7296 29.434 46.1408 29.5149C45.2645 29.6311 44.4375 29.9874 43.7513 30.5445C42.9129 31.2289 42.322 32.1693 42.0689 33.2215V33.2487L42.0184 33.4391L41.9446 33.2604C41.536 32.262 40.8325 31.4121 39.9281 30.8242C39.1906 30.3447 38.3425 30.0624 37.4647 30.0044C36.8733 29.9612 36.2787 30.015 35.7046 30.1637C35.3161 30.2725 35.083 30.3658 35.0791 30.3541C35.128 30.3238 35.1801 30.2991 35.2345 30.2803C35.383 30.2143 35.5362 30.1597 35.693 30.1171C36.4116 29.9051 37.1673 29.8495 37.9092 29.954C38.6512 30.0586 39.3621 30.3209 39.9941 30.7232C40.9219 31.3215 41.6445 32.1892 42.065 33.2099H41.9446V33.1788C42.2056 32.1001 42.8146 31.1375 43.6775 30.4396C44.3825 29.8748 45.232 29.5194 46.1291 29.4139C46.7278 29.3402 47.3349 29.377 47.9203 29.5226C48.08 29.5619 48.237 29.6112 48.3904 29.6703C48.4441 29.6938 48.496 29.7211 48.5458 29.7519Z" fill="#E0E0E0"/>
<path d="M52.8514 23.2988C52.8514 23.2988 52.7271 23.2639 52.4978 23.2173C52.1797 23.1504 51.8522 23.1399 51.5304 23.1862C51.054 23.2527 50.605 23.4489 50.2327 23.7534C49.7773 24.127 49.4555 24.6383 49.3157 25.2105L49.2691 25.4008L49.1953 25.2221C48.9727 24.6775 48.5891 24.2138 48.0957 23.8933C47.6949 23.63 47.2335 23.4735 46.7553 23.4387C46.4318 23.4125 46.1062 23.4401 45.7917 23.5203C45.5702 23.5747 45.4498 23.6213 45.4459 23.6136C45.442 23.6058 45.4731 23.5903 45.5275 23.5669C45.609 23.5281 45.6935 23.4956 45.78 23.4698C46.1769 23.3496 46.595 23.3161 47.006 23.3718C47.417 23.4274 47.8111 23.5708 48.1618 23.7923C48.6841 24.1199 49.0915 24.6019 49.3274 25.1716H49.2069C49.3529 24.5712 49.693 24.0358 50.1744 23.6485C50.5011 23.3897 50.8836 23.2104 51.2916 23.1247C51.6995 23.0391 52.1218 23.0495 52.525 23.1551C52.6124 23.1776 52.6981 23.2062 52.7815 23.2406C52.8242 23.2794 52.8514 23.2911 52.8514 23.2988Z" fill="#E0E0E0"/>
<path d="M38.2408 74.0248C38.2408 74.0831 32.0669 74.1259 24.4516 74.1259C16.8362 74.1259 10.6584 74.0831 10.6584 74.0248C10.6584 73.9666 16.8323 73.9238 24.4516 73.9238C32.0708 73.9238 38.2408 73.9705 38.2408 74.0248Z" fill="#3D515A"/>
<path d="M53.5067 78.4584C53.5067 78.5167 43.9759 78.5595 32.2226 78.5595C20.4693 78.5595 10.9424 78.5167 10.9424 78.4584C10.9424 78.4002 20.4693 78.3574 32.2226 78.3574C43.9759 78.3574 53.5067 78.4041 53.5067 78.4584Z" fill="#3D515A"/>
<path d="M27.8979 82.3979C27.8979 82.4562 24.0397 82.4989 19.2801 82.4989C14.5205 82.4989 10.6584 82.4562 10.6584 82.3979C10.6584 82.3396 14.5166 82.2969 19.2801 82.2969C24.0436 82.2969 27.8979 82.3435 27.8979 82.3979Z" fill="#E0E0E0"/>
<path d="M26.315 89.1475V92.2558H25.736V90.9192H24.1275V92.2558H23.5447V89.1475H24.1236V90.4335H25.7321V89.1475H26.315Z" fill="#E0E0E0"/>
<path d="M26.9003 91.0711C26.891 90.8186 26.9574 90.5691 27.091 90.3547C27.2245 90.1403 27.4192 89.9707 27.6499 89.8677C27.8806 89.7648 28.1368 89.7332 28.3856 89.777C28.6344 89.8208 28.8645 89.938 29.0461 90.1135C29.2278 90.2891 29.3529 90.5149 29.4052 90.7621C29.4575 91.0092 29.4348 91.2664 29.3398 91.5005C29.2449 91.7346 29.0821 91.935 28.8724 92.0759C28.6627 92.2167 28.4157 92.2917 28.163 92.2911C27.9984 92.3002 27.8337 92.2752 27.6792 92.2177C27.5247 92.1602 27.3838 92.0714 27.2652 91.9569C27.1466 91.8423 27.053 91.7045 26.9902 91.5521C26.9274 91.3996 26.8968 91.2359 26.9003 91.0711ZM28.8702 91.0711C28.8626 90.9341 28.8151 90.8023 28.7335 90.6919C28.6519 90.5816 28.5399 90.4975 28.4111 90.45C28.2823 90.4026 28.1425 90.3939 28.0088 90.4249C27.8752 90.456 27.7535 90.5255 27.6589 90.6248C27.5642 90.7242 27.5007 90.849 27.4761 90.984C27.4515 91.119 27.467 91.2583 27.5206 91.3846C27.5742 91.5109 27.6636 91.6188 27.7777 91.695C27.8919 91.7711 28.0258 91.8122 28.163 91.8132C28.2596 91.8156 28.3555 91.7978 28.4448 91.7609C28.534 91.724 28.6145 91.6688 28.6811 91.5989C28.7477 91.529 28.799 91.4459 28.8315 91.355C28.8641 91.2641 28.8772 91.1674 28.8702 91.0711Z" fill="#E0E0E0"/>
<path d="M33.9374 90.8976V92.2575H33.3818V90.9676C33.3818 90.544 33.1875 90.342 32.8495 90.342C32.5115 90.342 32.2317 90.579 32.2317 91.053V92.2575H31.6761V90.9676C31.6761 90.544 31.478 90.342 31.1399 90.342C30.8019 90.342 30.5222 90.579 30.5222 91.053V92.2575H29.9666V89.8835H30.495V90.1866C30.592 90.0775 30.712 89.9913 30.8464 89.9342C30.9808 89.877 31.1262 89.8505 31.272 89.8563C31.4278 89.8451 31.5838 89.8752 31.7243 89.9434C31.8648 90.0116 31.9849 90.1156 32.0724 90.2449C32.1813 90.1165 32.3181 90.0148 32.4723 89.9475C32.6265 89.8801 32.7941 89.849 32.9622 89.8563C33.0988 89.8456 33.2361 89.8657 33.3638 89.9152C33.4916 89.9648 33.6066 90.0424 33.7002 90.1424C33.7939 90.2424 33.8638 90.3623 33.9049 90.493C33.946 90.6237 33.9571 90.762 33.9374 90.8976Z" fill="#E0E0E0"/>
<path d="M36.897 91.2497H35.032C35.0685 91.4238 35.168 91.5784 35.3114 91.6838C35.4548 91.7892 35.632 91.838 35.8091 91.8208C35.9289 91.8258 36.0485 91.8052 36.1597 91.7603C36.2709 91.7154 36.3713 91.6473 36.4541 91.5605L36.7533 91.9024C36.5735 92.0817 36.3463 92.2059 36.0983 92.2604C35.8504 92.3149 35.592 92.2975 35.3536 92.2101C35.1152 92.1228 34.9068 91.9692 34.7528 91.7673C34.5987 91.5655 34.5056 91.3239 34.4842 91.0709C34.4759 90.9083 34.5017 90.7458 34.56 90.5938C34.6183 90.4418 34.7078 90.3037 34.8228 90.1884C34.9377 90.0731 35.0755 89.9832 35.2273 89.9244C35.3791 89.8656 35.5416 89.8392 35.7042 89.847C35.8656 89.842 36.0262 89.8705 36.176 89.9307C36.3258 89.991 36.4614 90.0817 36.5743 90.1972C36.6871 90.3126 36.7748 90.4502 36.8317 90.6013C36.8886 90.7524 36.9135 90.9136 36.9048 91.0748C36.9048 91.1292 36.9009 91.1953 36.897 91.2497ZM35.0281 90.8806H36.3647C36.3471 90.7168 36.2678 90.5658 36.143 90.4583C36.0182 90.3508 35.8571 90.2948 35.6925 90.3016C35.5297 90.2986 35.3716 90.3561 35.2488 90.4631C35.126 90.5701 35.0474 90.7189 35.0281 90.8806Z" fill="#E0E0E0"/>
<path d="M42.8912 96.1895H1.1311V104.807H42.8912V96.1895Z" fill="white"/>
<path d="M25.5666 101.298H24.0125L23.7055 102.02H23.1111L24.5098 98.9121H25.0965L26.4991 102.02H25.8736L25.5666 101.298ZM25.3724 100.843L24.7857 99.4833L24.2029 100.843H25.3724Z" fill="#3D515A"/>
<path d="M29.3476 100.831C29.3552 100.992 29.3294 101.153 29.2718 101.304C29.2141 101.454 29.126 101.591 29.0128 101.705C28.8996 101.82 28.7639 101.91 28.6142 101.97C28.4645 102.029 28.3041 102.057 28.1431 102.051C27.9966 102.057 27.8508 102.029 27.7163 101.97C27.5818 101.912 27.4622 101.824 27.3661 101.713V102.02H26.8376V98.7178H27.3933V99.9494C27.4917 99.8432 27.6124 99.7599 27.7467 99.7055C27.881 99.6511 28.0256 99.6269 28.1703 99.6347C28.327 99.6331 28.4825 99.6631 28.6273 99.7229C28.7721 99.7827 28.9034 99.8711 29.0133 99.9828C29.1232 100.095 29.2095 100.227 29.2669 100.373C29.3244 100.519 29.3518 100.675 29.3476 100.831ZM28.7803 100.831C28.7727 100.694 28.725 100.562 28.6431 100.451C28.5612 100.341 28.4487 100.257 28.3195 100.21C28.1903 100.163 28.05 100.154 27.9162 100.186C27.7823 100.218 27.6607 100.288 27.5664 100.388C27.472 100.488 27.4091 100.614 27.3854 100.749C27.3617 100.885 27.3783 101.024 27.4331 101.15C27.4878 101.276 27.5784 101.384 27.6936 101.459C27.8087 101.534 27.9434 101.574 28.081 101.574C28.177 101.575 28.2724 101.557 28.361 101.52C28.4496 101.483 28.5294 101.428 28.5953 101.358C28.6612 101.288 28.7117 101.205 28.7436 101.114C28.7754 101.024 28.788 100.927 28.7803 100.831Z" fill="#3D515A"/>
<path d="M29.6815 100.831C29.6722 100.578 29.7386 100.329 29.8722 100.114C30.0058 99.9001 30.2004 99.7305 30.4311 99.6275C30.6618 99.5246 30.9181 99.493 31.1669 99.5368C31.4157 99.5806 31.6457 99.6978 31.8274 99.8733C32.0091 100.049 32.1341 100.275 32.1865 100.522C32.2388 100.769 32.216 101.026 32.1211 101.26C32.0261 101.494 31.8633 101.695 31.6536 101.836C31.4439 101.976 31.1969 102.051 30.9443 102.051C30.7795 102.061 30.6146 102.036 30.4598 101.979C30.305 101.921 30.1639 101.833 30.0452 101.718C29.9265 101.603 29.8329 101.465 29.7703 101.313C29.7077 101.16 29.6775 100.996 29.6815 100.831ZM31.6514 100.831C31.6446 100.693 31.5974 100.56 31.5156 100.448C31.4339 100.336 31.3212 100.251 31.1915 100.203C31.0619 100.155 30.9209 100.146 30.7861 100.177C30.6513 100.208 30.5286 100.278 30.4332 100.378C30.3378 100.478 30.2738 100.604 30.2492 100.74C30.2247 100.876 30.2406 101.017 30.295 101.144C30.3494 101.271 30.4399 101.38 30.5553 101.456C30.6707 101.532 30.8059 101.573 30.9443 101.573C31.0408 101.575 31.1368 101.558 31.226 101.521C31.3152 101.484 31.3957 101.429 31.4624 101.359C31.529 101.289 31.5802 101.206 31.6128 101.115C31.6453 101.024 31.6585 100.927 31.6514 100.831Z" fill="#3D515A"/>
<path d="M35.0473 99.6416V102.019H34.515V101.716C34.4192 101.827 34.2995 101.915 34.1649 101.973C34.0303 102.031 33.8843 102.057 33.7379 102.051C33.5977 102.064 33.4562 102.046 33.3241 101.997C33.1919 101.948 33.0723 101.87 32.9742 101.769C32.8762 101.668 32.802 101.546 32.7573 101.413C32.7126 101.279 32.6985 101.137 32.716 100.998V99.6416H33.2716V100.924C33.2716 101.355 33.4776 101.561 33.8273 101.561C34.1769 101.561 34.4761 101.32 34.4761 100.842V99.6416H35.0473Z" fill="#3D515A"/>
<path d="M37.2033 101.891C37.0489 102.003 36.8616 102.061 36.671 102.054C36.5617 102.069 36.4506 102.058 36.3461 102.023C36.2415 101.988 36.1463 101.93 36.0674 101.853C35.9885 101.776 35.9281 101.682 35.8907 101.578C35.8532 101.474 35.8397 101.364 35.8512 101.254V100.088H35.4626V99.6455H35.8512V99.1016H36.4068V99.6455H37.044V100.088H36.4068V101.219C36.4068 101.452 36.5234 101.577 36.7371 101.577C36.8493 101.58 36.9592 101.544 37.0479 101.476L37.2033 101.891Z" fill="#3D515A"/>
<path d="M71.9312 61.2039H70.6101L70.3459 61.8178H69.8408L71.0336 59.1719H71.5154L72.7121 61.8178H72.1954L71.9312 61.2039ZM71.768 60.8154L71.2706 59.6498L70.7733 60.8154H71.768Z" fill="#7E7E7E"/>
<path d="M75.1469 60.8068C75.1547 60.944 75.1335 61.0814 75.0849 61.21C75.0362 61.3386 74.9612 61.4555 74.8645 61.5533C74.7678 61.6511 74.6517 61.7275 74.5237 61.7776C74.3957 61.8277 74.2585 61.8504 74.1212 61.8442C73.9952 61.8506 73.8695 61.828 73.7536 61.7782C73.6377 61.7283 73.5348 61.6525 73.4529 61.5566V61.817H73.0022V59.0117H73.4723V60.0452C73.5547 59.9561 73.6552 59.8856 73.7672 59.8387C73.8791 59.7918 73.9999 59.7694 74.1212 59.7733C74.2582 59.7671 74.395 59.7897 74.5227 59.8396C74.6505 59.8894 74.7664 59.9655 74.863 60.0628C74.9596 60.1601 75.0348 60.2766 75.0837 60.4047C75.1326 60.5329 75.1541 60.6698 75.1469 60.8068ZM74.6651 60.8068C74.6718 60.7239 74.6612 60.6405 74.6341 60.5619C74.607 60.4833 74.5638 60.4112 74.5075 60.35C74.4511 60.2889 74.3826 60.2401 74.3064 60.2068C74.2303 60.1734 74.148 60.1562 74.0649 60.1562C73.9817 60.1562 73.8994 60.1734 73.8233 60.2068C73.7471 60.2401 73.6786 60.2889 73.6222 60.35C73.5659 60.4112 73.5227 60.4833 73.4956 60.5619C73.4684 60.6405 73.4579 60.7239 73.4646 60.8068C73.4579 60.8897 73.4684 60.973 73.4956 61.0516C73.5227 61.1302 73.5659 61.2024 73.6222 61.2635C73.6786 61.3246 73.7471 61.3734 73.8233 61.4068C73.8994 61.4401 73.9817 61.4573 74.0649 61.4573C74.148 61.4573 74.2303 61.4401 74.3064 61.4068C74.3826 61.3734 74.4511 61.3246 74.5075 61.2635C74.5638 61.2024 74.607 61.1302 74.6341 61.0516C74.6612 60.973 74.6718 60.8897 74.6651 60.8068Z" fill="#7E7E7E"/>
<path d="M75.4323 60.8075C75.4246 60.593 75.4812 60.381 75.5948 60.1989C75.7084 60.0168 75.8739 59.8728 76.07 59.7855C76.2661 59.6982 76.4838 59.6715 76.6952 59.7088C76.9065 59.7462 77.1019 59.8459 77.2562 59.9951C77.4105 60.1443 77.5166 60.3363 77.5609 60.5463C77.6053 60.7564 77.5858 60.9749 77.505 61.1737C77.4242 61.3726 77.2858 61.5428 77.1075 61.6624C76.9293 61.782 76.7194 61.8455 76.5047 61.8449C76.3647 61.853 76.2246 61.832 76.0932 61.7832C75.9617 61.7344 75.8418 61.6588 75.741 61.5613C75.6403 61.4639 75.5608 61.3465 75.5077 61.2168C75.4545 61.087 75.4289 60.9477 75.4323 60.8075ZM77.1069 60.8075C77.1009 60.6899 77.0605 60.5767 76.9907 60.4818C76.9209 60.3869 76.8249 60.3146 76.7145 60.2737C76.604 60.2329 76.484 60.2253 76.3693 60.2519C76.2546 60.2786 76.1502 60.3382 76.0691 60.4236C75.988 60.5089 75.9336 60.6161 75.9128 60.732C75.8919 60.8479 75.9055 60.9674 75.9519 61.0756C75.9983 61.1839 76.0753 61.2762 76.1736 61.3411C76.2718 61.406 76.387 61.4406 76.5047 61.4408C76.5871 61.4432 76.6692 61.4283 76.7454 61.3969C76.8217 61.3655 76.8905 61.3184 76.9473 61.2587C77.0041 61.1989 77.0477 61.1278 77.0752 61.0501C77.1027 60.9724 77.1135 60.8897 77.1069 60.8075Z" fill="#7E7E7E"/>
<path d="M79.9931 59.7968V61.8172H79.5424V61.5608C79.4615 61.6536 79.361 61.7273 79.248 61.7763C79.1351 61.8254 79.0127 61.8487 78.8896 61.8444C78.7705 61.8557 78.6503 61.8402 78.538 61.799C78.4256 61.7577 78.3239 61.6918 78.2404 61.606C78.1569 61.5203 78.0937 61.4169 78.0554 61.3035C78.0172 61.1901 78.0048 61.0696 78.0193 60.9508V59.7852H78.4933V60.8769C78.4933 61.2422 78.6682 61.417 78.9673 61.417C79.0459 61.4207 79.1243 61.407 79.1969 61.3768C79.2696 61.3466 79.3346 61.3007 79.3873 61.2424C79.4401 61.184 79.4793 61.1147 79.502 61.0395C79.5248 60.9642 79.5306 60.8848 79.5191 60.807V59.7852L79.9931 59.7968Z" fill="#7E7E7E"/>
<path d="M81.8224 61.7099C81.6887 61.8016 81.5298 61.8491 81.3678 61.8459C81.2749 61.8583 81.1804 61.8493 81.0914 61.8198C81.0025 61.7902 80.9215 61.7408 80.8545 61.6753C80.7875 61.6098 80.7362 61.5299 80.7047 61.4416C80.6731 61.3534 80.662 61.2591 80.6723 61.166V60.1946H80.3381V59.8061H80.6723V59.3438H81.1424V59.8061H81.6825V60.1946H81.1424V61.1543C81.1365 61.1935 81.1394 61.2335 81.1511 61.2713C81.1627 61.3092 81.1827 61.3439 81.2095 61.373C81.2364 61.4021 81.2694 61.4248 81.3062 61.4394C81.343 61.454 81.3827 61.4602 81.4222 61.4574C81.5178 61.4624 81.6118 61.432 81.6864 61.3719L81.8224 61.7099Z" fill="#7E7E7E"/>
<path d="M86.6364 60.6597V61.8253H86.1624V60.7063C86.1624 60.3449 85.9953 60.174 85.7078 60.174C85.4203 60.174 85.1832 60.376 85.1832 60.7762V61.802H84.7092V60.7063C84.7092 60.3449 84.5422 60.174 84.2546 60.174C83.9671 60.174 83.7301 60.376 83.7301 60.7762V61.802H83.2561V59.7816H83.7068V60.0419C83.7893 59.9479 83.8918 59.8736 84.0068 59.8245C84.1218 59.7754 84.2463 59.7528 84.3712 59.7583C84.504 59.7517 84.6362 59.7794 84.7553 59.8386C84.8743 59.8977 84.9762 59.9865 85.0511 60.0963C85.1437 59.9864 85.26 59.8989 85.3912 59.8404C85.5224 59.7818 85.6652 59.7538 85.8088 59.7583C85.9264 59.749 86.0445 59.7666 86.1542 59.8098C86.2639 59.853 86.3624 59.9205 86.4421 60.0074C86.5219 60.0943 86.5808 60.1981 86.6145 60.3111C86.6481 60.4241 86.6556 60.5433 86.6364 60.6597Z" fill="#7E7E7E"/>
<path d="M89.1514 60.9573H87.5661C87.5961 61.1044 87.6793 61.2352 87.7997 61.3248C87.9201 61.4144 88.0694 61.4565 88.2189 61.443C88.3212 61.4468 88.4232 61.4291 88.5183 61.3909C88.6133 61.3527 88.6993 61.295 88.7706 61.2215L89.0232 61.5129C88.8707 61.6689 88.6764 61.7777 88.4637 61.8262C88.2509 61.8746 88.0287 61.8607 87.8237 61.786C87.6187 61.7114 87.4395 61.5792 87.3077 61.4054C87.1759 61.2315 87.097 61.0233 87.0805 60.8058C87.0766 60.668 87.1011 60.5309 87.1525 60.403C87.2038 60.2751 87.2808 60.1591 87.3788 60.0622C87.4768 59.9654 87.5937 59.8896 87.7221 59.8397C87.8506 59.7898 87.9879 59.7669 88.1256 59.7722C88.2632 59.7671 88.4003 59.7908 88.5282 59.8419C88.656 59.8929 88.7718 59.9701 88.868 60.0685C88.9643 60.167 89.0388 60.2844 89.087 60.4134C89.1351 60.5424 89.1557 60.68 89.1475 60.8174C89.1591 60.8563 89.1553 60.9107 89.1514 60.9573ZM87.5623 60.6426H88.7279C88.7131 60.5035 88.6458 60.3753 88.5396 60.2843C88.4334 60.1932 88.2964 60.1463 88.1567 60.153C88.0136 60.142 87.8717 60.1868 87.7609 60.2781C87.6501 60.3694 87.5789 60.5 87.5623 60.6426Z" fill="#7E7E7E"/>
<path d="M24.8861 110C24.8861 110.688 24.381 111.107 23.5612 111.107H22.858V111.993H22.2791V108.885H23.5612C24.381 108.885 24.8861 109.312 24.8861 110ZM24.3033 110C24.3033 109.611 24.043 109.382 23.5263 109.382H22.8502V110.618H23.5418C24.043 110.618 24.3189 110.392 24.3189 110H24.3033Z" fill="#E0E0E0"/>
<path d="M27.8173 110.646V111.994H27.2617V110.708C27.2617 110.284 27.0519 110.079 26.6944 110.079C26.6015 110.073 26.5085 110.088 26.4221 110.123C26.3358 110.158 26.2582 110.211 26.195 110.28C26.1318 110.348 26.0846 110.43 26.0568 110.518C26.0289 110.607 26.0211 110.701 26.0339 110.793V111.994H25.4783V108.695H26.0339V109.896C26.1363 109.796 26.258 109.717 26.3915 109.665C26.525 109.613 26.6677 109.588 26.811 109.593C26.9505 109.58 27.0911 109.598 27.2224 109.647C27.3536 109.696 27.4721 109.775 27.5689 109.876C27.6657 109.977 27.7383 110.099 27.7814 110.232C27.8244 110.366 27.8366 110.507 27.8173 110.646Z" fill="#E0E0E0"/>
<path d="M28.3328 110.829C28.3227 110.576 28.3884 110.326 28.5215 110.112C28.6546 109.897 28.849 109.726 29.0796 109.623C29.3102 109.519 29.5665 109.487 29.8155 109.53C30.0646 109.574 30.295 109.691 30.4771 109.866C30.6591 110.041 30.7846 110.267 30.8373 110.514C30.8899 110.762 30.8674 111.019 30.7726 111.253C30.6778 111.488 30.515 111.688 30.3053 111.829C30.0955 111.97 29.8483 112.046 29.5955 112.045C29.4313 112.054 29.2669 112.029 29.1127 111.972C28.9584 111.915 28.8177 111.826 28.6992 111.712C28.5807 111.598 28.487 111.461 28.4239 111.309C28.3609 111.157 28.3299 110.993 28.3328 110.829ZM30.2988 110.829C30.2912 110.692 30.2436 110.56 30.1619 110.449C30.0801 110.339 29.9678 110.255 29.8388 110.207C29.7098 110.16 29.5698 110.152 29.4361 110.183C29.3023 110.214 29.1807 110.284 29.0862 110.384C28.9917 110.484 28.9284 110.609 28.9043 110.744C28.8802 110.879 28.8962 111.019 28.9504 111.145C29.0045 111.271 29.0945 111.379 29.2092 111.455C29.3238 111.53 29.4582 111.571 29.5955 111.571C29.6919 111.573 29.7877 111.556 29.8768 111.519C29.9658 111.482 30.0461 111.427 30.1124 111.357C30.1788 111.287 30.2296 111.203 30.2617 111.113C30.2938 111.022 30.3065 110.925 30.2988 110.829Z" fill="#E0E0E0"/>
<path d="M32.8249 111.878C32.6685 111.988 32.4801 112.044 32.2887 112.037C32.1799 112.051 32.0693 112.04 31.9652 112.006C31.8612 111.971 31.7663 111.913 31.6878 111.836C31.6093 111.76 31.5492 111.666 31.5119 111.563C31.4747 111.46 31.4613 111.35 31.4728 111.241V110.094H31.0842V109.663H31.4728V109.119H32.0284V109.663H32.6656V110.106H32.0284V111.217C32.0284 111.45 32.1449 111.575 32.3586 111.575C32.4708 111.578 32.5805 111.542 32.6695 111.474L32.8249 111.878Z" fill="#E0E0E0"/>
<path d="M33.0071 110.829C32.997 110.576 33.0628 110.326 33.1958 110.112C33.3289 109.897 33.5233 109.726 33.7539 109.623C33.9845 109.519 34.2408 109.487 34.4899 109.53C34.7389 109.574 34.9693 109.691 35.1514 109.866C35.3335 110.041 35.4589 110.267 35.5116 110.514C35.5642 110.762 35.5417 111.019 35.4469 111.253C35.3521 111.488 35.1894 111.688 34.9796 111.829C34.7698 111.97 34.5227 112.046 34.2699 112.045C34.1056 112.054 33.9412 112.029 33.787 111.972C33.6328 111.915 33.492 111.826 33.3735 111.712C33.255 111.598 33.1613 111.461 33.0983 111.309C33.0352 111.157 33.0042 110.993 33.0071 110.829ZM34.977 110.829C34.9702 110.691 34.9229 110.558 34.8412 110.446C34.7595 110.334 34.6468 110.249 34.5171 110.201C34.3875 110.153 34.2465 110.144 34.1117 110.175C33.9769 110.206 33.8542 110.276 33.7588 110.376C33.6634 110.476 33.5994 110.602 33.5748 110.738C33.5503 110.874 33.5662 111.015 33.6206 111.142C33.675 111.269 33.7655 111.378 33.8809 111.454C33.9963 111.53 34.1315 111.571 34.2699 111.571C34.3664 111.573 34.4624 111.556 34.5516 111.519C34.6408 111.482 34.7213 111.427 34.788 111.357C34.8546 111.287 34.9058 111.204 34.9384 111.113C34.9709 111.022 34.9841 110.925 34.977 110.829Z" fill="#E0E0E0"/>
<path d="M35.8025 111.773L36.0162 111.349C36.2648 111.503 36.5513 111.585 36.8438 111.586C37.1935 111.586 37.3411 111.489 37.3411 111.322C37.3411 110.867 35.8724 111.295 35.8724 110.351C35.8724 109.9 36.261 109.605 36.9176 109.605C37.2265 109.6 37.5319 109.671 37.8073 109.811L37.5937 110.234C37.3875 110.114 37.1524 110.052 36.9137 110.055C36.5757 110.055 36.4164 110.168 36.4164 110.323C36.4164 110.801 37.8812 110.374 37.8812 111.306C37.8812 111.749 37.4732 112.037 36.8088 112.037C36.4552 112.045 36.1066 111.953 35.8025 111.773Z" fill="#E0E0E0"/>
<path d="M107.079 63.473C107.079 63.473 107.2 63.473 107.421 63.4263C107.745 63.38 108.057 63.2704 108.338 63.1039C108.857 62.8035 109.255 62.331 109.462 61.7683C109.669 61.2055 109.673 60.588 109.473 60.0228C109.336 59.638 109.108 59.2921 108.808 59.0147C108.508 58.7373 108.146 58.5366 107.752 58.4297C107.302 58.338 106.842 58.3079 106.384 58.3404H104.896H98.2907C97.7271 58.3434 97.1805 58.5333 96.7366 58.8804C96.3064 59.2147 95.9991 59.682 95.8623 60.2092C95.7235 60.7225 95.7507 61.2666 95.94 61.7634C96.1221 62.2338 96.44 62.6396 96.8531 62.929C97.2477 63.2042 97.7129 63.3606 98.1936 63.3797C98.6676 63.3797 99.1416 63.3797 99.5923 63.3797H102.11L105.751 63.4108H106.741C106.857 63.409 106.973 63.4155 107.087 63.4302C106.972 63.441 106.856 63.441 106.741 63.4302L105.751 63.4497L102.11 63.4846H99.5923C99.1377 63.4846 98.6753 63.4846 98.1858 63.4846C97.6707 63.4695 97.1712 63.3048 96.7482 63.0106C96.4023 62.768 96.1176 62.4481 95.9168 62.0764C95.716 61.7046 95.6046 61.2911 95.5914 60.8688C95.5782 60.4465 95.6636 60.0269 95.8408 59.6433C96.018 59.2597 96.2821 58.9227 96.6122 58.659C97.0906 58.2849 97.6795 58.08 98.2868 58.0762H104.892H107.091C107.329 58.0801 107.565 58.114 107.794 58.1772C108.174 58.2837 108.526 58.473 108.824 58.7314C109.123 58.9897 109.36 59.3109 109.52 59.6718C109.679 60.0326 109.757 60.4244 109.748 60.8189C109.738 61.2134 109.642 61.601 109.465 61.9538C109.224 62.4324 108.843 62.8266 108.373 63.0844C108.079 63.2459 107.755 63.3463 107.421 63.3797C107.311 63.422 107.196 63.4532 107.079 63.473Z" fill="#3D515A"/>
<path d="M100.682 60.0762H100.977V61.4127H101.805V61.6614H100.682V60.0762Z" fill="#3D515A"/>
<path d="M101.972 60.0835C101.972 60.0604 101.977 60.0375 101.986 60.0162C101.995 59.9949 102.008 59.9757 102.025 59.9598C102.042 59.9438 102.062 59.9314 102.083 59.9232C102.105 59.9151 102.128 59.9115 102.151 59.9125C102.174 59.9109 102.197 59.9139 102.218 59.9213C102.24 59.9287 102.26 59.9404 102.277 59.9556C102.294 59.9708 102.308 59.9893 102.317 60.0099C102.327 60.0305 102.333 60.0529 102.334 60.0757C102.327 60.1191 102.306 60.1587 102.272 60.1873C102.239 60.216 102.197 60.2318 102.153 60.2318C102.109 60.2318 102.067 60.216 102.034 60.1873C102.001 60.1587 101.979 60.1191 101.972 60.0757V60.0835ZM102.011 60.4526H102.295V61.6609H102.027L102.011 60.4526Z" fill="#3D515A"/>
<path d="M103.157 61.1442L102.947 61.3423V61.6609H102.664V59.9824H102.947V60.9965L103.534 60.4526H103.872L103.367 60.9577L103.919 61.6609H103.581L103.157 61.1442Z" fill="#3D515A"/>
<path d="M105.186 61.15H104.238C104.256 61.2374 104.305 61.3152 104.377 61.3682C104.449 61.4213 104.538 61.446 104.626 61.4375C104.687 61.4402 104.748 61.4302 104.805 61.4082C104.862 61.3861 104.914 61.3524 104.957 61.3093L105.108 61.4802C105.047 61.5475 104.972 61.6003 104.888 61.6346C104.804 61.6689 104.713 61.6838 104.623 61.6784C104.537 61.686 104.45 61.6755 104.369 61.6476C104.288 61.6197 104.213 61.575 104.15 61.5164C104.087 61.4578 104.037 61.3865 104.003 61.3074C103.97 61.2282 103.953 61.1428 103.954 61.0567C103.952 60.9743 103.967 60.8924 103.998 60.8159C104.028 60.7395 104.075 60.6701 104.133 60.6122C104.192 60.5543 104.262 60.509 104.339 60.4792C104.415 60.4494 104.498 60.4357 104.58 60.4389C104.662 60.4361 104.744 60.4504 104.82 60.4811C104.897 60.5117 104.966 60.558 105.023 60.6168C105.081 60.6757 105.125 60.746 105.154 60.8231C105.182 60.9001 105.195 60.9824 105.19 61.0645C105.19 61.093 105.189 61.1216 105.186 61.15ZM104.234 60.9596H104.922C104.913 60.8765 104.873 60.7999 104.809 60.7457C104.745 60.6915 104.663 60.6637 104.58 60.6682C104.496 60.6646 104.414 60.6925 104.35 60.7465C104.286 60.8005 104.245 60.8765 104.234 60.9596Z" fill="#3D515A"/>
<path d="M106.643 59.9824V61.6609H106.375V61.5055C106.327 61.5607 106.267 61.6046 106.2 61.6341C106.133 61.6637 106.06 61.6781 105.987 61.6764C105.831 61.6641 105.685 61.5934 105.579 61.4786C105.473 61.3637 105.414 61.2131 105.414 61.0567C105.414 60.9004 105.473 60.7497 105.579 60.6349C105.685 60.52 105.831 60.4494 105.987 60.437C106.059 60.4349 106.132 60.4484 106.199 60.4765C106.266 60.5047 106.326 60.5468 106.375 60.6002V59.9824H106.643ZM106.367 61.0548C106.362 60.9847 106.336 60.9177 106.294 60.862C106.251 60.8062 106.193 60.7642 106.127 60.741C106.06 60.7177 105.989 60.7143 105.92 60.7312C105.852 60.7481 105.79 60.7845 105.742 60.8359C105.695 60.8874 105.663 60.9517 105.651 61.0209C105.639 61.0902 105.648 61.1614 105.676 61.2258C105.704 61.2903 105.75 61.3452 105.808 61.3838C105.867 61.4224 105.936 61.4431 106.006 61.4433C106.056 61.4447 106.106 61.4353 106.152 61.4159C106.199 61.3965 106.24 61.3674 106.274 61.3307C106.309 61.2939 106.335 61.2503 106.351 61.2027C106.367 61.1552 106.372 61.1047 106.367 61.0548Z" fill="#3D515A"/>
<path d="M107.233 60.8613H108.445L107.839 61.5296L107.233 60.8613Z" fill="#3D515A"/>
<path d="M97.943 60.3489H98.1412L98.6074 59.7001V59.4087C98.6074 59.3906 98.6124 59.3729 98.6219 59.3576C98.6314 59.3422 98.645 59.3298 98.6611 59.3218C98.6772 59.3137 98.6953 59.3103 98.7133 59.3119C98.7312 59.3135 98.7484 59.3201 98.7628 59.331C98.8405 59.3931 98.9182 59.5291 98.8988 59.8127C98.86 60.3683 98.8988 60.2285 98.8988 60.2285C99.1529 60.2205 99.4071 60.2414 99.6565 60.2906C99.7051 60.6603 99.7272 61.0329 99.7225 61.4057C99.7267 61.4965 99.7008 61.5861 99.6488 61.6606C99.5968 61.7351 99.5216 61.7903 99.435 61.8176C99.4092 61.8214 99.3831 61.8214 99.3573 61.8176C99.1863 61.8176 98.2927 61.6738 98.2927 61.6738H97.9236L97.943 60.3489Z" fill="#7E7E7E"/>
<path d="M97.334 60.2334V61.6904H97.8313V60.2606L97.334 60.2334Z" fill="#7E7E7E"/>
<path d="M126.586 63.4736C126.586 63.4736 126.734 63.4736 127.01 63.4153C127.473 63.3356 127.906 63.1299 128.261 62.8207C128.615 62.5115 128.878 62.1107 129.02 61.6622C129.162 61.2137 129.178 60.7347 129.066 60.2778C128.954 59.8209 128.718 59.4035 128.385 59.0715C128.04 58.7303 127.604 58.4944 127.13 58.3915C126.874 58.3437 126.613 58.3241 126.353 58.3333H125.529H121.966H113.807C113.14 58.3286 112.499 58.589 112.024 59.0572C111.55 59.5253 111.28 60.1629 111.276 60.8296C111.271 61.4963 111.531 62.1376 112 62.6123C112.468 63.087 113.105 63.3563 113.772 63.3609L120.439 63.3843L124.95 63.427H126.174H126.489C126.492 63.4139 126.499 63.4023 126.51 63.3945C126.521 63.3867 126.535 63.3831 126.548 63.3846C126.561 63.386 126.574 63.3923 126.583 63.4023C126.591 63.4123 126.596 63.4252 126.596 63.4387C126.596 63.4521 126.591 63.465 126.583 63.475C126.574 63.485 126.561 63.4913 126.548 63.4927C126.535 63.4942 126.521 63.4906 126.51 63.4828C126.499 63.475 126.492 63.4634 126.489 63.4503H126.174L124.95 63.4697L120.455 63.5047L113.784 63.5241C113.109 63.4568 112.484 63.1399 112.031 62.6357C111.578 62.1315 111.329 61.4762 111.334 60.7983C111.339 60.1204 111.597 59.4688 112.057 58.9711C112.518 58.4734 113.147 58.1656 113.823 58.1079H121.982H125.545H126.368C126.638 58.1001 126.908 58.1236 127.173 58.1779C127.858 58.3297 128.455 58.745 128.836 59.334C129.217 59.9229 129.351 60.6381 129.209 61.325C129.075 61.9755 128.7 62.5514 128.16 62.9374C127.823 63.1806 127.432 63.3379 127.021 63.3959C126.88 63.4416 126.734 63.4677 126.586 63.4736Z" fill="#3D515A"/>
<path d="M117.666 61.6634V60.6143L117.142 61.4847H117.014L116.493 60.6299V61.6673H116.209V60.082H116.454L117.083 61.135L117.701 60.082H117.958V61.6673L117.666 61.6634Z" fill="#3D515A"/>
<path d="M119.476 61.15H118.528C118.546 61.2374 118.595 61.3152 118.667 61.3682C118.739 61.4213 118.827 61.446 118.916 61.4375C118.977 61.4398 119.038 61.4296 119.095 61.4075C119.151 61.3855 119.203 61.352 119.247 61.3093L119.398 61.4802C119.337 61.5475 119.262 61.6003 119.178 61.6346C119.094 61.6689 119.003 61.6838 118.912 61.6784C118.827 61.686 118.74 61.6755 118.659 61.6476C118.577 61.6197 118.503 61.575 118.44 61.5164C118.377 61.4578 118.327 61.3865 118.293 61.3074C118.259 61.2282 118.243 61.1428 118.244 61.0567C118.242 60.9743 118.257 60.8924 118.287 60.8159C118.318 60.7395 118.364 60.6701 118.423 60.6122C118.482 60.5543 118.551 60.509 118.628 60.4792C118.705 60.4494 118.787 60.4357 118.87 60.4389C118.952 60.4361 119.034 60.4504 119.11 60.4811C119.186 60.5117 119.256 60.558 119.313 60.6168C119.37 60.6757 119.415 60.746 119.444 60.8231C119.472 60.9001 119.485 60.9824 119.48 61.0645C119.48 61.0956 119.476 61.1228 119.476 61.15ZM118.524 60.9596H119.212C119.202 60.8768 119.161 60.8008 119.098 60.7468C119.034 60.6927 118.953 60.6647 118.87 60.6682C118.786 60.6646 118.704 60.6925 118.64 60.7465C118.576 60.8005 118.534 60.8765 118.524 60.9596Z" fill="#3D515A"/>
<path d="M119.615 61.5411L119.724 61.3274C119.85 61.4053 119.995 61.4469 120.143 61.4478C120.326 61.4478 120.4 61.3973 120.4 61.3118C120.4 61.0826 119.65 61.3118 119.65 60.8184C119.65 60.5892 119.856 60.4299 120.182 60.4299C120.34 60.4269 120.496 60.4629 120.637 60.5348L120.528 60.7523C120.424 60.6892 120.304 60.6569 120.182 60.6591C120.011 60.6591 119.93 60.7174 119.93 60.7951C119.93 61.0399 120.676 60.8223 120.676 61.2963C120.676 61.5217 120.466 61.6848 120.128 61.6848C119.947 61.6865 119.769 61.6366 119.615 61.5411Z" fill="#3D515A"/>
<path d="M120.78 61.5411L120.888 61.3274C121.015 61.4053 121.16 61.4469 121.308 61.4478C121.487 61.4478 121.564 61.3973 121.564 61.3118C121.564 61.0826 120.815 61.3118 120.815 60.8184C120.815 60.5892 121.02 60.4299 121.347 60.4299C121.505 60.4269 121.661 60.4629 121.801 60.5348L121.693 60.7523C121.588 60.6896 121.469 60.6573 121.347 60.6591C121.172 60.6591 121.09 60.7174 121.09 60.7951C121.09 61.0399 121.84 60.8223 121.84 61.2963C121.84 61.5217 121.63 61.6848 121.292 61.6848C121.111 61.6865 120.933 61.6366 120.78 61.5411Z" fill="#3D515A"/>
<path d="M123.094 60.9534V61.6605H122.826V61.5129C122.781 61.5716 122.721 61.6176 122.653 61.6462C122.585 61.6749 122.511 61.6851 122.437 61.6761C122.161 61.6761 121.987 61.5245 121.987 61.3147C121.987 61.1049 122.123 60.9534 122.492 60.9534H122.803C122.803 60.7863 122.701 60.6892 122.503 60.6892C122.364 60.6827 122.226 60.7253 122.115 60.8096L122.002 60.6037C122.152 60.4994 122.332 60.4462 122.515 60.4522C122.892 60.4366 123.094 60.6037 123.094 60.9534ZM122.81 61.2836V61.1438H122.519C122.325 61.1438 122.274 61.2137 122.274 61.3031C122.274 61.3924 122.36 61.4701 122.503 61.4701C122.568 61.4752 122.632 61.4599 122.687 61.4265C122.742 61.393 122.785 61.343 122.81 61.2836Z" fill="#3D515A"/>
<path d="M124.668 60.454V61.4837C124.68 61.5715 124.671 61.661 124.643 61.745C124.614 61.8289 124.566 61.9049 124.502 61.9668C124.439 62.0288 124.362 62.075 124.277 62.1018C124.192 62.1285 124.103 62.1351 124.015 62.1209C123.805 62.1296 123.598 62.0696 123.425 61.9499L123.553 61.7362C123.681 61.8331 123.839 61.8837 124 61.88C124.264 61.88 124.388 61.7595 124.388 61.5147V61.4526C124.335 61.5062 124.271 61.548 124.201 61.5754C124.131 61.6029 124.056 61.6153 123.98 61.6119C123.898 61.6214 123.815 61.6134 123.736 61.5885C123.657 61.5635 123.584 61.5221 123.523 61.4671C123.461 61.4121 123.411 61.3446 123.378 61.2691C123.344 61.1936 123.326 61.1118 123.326 61.0291C123.326 60.9463 123.344 60.8645 123.378 60.789C123.411 60.7136 123.461 60.6461 123.523 60.591C123.584 60.536 123.657 60.4946 123.736 60.4697C123.815 60.4447 123.898 60.4368 123.98 60.4463C124.059 60.4418 124.137 60.4552 124.21 60.4855C124.283 60.5158 124.348 60.5621 124.4 60.6211V60.4618L124.668 60.454ZM124.388 61.0213C124.397 60.9422 124.381 60.8624 124.343 60.7926C124.305 60.7229 124.246 60.6665 124.175 60.6311C124.103 60.5957 124.023 60.5831 123.944 60.5949C123.866 60.6067 123.793 60.6423 123.735 60.697C123.677 60.7517 123.638 60.8228 123.621 60.9007C123.605 60.9786 123.614 61.0595 123.645 61.1326C123.676 61.2057 123.73 61.2674 123.797 61.3093C123.865 61.3512 123.944 61.3714 124.023 61.3671C124.07 61.3703 124.117 61.3637 124.162 61.3478C124.206 61.3318 124.247 61.3068 124.281 61.2743C124.316 61.2418 124.343 61.2025 124.361 61.159C124.38 61.1154 124.389 61.0686 124.388 61.0213Z" fill="#3D515A"/>
<path d="M126.167 61.15H125.219C125.242 61.2347 125.293 61.3093 125.363 61.3615C125.434 61.4137 125.52 61.4405 125.608 61.4375C125.668 61.4399 125.728 61.4298 125.785 61.4077C125.841 61.3856 125.892 61.3521 125.934 61.3093L126.086 61.4802C126.025 61.548 125.95 61.601 125.866 61.6354C125.782 61.6697 125.691 61.6844 125.6 61.6784C125.514 61.686 125.428 61.6755 125.347 61.6476C125.265 61.6197 125.191 61.575 125.128 61.5164C125.065 61.4578 125.015 61.3865 124.981 61.3074C124.947 61.2282 124.93 61.1428 124.932 61.0567C124.93 60.9743 124.944 60.8924 124.975 60.8159C125.006 60.7395 125.052 60.6701 125.111 60.6122C125.169 60.5543 125.239 60.509 125.316 60.4792C125.393 60.4494 125.475 60.4357 125.557 60.4389C125.64 60.4361 125.721 60.4504 125.798 60.4811C125.874 60.5117 125.943 60.558 126.001 60.6168C126.058 60.6757 126.103 60.746 126.131 60.8231C126.16 60.9001 126.172 60.9824 126.167 61.0645C126.169 61.0929 126.169 61.1215 126.167 61.15ZM125.215 60.9596H125.903C125.894 60.8765 125.854 60.7999 125.79 60.7457C125.727 60.6915 125.645 60.6637 125.561 60.6682C125.478 60.6646 125.396 60.6925 125.332 60.7465C125.268 60.8005 125.226 60.8765 125.215 60.9596Z" fill="#3D515A"/>
<path d="M126.664 60.8613H127.876L127.27 61.5296L126.664 60.8613Z" fill="#3D515A"/>
<path d="M118.119 116.666H121.966L120.043 118.787L118.119 116.666Z" fill="#E0E0E0"/>
<path d="M146.68 63.473C146.68 63.473 146.836 63.473 147.12 63.4147C147.657 63.3123 148.148 63.0432 148.523 62.6455C148.898 62.2479 149.139 61.7421 149.21 61.2C149.254 60.8576 149.228 60.5098 149.133 60.1777C149.039 59.8457 148.877 59.5364 148.659 59.2688C148.441 59.0012 148.171 58.7809 147.865 58.6212C147.558 58.4616 147.223 58.3661 146.879 58.3404C146.346 58.3404 145.775 58.3404 145.192 58.3404H141.459H132.911C132.549 58.3419 132.193 58.4207 131.864 58.5715C131.536 58.7223 131.243 58.9415 131.007 59.2146C130.782 59.4764 130.613 59.7817 130.512 60.1115C130.41 60.4412 130.377 60.7884 130.415 61.1314C130.454 61.4744 130.562 61.8059 130.734 62.1051C130.906 62.4043 131.138 62.665 131.415 62.8708C131.678 63.067 131.978 63.2084 132.297 63.2865C132.614 63.3568 132.94 63.3842 133.264 63.3681L140.258 63.3914L144.967 63.4225H146.249H146.579C146.618 63.4174 146.657 63.4174 146.696 63.4225H146.579H146.249L144.967 63.4419L140.258 63.4769L133.264 63.4963C132.924 63.515 132.583 63.4875 132.25 63.4147C131.907 63.3278 131.584 63.1762 131.298 62.9679C130.846 62.6254 130.512 62.1502 130.344 61.6086C130.175 61.0671 130.18 60.4863 130.357 59.9476C130.535 59.409 130.877 58.9393 131.335 58.6044C131.792 58.2696 132.344 58.0862 132.911 58.0801H141.459H145.192C145.779 58.0801 146.335 58.0801 146.89 58.0801C147.428 58.1205 147.941 58.3234 148.361 58.6618C148.781 59.0003 149.088 59.4583 149.242 59.9752C149.395 60.4921 149.389 61.0436 149.222 61.5565C149.055 62.0694 148.737 62.5196 148.308 62.8474C147.968 63.1097 147.567 63.282 147.143 63.3487C147.033 63.3677 146.921 63.3755 146.809 63.372L146.68 63.473Z" fill="#3D515A"/>
<path d="M161.2 63.4733C161.606 63.44 162.002 63.3292 162.366 63.1469C162.781 62.9299 163.129 62.6026 163.37 62.201C163.612 61.7993 163.738 61.3389 163.734 60.8703C163.731 60.4017 163.599 59.943 163.352 59.5447C163.105 59.1464 162.753 58.8239 162.335 58.6127C161.604 58.2241 160.672 58.3795 159.732 58.3446H153.581C152.971 58.3477 152.383 58.5721 151.926 58.9761C151.47 59.38 151.175 59.936 151.097 60.5408C151.019 61.1456 151.163 61.7581 151.503 62.2646C151.843 62.771 152.355 63.137 152.944 63.2945C153.363 63.3767 153.791 63.4067 154.218 63.3839H156.549L159.937 63.415H160.858C160.966 63.4132 161.074 63.4197 161.181 63.4344C161.074 63.4452 160.966 63.4452 160.858 63.4344L159.937 63.4538L156.549 63.4888H154.218H153.589C153.361 63.4874 153.134 63.4587 152.913 63.4033C152.296 63.2183 151.764 62.8202 151.413 62.28C151.062 61.7398 150.915 61.0926 150.996 60.4536C151.078 59.8146 151.384 59.2254 151.859 58.7907C152.335 58.3561 152.949 58.1044 153.593 58.0804H159.743H161.126C161.576 58.074 162.02 58.178 162.42 58.3834C162.747 58.5499 163.037 58.7821 163.27 59.0655C163.503 59.349 163.675 59.6776 163.776 60.0307C163.876 60.3838 163.902 60.7538 163.853 61.1175C163.803 61.4813 163.68 61.8309 163.489 62.1445C163.232 62.5705 162.858 62.9143 162.412 63.1352C162.134 63.2742 161.832 63.3611 161.523 63.3917C161.418 63.3917 161.336 63.3917 161.282 63.3917C161.227 63.3917 161.2 63.4771 161.2 63.4733Z" fill="#3D515A"/>
<path d="M135.594 60.319V60.8008H136.371V61.0494H135.594V61.6555H135.299V60.0703H136.465V60.319H135.594Z" fill="#3D515A"/>
<path d="M136.58 61.0569C136.576 60.9283 136.61 60.8013 136.678 60.6921C136.746 60.5829 136.845 60.4966 136.963 60.4443C137.081 60.392 137.211 60.3761 137.338 60.3986C137.465 60.4211 137.582 60.481 137.674 60.5706C137.766 60.6602 137.83 60.7754 137.856 60.9014C137.883 61.0273 137.871 61.1583 137.822 61.2775C137.773 61.3966 137.69 61.4985 137.583 61.57C137.476 61.6415 137.35 61.6793 137.222 61.6786C137.138 61.6829 137.054 61.6699 136.976 61.6404C136.897 61.611 136.826 61.5657 136.766 61.5073C136.706 61.449 136.658 61.3789 136.626 61.3014C136.594 61.2239 136.579 61.1407 136.58 61.0569ZM137.583 61.0569C137.578 60.9869 137.552 60.9199 137.509 60.8641C137.466 60.8084 137.408 60.7663 137.342 60.7431C137.276 60.7199 137.204 60.7165 137.136 60.7334C137.068 60.7502 137.006 60.7866 136.958 60.8381C136.91 60.8895 136.878 60.9538 136.866 61.0231C136.855 61.0923 136.863 61.1635 136.891 61.228C136.919 61.2924 136.965 61.3474 137.024 61.386C137.083 61.4246 137.151 61.4453 137.222 61.4455C137.272 61.4468 137.322 61.4375 137.368 61.4181C137.414 61.3986 137.456 61.3696 137.49 61.3328C137.524 61.2961 137.55 61.2525 137.566 61.2049C137.582 61.1573 137.588 61.1069 137.583 61.0569Z" fill="#3D515A"/>
<path d="M138.139 59.9824H138.422V61.6609H138.139V59.9824Z" fill="#3D515A"/>
<path d="M138.791 59.9824H139.075V61.6609H138.791V59.9824Z" fill="#3D515A"/>
<path d="M139.347 61.057C139.342 60.9285 139.376 60.8016 139.444 60.6925C139.512 60.5834 139.611 60.4971 139.729 60.4447C139.846 60.3923 139.976 60.3762 140.103 60.3984C140.23 60.4205 140.347 60.4801 140.439 60.5693C140.532 60.6585 140.596 60.7733 140.622 60.899C140.649 61.0247 140.638 61.1556 140.59 61.2748C140.542 61.394 140.459 61.4961 140.353 61.5681C140.246 61.64 140.121 61.6785 139.992 61.6786C139.908 61.6835 139.824 61.6709 139.745 61.6417C139.666 61.6124 139.594 61.5672 139.534 61.5088C139.473 61.4504 139.425 61.3802 139.393 61.3024C139.361 61.2246 139.345 61.1411 139.347 61.057ZM140.35 61.057C140.355 61.0066 140.349 60.9557 140.334 60.9076C140.318 60.8595 140.292 60.8152 140.259 60.7776C140.225 60.74 140.183 60.71 140.137 60.6894C140.091 60.6688 140.041 60.6582 139.99 60.6582C139.94 60.6582 139.889 60.6688 139.843 60.6894C139.797 60.71 139.756 60.74 139.722 60.7776C139.688 60.8152 139.662 60.8595 139.647 60.9076C139.631 60.9557 139.625 61.0066 139.631 61.057C139.625 61.1073 139.631 61.1582 139.647 61.2063C139.662 61.2544 139.688 61.2987 139.722 61.3363C139.756 61.3739 139.797 61.4039 139.843 61.4245C139.889 61.4451 139.94 61.4557 139.99 61.4557C140.041 61.4557 140.091 61.4451 140.137 61.4245C140.183 61.4039 140.225 61.3739 140.259 61.3363C140.292 61.2987 140.318 61.2544 140.334 61.2063C140.349 61.1582 140.355 61.1073 140.35 61.057Z" fill="#3D515A"/>
<path d="M142.757 60.4531L142.31 61.6615H142.046L141.735 60.83L141.416 61.6615H141.144L140.701 60.4531H140.97L141.288 61.3429L141.622 60.4531H141.859L142.186 61.3506L142.512 60.4531H142.757Z" fill="#3D515A"/>
<path d="M142.913 60.0835C142.913 60.0604 142.918 60.0375 142.927 60.0162C142.936 59.9949 142.949 59.9757 142.966 59.9598C142.983 59.9438 143.002 59.9314 143.024 59.9232C143.046 59.9151 143.069 59.9115 143.092 59.9125C143.115 59.9109 143.137 59.9139 143.159 59.9213C143.181 59.9287 143.201 59.9404 143.218 59.9556C143.235 59.9708 143.248 59.9893 143.258 60.0099C143.268 60.0305 143.273 60.0529 143.274 60.0757C143.268 60.1191 143.246 60.1587 143.213 60.1873C143.18 60.216 143.138 60.2318 143.094 60.2318C143.05 60.2318 143.008 60.216 142.974 60.1873C142.941 60.1587 142.919 60.1191 142.913 60.0757V60.0835ZM142.952 60.4526H143.236V61.6609H142.952V60.4526Z" fill="#3D515A"/>
<path d="M144.796 60.9711V61.6627H144.516V61.0061C144.516 60.7924 144.408 60.6874 144.229 60.6874C144.181 60.6847 144.134 60.6925 144.09 60.7103C144.046 60.7281 144.006 60.7554 143.974 60.7904C143.941 60.8253 143.917 60.8669 143.903 60.9122C143.889 60.9576 143.884 61.0055 143.891 61.0527V61.6627H143.603V60.4543H143.871V60.6097C143.924 60.5517 143.989 60.5062 144.062 60.4766C144.134 60.447 144.213 60.4341 144.291 60.4388C144.361 60.4336 144.431 60.4441 144.497 60.4694C144.562 60.4947 144.621 60.5343 144.67 60.5852C144.718 60.6362 144.754 60.6972 144.776 60.7639C144.798 60.8307 144.805 60.9014 144.796 60.9711Z" fill="#3D515A"/>
<path d="M146.367 60.454V61.4837C146.379 61.5715 146.37 61.661 146.342 61.745C146.313 61.8289 146.265 61.9049 146.201 61.9668C146.138 62.0288 146.061 62.075 145.976 62.1018C145.892 62.1285 145.802 62.1351 145.714 62.1209C145.504 62.1296 145.297 62.0696 145.124 61.9499L145.252 61.7362C145.38 61.8331 145.538 61.8837 145.699 61.88C145.963 61.88 146.087 61.7595 146.087 61.5147V61.4526C146.036 61.5037 145.976 61.5442 145.909 61.5715C145.842 61.5989 145.771 61.6126 145.699 61.6119C145.617 61.6214 145.533 61.6134 145.454 61.5885C145.376 61.5635 145.303 61.5221 145.241 61.4671C145.179 61.4121 145.13 61.3446 145.096 61.2691C145.062 61.1936 145.045 61.1118 145.045 61.0291C145.045 60.9463 145.062 60.8645 145.096 60.789C145.13 60.7136 145.179 60.6461 145.241 60.591C145.303 60.536 145.376 60.4946 145.454 60.4697C145.533 60.4447 145.617 60.4368 145.699 60.4463C145.777 60.4418 145.856 60.4552 145.929 60.4855C146.001 60.5158 146.066 60.5621 146.118 60.6211V60.4618L146.367 60.454ZM146.087 61.0213C146.096 60.9424 146.08 60.8627 146.042 60.793C146.004 60.7233 145.946 60.6669 145.875 60.6314C145.804 60.5959 145.724 60.583 145.645 60.5945C145.567 60.6059 145.493 60.6411 145.435 60.6954C145.378 60.7497 145.338 60.8204 145.321 60.898C145.305 60.9757 145.312 61.0565 145.343 61.1297C145.374 61.2028 145.426 61.2648 145.493 61.3073C145.56 61.3497 145.639 61.3706 145.718 61.3671C145.766 61.3709 145.813 61.3647 145.858 61.349C145.903 61.3333 145.944 61.3083 145.979 61.2758C146.014 61.2432 146.042 61.2038 146.06 61.16C146.079 61.1161 146.088 61.0689 146.087 61.0213Z" fill="#3D515A"/>
<path d="M147.018 60.5293H148.23L147.624 61.1976L147.018 60.5293Z" fill="#3D515A"/>
<path d="M155.501 61.3628C155.778 61.3628 156.002 61.1384 156.002 60.8616C156.002 60.5848 155.778 60.3604 155.501 60.3604C155.224 60.3604 155 60.5848 155 60.8616C155 61.1384 155.224 61.3628 155.501 61.3628Z" fill="#3D515A"/>
<path d="M157.753 60.8616C157.753 60.9607 157.723 61.0576 157.668 61.14C157.613 61.2224 157.535 61.2867 157.443 61.3246C157.352 61.3626 157.251 61.3725 157.154 61.3531C157.056 61.3338 156.967 61.2861 156.897 61.216C156.827 61.1459 156.779 61.0566 156.76 60.9593C156.741 60.8621 156.75 60.7613 156.788 60.6698C156.826 60.5782 156.891 60.4999 156.973 60.4448C157.055 60.3897 157.152 60.3604 157.251 60.3604C157.384 60.3604 157.512 60.4132 157.606 60.5072C157.7 60.6012 157.753 60.7286 157.753 60.8616Z" fill="#3D515A"/>
<path d="M159.5 60.8616C159.5 60.9607 159.471 61.0576 159.416 61.14C159.361 61.2224 159.282 61.2867 159.191 61.3246C159.099 61.3626 158.998 61.3725 158.901 61.3531C158.804 61.3338 158.715 61.2861 158.645 61.216C158.575 61.1459 158.527 61.0566 158.507 60.9593C158.488 60.8621 158.498 60.7613 158.536 60.6698C158.574 60.5782 158.638 60.4999 158.721 60.4448C158.803 60.3897 158.9 60.3604 158.999 60.3604C159.132 60.3604 159.259 60.4132 159.353 60.5072C159.447 60.6012 159.5 60.7286 159.5 60.8616Z" fill="#3D515A"/>
<path d="M83.5529 67.0444C83.5529 67.0988 80.6699 67.1454 77.1109 67.1454C73.5519 67.1454 70.6689 67.0988 70.6689 67.0444C70.6689 66.99 73.5558 66.9434 77.1109 66.9434C80.666 66.9434 83.5529 66.9861 83.5529 67.0444Z" fill="#3D515A"/>
<path d="M163.602 71.8256C163.602 71.8839 142.85 71.9267 117.261 71.9267C91.672 71.9267 70.9163 71.8839 70.9163 71.8256C70.9163 71.7673 91.6603 71.7246 117.261 71.7246C142.862 71.7246 163.602 71.7712 163.602 71.8256Z" fill="#3D515A"/>
<path d="M163.806 74.5893C163.806 74.6437 143.054 74.6903 117.465 74.6903C91.8758 74.6903 71.1201 74.6437 71.1201 74.5893C71.1201 74.5349 91.8642 74.4883 117.465 74.4883C143.066 74.4883 163.806 74.5349 163.806 74.5893Z" fill="#3D515A"/>
<path d="M163.603 77.7163C163.603 77.7745 142.898 77.8173 117.367 77.8173C91.8361 77.8173 71.1309 77.7745 71.1309 77.7163C71.1309 77.658 91.8283 77.6152 117.367 77.6152C142.905 77.6152 163.603 77.6619 163.603 77.7163Z" fill="#3D515A"/>
<path d="M76.8851 87.6516C75.938 87.7515 74.9851 87.7852 74.0333 87.7526C73.0815 87.7854 72.1285 87.7516 71.1814 87.6516C72.1283 87.5492 73.0815 87.5154 74.0333 87.5506C74.9851 87.5156 75.9382 87.5493 76.8851 87.6516Z" fill="#3D515A"/>
<path d="M163.418 87.2827C163.418 87.337 144.768 87.3837 121.727 87.3837C98.6872 87.3837 80.0334 87.337 80.0334 87.2827C80.0334 87.2283 98.6833 87.1816 121.727 87.1816C144.772 87.1816 163.418 87.2283 163.418 87.2827Z" fill="#3D515A"/>
<path d="M163.578 90.0444C163.578 90.0988 144.928 90.1454 121.892 90.1454C98.8551 90.1454 80.1975 90.0988 80.1975 90.0444C80.1975 89.99 98.8473 89.9434 121.892 89.9434C144.936 89.9434 163.578 89.9861 163.578 90.0444Z" fill="#3D515A"/>
<path d="M163.578 93.1733C163.578 93.2277 144.928 93.2743 121.892 93.2743C98.8551 93.2743 80.1975 93.2277 80.1975 93.1733C80.1975 93.1189 98.8473 93.0723 121.892 93.0723C144.936 93.0723 163.578 93.1189 163.578 93.1733Z" fill="#3D515A"/>
<path d="M83.327 102.019C83.327 102.073 80.4441 102.12 76.8851 102.12C73.3261 102.12 70.4431 102.073 70.4431 102.019C70.4431 101.965 73.3261 101.914 76.8851 101.914C80.4441 101.914 83.327 101.961 83.327 102.019Z" fill="#3D515A"/>
<path d="M76.8851 107.17C75.938 107.27 74.9851 107.303 74.0333 107.271C73.0815 107.304 72.1285 107.27 71.1814 107.17C72.1285 107.07 73.0815 107.036 74.0333 107.069C74.9851 107.036 75.938 107.07 76.8851 107.17Z" fill="#3D515A"/>
<path d="M163.418 106.802C163.418 106.86 144.768 106.903 121.727 106.903C98.6872 106.903 80.0334 106.86 80.0334 106.802C80.0334 106.744 98.6833 106.701 121.727 106.701C144.772 106.701 163.418 106.748 163.418 106.802Z" fill="#3D515A"/>
<path d="M163.578 109.568C163.578 109.622 144.928 109.669 121.892 109.669C98.8551 109.669 80.1975 109.622 80.1975 109.568C80.1975 109.513 98.8473 109.467 121.892 109.467C144.936 109.467 163.578 109.51 163.578 109.568Z" fill="#3D515A"/>
<path d="M163.578 112.693C163.578 112.751 144.928 112.794 121.892 112.794C98.8551 112.794 80.1975 112.751 80.1975 112.693C80.1975 112.635 98.8473 112.592 121.892 112.592C144.936 112.592 163.578 112.638 163.578 112.693Z" fill="#3D515A"/>
<path d="M148.823 96.3627C148.823 96.4171 133.417 96.4638 114.422 96.4638C95.426 96.4638 80.0127 96.4171 80.0127 96.3627C80.0127 96.3083 95.4143 96.2617 114.422 96.2617C133.429 96.2617 148.823 96.3044 148.823 96.3627Z" fill="#3D515A"/>
<path d="M146.04 80.9106C146.04 80.965 129.368 81.0116 108.802 81.0116C88.2369 81.0116 71.5608 80.965 71.5608 80.9106C71.5608 80.8562 88.233 80.8096 108.802 80.8096C129.371 80.8096 146.04 80.8407 146.04 80.9106Z" fill="#3D515A"/>
<path d="M65.4976 57.5996L55.5977 60.8633L65.4976 65.9532V57.5996Z" fill="white"/>
<path d="M2.15785 96.1895H1V104.807H2.15785V96.1895Z" fill="#7E7E7E"/>
<path d="M50.0525 101.484L51.6766 110.102L53.0131 107.697L55.8806 111.994L57.3143 111.027L54.4469 106.734L57.0811 106.329L50.0525 101.484Z" fill="#3D515A"/>
<path d="M49.4152 100.537C48.96 100.115 48.551 99.6466 48.1952 99.1383C47.7866 98.6727 47.4308 98.1632 47.1345 97.6191C47.9999 98.5049 48.7647 99.4834 49.4152 100.537Z" fill="#3D515A"/>
<path d="M50.609 97.75C50.6472 98.6348 50.5516 99.5203 50.3253 100.377C50.2693 99.9355 50.2824 99.4885 50.3642 99.0516C50.3764 98.6075 50.4591 98.1682 50.609 97.75Z" fill="#3D515A"/>
<path d="M48.8559 101.286C48.5652 101.367 48.2603 101.384 47.9623 101.336C47.6607 101.351 47.3596 101.299 47.0803 101.185C47.371 101.103 47.6759 101.086 47.974 101.134C48.2757 101.117 48.5773 101.169 48.8559 101.286Z" fill="#3D515A"/>
<path d="M115.39 60.0363L112.931 60.0732L112.956 61.7282L115.415 61.6913L115.39 60.0363Z" fill="#7E7E7E"/>
<path d="M115.395 60.0488L115.372 60.0721L115.306 60.1343L115.053 60.3557L114.218 61.094L113.293 60.379L113.025 60.1654L112.955 60.1071L112.928 60.0876H112.955L113.033 60.1459L113.301 60.348L114.191 61.0357H114.21L115.053 60.3169L115.306 60.0993L115.38 60.041L115.395 60.0488Z" fill="white"/>
<path d="M112.963 61.7427C112.963 61.7427 113.138 61.5095 113.352 61.2298C113.565 60.9501 113.771 60.7286 113.775 60.7325C113.779 60.7364 113.596 60.9656 113.387 61.2453C113.177 61.5251 112.967 61.7466 112.963 61.7427Z" fill="white"/>
<path d="M114.61 60.7061C114.61 60.7061 114.8 60.9236 115.025 61.2034C115.251 61.4831 115.414 61.7124 115.414 61.7163C115.414 61.7201 115.224 61.4948 115.002 61.2189C114.781 60.9431 114.606 60.7061 114.61 60.7061Z" fill="white"/>
<path d="M133.917 61.7915C133.927 61.6199 133.901 61.4483 133.843 61.2868C133.784 61.1253 133.694 60.9773 133.576 60.8518C133.459 60.7262 133.318 60.6256 133.161 60.5561C133.004 60.4866 132.834 60.4495 132.662 60.4471V60.0586C132.884 60.0621 133.102 60.1096 133.305 60.1983C133.508 60.287 133.691 60.4152 133.844 60.5753C133.997 60.7355 134.117 60.9244 134.196 61.1312C134.275 61.338 134.313 61.5585 134.306 61.7798L133.917 61.7915Z" fill="#7E7E7E"/>
<path d="M133.288 61.8745C133.281 61.683 133.21 61.4994 133.085 61.3534C132.961 61.2075 132.792 61.1077 132.604 61.0702L132.681 60.6816C132.954 60.7371 133.2 60.8821 133.381 61.0935C133.56 61.3069 133.663 61.5731 133.676 61.8511L133.288 61.8745Z" fill="#7E7E7E"/>
<path d="M132.646 61.7816V61.4824C132.722 61.4964 132.79 61.5356 132.84 61.5935C132.89 61.6513 132.919 61.7245 132.922 61.801L132.646 61.7816Z" fill="#7E7E7E"/>
<path d="M169.318 1.10742H1.1311V8.13996H169.318V1.10742Z" fill="#3D515A"/>
<path d="M1.15404 121.05L169.341 120.961L169.341 120.93H169.367C169.367 120.266 169.398 73.8743 169.48 1.08165V1V0.95H169.43H169.348H1.17346H1.06079H1.01079V1V1.10102V1.35235V1.60364V1.85487V2.10605V2.35719V2.60827V2.8593V3.11028V3.36122V3.6121V3.86293V4.1137V4.36443V4.61511V4.86573V5.11631V5.36683V5.6173V5.86772V6.11809V6.3684V6.61867V6.86888V7.11904V7.36914V7.6192V7.8692V8.11915V8.36905V8.61889V8.86868V9.11842V9.3681V9.61773V9.86731V10.1168V10.3663V10.6157V10.8651V11.1144V11.3637V11.6129V11.862V12.1111V12.3601V12.6091V12.858V13.1069V13.3557V13.6045V13.8532V14.1019V14.3505V14.599V14.8475V15.0959V15.3443V15.5926V15.8409V16.0891V16.3373V16.5854V16.8334V17.0814V17.3293V17.5772V17.825V18.0728V18.3205V18.5681V18.8157V19.0632V19.3107V19.5581V19.8055V20.0528V20.3V20.5472V20.7943V21.0414V21.2884V21.5354V21.7823V22.0291V22.2759V22.5226V22.7693V23.0159V23.2624V23.5089V23.7553V24.0017V24.248V24.4942V24.7404V24.9865V25.2326V25.4786V25.7245V25.9704V26.2163V26.462V26.7077V26.9534V27.199V27.4445V27.6899V27.9353V28.1807V28.426V28.6712V28.9163V29.1614V29.4065V29.6514V29.8963V30.1412V30.386V30.6307V30.8753V31.1199V31.3645V31.609V31.8534V32.0977V32.342V32.5862V32.8304V33.0745V33.3185V33.5625V33.8064V34.0502V34.294V34.5377V34.7814V35.025V35.2685V35.5119V35.7553V35.9987V36.2419V36.4851V36.7283V36.9713V37.2143V37.4573V37.7001V37.943V38.1857V38.4284V38.671V38.9135V39.156V39.3984V39.6408V39.8831V40.1253V40.3674V40.6095V40.8516V41.0935V41.3354V41.5772V41.819V42.0606V42.3023V42.5438V42.7853V43.0267V43.2681V43.5093V43.7505V43.9917V44.2328V44.4738V44.7147V44.9556V45.1964V45.4371V45.6778V45.9184V46.1589V46.3994V46.6398V46.8801V47.1203V47.3605V47.6006V47.8407V48.0807V48.3206V48.5604V48.8002V49.0399V49.2795V49.519V49.7585V49.9979V50.2373V50.4765V50.7157V50.9549V51.1939V51.4329V51.6718V51.9107V52.1495V52.3882V52.6268V52.8653V53.1038V53.3422V53.5806V53.8189V54.0571V54.2952V54.5332V54.7712V55.0091V55.247V55.4847V55.7224V55.96V56.1976V56.435V56.6724V56.9098V57.147V57.3842V57.6213V57.8583V58.0953V58.3322V58.569V58.8057V59.0423V59.2789V59.5154V59.7519V59.9882V60.2245V60.4607V60.6968V60.9329V61.1689V61.4048V61.6406V61.8764V62.1121V62.3477V62.5832V62.8186V63.054V63.2893V63.5245V63.7597V63.9947V64.2297V64.4646V64.6995V64.9342V65.1689V65.4035V65.6381V65.8725V66.1069V66.3412V66.5754V66.8095V67.0436V67.2776V67.5115V67.7453V67.9791V68.2127V68.4463V68.6798V68.9133V69.1466V69.3799V69.6131V69.8462V70.0793V70.3122V70.5451V70.7779V71.0106V71.2433V71.4758V71.7083V71.9407V72.173V72.4053V72.6374V72.8695V73.1015V73.3334V73.5652V73.797V74.0287V74.2602V74.4918V74.7232V74.9545V75.1858V75.417V75.6481V75.8791V76.11V76.3409V76.5717V76.8024V77.033V77.2635V77.4939V77.7243V77.9546V78.1848V78.4149V78.6449V78.8748V79.1047V79.3345V79.5642V79.7938V80.0233V80.2527V80.4821V80.7114V80.9406V81.1697V81.3987V81.6276V81.8565V82.0852V82.3139V82.5425V82.771V82.9995V83.2278V83.456V83.6842V83.9123V84.1403V84.3682V84.596V84.8238V85.0514V85.279V85.5065V85.7339V85.9612V86.1884V86.4155V86.6426V86.8695V87.0964V87.3232V87.5499V87.7765V88.003V88.2295V88.4558V88.6821V88.9082V89.1343V89.3603V89.5862V89.812V90.0378V90.2634V90.489V90.7144V90.9398V91.1651V91.3903V91.6154V91.8404V92.0654V92.2902V92.5149V92.7396V92.9642V93.1887V93.413V93.6374V93.8616V94.0857V94.3097V94.5337V94.7575V94.9813V95.2049V95.4285V95.652V95.8754V96.0987V96.3219V96.545V96.768V96.991V97.2138V97.4366V97.6592V97.8818V98.1043V98.3267V98.5489V98.7711V98.9932V99.2153V99.4372V99.659V99.8807V100.102V100.324V100.545V100.767V100.988V101.209V101.43V101.651V101.872V102.093V102.314V102.534V102.755V102.975V103.196V103.416V103.636V103.856V104.076V104.296V104.515V104.735V104.955V105.174V105.394V105.613V105.832V106.051V106.27V106.489V106.708V106.926V107.145V107.364V107.582V107.8V108.018V108.237V108.455V108.673V108.89V109.108V109.326V109.543V109.761V109.978V110.195V110.412V110.629V110.846V111.063V111.28V111.497V111.713V111.93V112.146V112.362V112.578V112.795V113.01V113.226V113.442V113.658V113.873V114.089V114.304V114.519V114.735V114.95V115.165V115.379V115.594V115.809V116.023V116.238V116.452V116.666V116.881V117.095V117.309V117.522V117.736V117.95V118.163V118.377V118.59V118.803V119.016V119.23V119.442V119.655V119.868V120.081V120.293V120.506V120.718V120.93V121V121.05H1.06079H1.15404ZM169.186 1.22873C169.235 72.7324 169.266 118.735 169.267 120.861L1.2934 120.767V120.695V120.482V120.27V120.057V119.845V119.632V119.419V119.206V118.993V118.78V118.567V118.353V118.14V117.927V117.713V117.499V117.285V117.071V116.857V116.643V116.429V116.215V116V115.786V115.571V115.356V115.141V114.926V114.711V114.496V114.281V114.066V113.85V113.635V113.419V113.203V112.987V112.771V112.555V112.339V112.123V111.907V111.69V111.474V111.257V111.04V110.823V110.606V110.389V110.172V109.955V109.738V109.52V109.303V109.085V108.867V108.65V108.432V108.214V107.995V107.777V107.559V107.341V107.122V106.903V106.685V106.466V106.247V106.028V105.809V105.59V105.371V105.151V104.932V104.712V104.493V104.273V104.053V103.833V103.613V103.393V103.173V102.952V102.732V102.511V102.291V102.07V101.849V101.629V101.408V101.186V100.965V100.744V100.523V100.301V100.08V99.8581V99.6364V99.4146V99.1927V98.9707V98.7486V98.5264V98.3041V98.0817V97.8593V97.6367V97.4141V97.1913V96.9685V96.7456V96.5226V96.2995V96.0763V95.853V95.6296V95.4061V95.1826V94.9589V94.7352V94.5113V94.2874V94.0634V93.8393V93.6151V93.3908V93.1664V92.942V92.7174V92.4928V92.268V92.0432V91.8183V91.5933V91.3682V91.143V90.9177V90.6924V90.4669V90.2414V90.0158V89.79V89.5642V89.3383V89.1124V88.8863V88.6601V88.4339V88.2076V87.9811V87.7546V87.528V87.3013V87.0746V86.8477V86.6208V86.3937V86.1666V85.9394V85.7121V85.4847V85.2573V85.0297V84.8021V84.5744V84.3465V84.1187V83.8907V83.6626V83.4345V83.2062V82.9779V82.7495V82.521V82.2924V82.0637V81.835V81.6062V81.3772V81.1482V80.9191V80.69V80.4607V80.2314V80.0019V79.7724V79.5428V79.3132V79.0834V78.8535V78.6236V78.3936V78.1635V77.9333V77.7031V77.4727V77.2423V77.0118V76.7812V76.5505V76.3198V76.0889V75.858V75.627V75.3959V75.1647V74.9335V74.7022V74.4707V74.2393V74.0077V73.776V73.5443V73.3125V73.0806V72.8486V72.6165V72.3844V72.1521V71.9198V71.6874V71.455V71.2224V70.9898V70.7571V70.5243V70.2915V70.0585V69.8255V69.5924V69.3592V69.1259V68.8926V68.6592V68.4257V68.1921V67.9584V67.7247V67.4909V67.257V67.023V66.789V66.5548V66.3206V66.0864V65.852V65.6176V65.383V65.1484V64.9138V64.679V64.4442V64.2093V63.9743V63.7393V63.5041V63.2689V63.0336V62.7983V62.5628V62.3273V62.0917V61.8561V61.6203V61.3845V61.1486V60.9126V60.6766V60.4405V60.2043V59.968V59.7316V59.4952V59.2587V59.0221V58.7855V58.5488V58.312V58.0751V57.8382V57.6011V57.3641V57.1269V56.8896V56.6523V56.4149V56.1775V55.9399V55.7023V55.4647V55.2269V54.9891V54.7512V54.5132V54.2752V54.037V53.7988V53.5606V53.3222V53.0838V52.8454V52.6068V52.3682V52.1295V51.8907V51.6519V51.413V51.174V50.9349V50.6958V50.4566V50.2173V49.978V49.7386V49.4991V49.2596V49.0199V48.7803V48.5405V48.3007V48.0608V47.8208V47.5807V47.3406V47.1005V46.8602V46.6199V46.3795V46.139V45.8985V45.6579V45.4173V45.1765V44.9357V44.6949V44.4539V44.2129V43.9718V43.7307V43.4895V43.2482V43.0069V42.7654V42.524V42.2824V42.0408V41.7991V41.5573V41.3155V41.0736V40.8317V40.5897V40.3476V40.1054V39.8632V39.6209V39.3786V39.1361V38.8937V38.6511V38.4085V38.1658V37.9231V37.6802V37.4374V37.1944V36.9514V36.7083V36.4652V36.222V35.9787V35.7354V35.492V35.2485V35.005V34.7614V34.5177V34.274V34.0302V33.7864V33.5425V33.2985V33.0545V32.8103V32.5662V32.3219V32.0777V31.8333V31.5889V31.3444V31.0998V30.8552V30.6106V30.3658V30.121V29.8762V29.6313V29.3863V29.1412V28.8961V28.651V28.4057V28.1604V27.9151V27.6697V27.4242V27.1787V26.9331V26.6874V26.4417V26.1959V25.9501V25.7042V25.4582V25.2122V24.9661V24.72V24.4738V24.2275V23.9812V23.7348V23.4883V23.2418V22.9953V22.7487V22.502V22.2553V22.0085V21.7616V21.5147V21.2677V21.0207V20.7736V20.5264V20.2792V20.032V19.7847V19.5373V19.2898V19.0423V18.7948V18.5472V18.2995V18.0518V17.804V17.5562V17.3083V17.0603V16.8123V16.5642V16.3161V16.0679V15.8197V15.5714V15.3231V15.0747V14.8262V14.5777V14.3291V14.0805V13.8318V13.583V13.3343V13.0854V12.8365V12.5875V12.3385V12.0895V11.8403V11.5912V11.3419V11.0926V10.8433V10.5939V10.3444V10.0949V9.84538V9.59577V9.34611V9.09639V8.84661V8.59679V8.34691V8.09698V7.84699V7.59695V7.34686V7.09672V6.84652V6.59627V6.34597V6.09562V5.84521V5.59475V5.34424V5.09368V4.84306V4.5924V4.34168V4.09091V3.84009V3.58922V3.3383V3.08732V2.8363V2.58522V2.3341V2.08292V1.83169V1.58041V1.32909V1.22873H169.186Z" fill="#3D515A" stroke="black" stroke-width="0.1"/>
<path d="M5.93692 5.84016C6.62359 5.84016 7.18024 5.2835 7.18024 4.59684C7.18024 3.91017 6.62359 3.35352 5.93692 3.35352C5.25026 3.35352 4.6936 3.91017 4.6936 4.59684C4.6936 5.2835 5.25026 5.84016 5.93692 5.84016Z" fill="white"/>
<path d="M10.0107 5.84016C10.6973 5.84016 11.254 5.2835 11.254 4.59684C11.254 3.91017 10.6973 3.35352 10.0107 3.35352C9.32399 3.35352 8.76733 3.91017 8.76733 4.59684C8.76733 5.2835 9.32399 5.84016 10.0107 5.84016Z" fill="white"/>
<path d="M13.8588 5.84016C14.5455 5.84016 15.1021 5.2835 15.1021 4.59684C15.1021 3.91017 14.5455 3.35352 13.8588 3.35352C13.1721 3.35352 12.6155 3.91017 12.6155 4.59684C12.6155 5.2835 13.1721 5.84016 13.8588 5.84016Z" fill="white"/>
<path d="M169.319 53.1303C169.319 53.1847 131.887 53.2313 85.7209 53.2313C39.5548 53.2313 2.11914 53.1847 2.11914 53.1303C2.11914 53.0759 39.5431 53.0293 85.7209 53.0293C131.899 53.0293 169.319 53.072 169.319 53.1303Z" fill="#3D515A"/>
<path d="M32.1477 66.7569C41.5631 63.154 46.275 52.6006 42.6721 43.1853C39.0692 33.7699 28.5158 29.058 19.1005 32.6609C9.68513 36.2638 4.97322 46.8172 8.57612 56.2325C12.179 65.6479 22.7324 70.3598 32.1477 66.7569Z" fill="white"/>
<path d="M43.8824 49.6983C43.8824 49.6983 43.8824 49.5973 43.8552 49.3992C43.828 49.201 43.8241 48.9096 43.8008 48.5327C43.8008 48.3424 43.7775 48.1442 43.7659 47.8955C43.7542 47.6469 43.692 47.4099 43.6493 47.1185C43.6066 46.8271 43.5599 46.5473 43.5094 46.2287C43.4472 45.8934 43.3681 45.5614 43.2724 45.234C42.8473 43.5263 42.1661 41.8928 41.252 40.389C40.0557 38.3876 38.486 36.6346 36.6284 35.2253L35.8513 34.6425C35.5755 34.4599 35.2841 34.2928 34.9965 34.118C34.709 33.9431 34.4254 33.7294 34.1107 33.6051L33.1665 33.1505L32.6886 32.9252L32.1835 32.7387L31.1617 32.3501C30.812 32.2374 30.4507 32.1636 30.0893 32.0665C29.7287 31.9594 29.3614 31.8763 28.9898 31.8178C28.2316 31.6746 27.4643 31.585 26.6935 31.5497C26.305 31.5497 25.9164 31.4992 25.5085 31.5031L24.3079 31.5653C24.1058 31.5653 23.9193 31.5653 23.7018 31.6041L23.0956 31.6974C22.7071 31.7673 22.2797 31.8139 21.8717 31.8955C21.0501 32.0788 20.2414 32.3164 19.4511 32.6066L18.8489 32.828L18.5458 32.9407L18.2544 33.0806L17.0888 33.6478C16.7003 33.8577 16.339 34.0985 15.9582 34.3239C15.7717 34.4443 15.5696 34.5454 15.3987 34.6775L14.8625 35.066C14.1388 35.6048 13.451 36.1902 12.8033 36.8183L11.8785 37.8324L11.6493 38.0888L11.4395 38.3647L11.0043 38.9475L10.5886 39.507L10.2195 40.1053L9.85814 40.7076L9.67164 41.0068C9.61724 41.1117 9.57062 41.2204 9.51622 41.3254L8.90234 42.6075C8.73915 43.0505 8.57208 43.5012 8.40889 43.9519C7.16034 47.6692 7.16034 51.6926 8.40889 55.4099L8.89845 56.7542C9.10826 57.1816 9.3103 57.609 9.51622 58.0325L9.67164 58.3511L9.85425 58.6542L10.2195 59.2564L10.5847 59.8508L11.0043 60.4103L11.4201 60.966L11.626 61.2457L11.8591 61.4982L12.7838 62.5162C13.4315 63.1443 14.1194 63.7297 14.8431 64.2685L15.3793 64.6571C15.5541 64.7892 15.7678 64.8902 15.9388 65.0106C16.3273 65.236 16.6848 65.4769 17.0694 65.6867L18.235 66.254L18.5264 66.3938L18.8295 66.5065L19.4317 66.728C20.222 67.0182 21.0306 67.2557 21.8523 67.439C22.2603 67.5206 22.6721 67.5672 23.0762 67.6371L23.6823 67.7304C23.8844 67.7576 24.0709 67.7537 24.2884 67.7692L25.489 67.8314C25.8776 67.8314 26.2661 67.7965 26.6741 67.7848C27.4461 67.7493 28.2147 67.6597 28.9742 67.5167C29.3453 67.4555 29.7125 67.3724 30.0738 67.268C30.4312 67.1709 30.7965 67.0971 31.1423 66.9805L32.1641 66.592L32.6692 66.4094L33.151 66.184L34.0951 65.7294C34.4099 65.5857 34.6857 65.3836 34.981 65.2166C35.2763 65.0495 35.5599 64.8746 35.8358 64.692L36.6129 64.1053C38.4713 62.6985 40.0411 60.9466 41.2365 58.9456C42.1506 57.4417 42.8317 55.8082 43.2569 54.1005C43.3385 53.7469 43.455 53.4244 43.4939 53.1058C43.5327 52.7872 43.591 52.4919 43.6338 52.2161C43.6765 51.9402 43.7231 51.6877 43.7503 51.439C43.7775 51.1903 43.7736 50.9922 43.7853 50.8018C43.8086 50.4133 43.828 50.1335 43.8397 49.9354C43.8513 49.7372 43.8669 49.6401 43.8669 49.6401C43.8669 49.6401 43.8669 49.7372 43.8669 49.9354C43.8669 50.1335 43.8669 50.4249 43.8358 50.8018C43.8358 50.9961 43.8164 51.2098 43.8086 51.4429C43.8008 51.676 43.7387 51.9324 43.7037 52.22C43.6687 52.5075 43.6182 52.795 43.5716 53.1136C43.5122 53.4514 43.4357 53.786 43.3423 54.116C42.9281 55.8364 42.2533 57.4834 41.3414 59C40.1479 61.0224 38.5738 62.7944 36.7061 64.218L35.929 64.8086C35.6493 64.9951 35.3579 65.1622 35.0704 65.3409C34.7816 65.5295 34.4833 65.7033 34.1767 65.8615L33.2248 66.32L32.743 66.5531L32.234 66.7396L31.2044 67.1282C30.8547 67.2447 30.4856 67.3224 30.1243 67.4196C29.7611 67.5288 29.3912 67.6144 29.0169 67.676C28.2471 67.8206 27.4682 67.9115 26.6857 67.948C26.2972 67.948 25.8892 68.0024 25.489 67.9985L24.2768 67.9363C24.0709 67.9363 23.8649 67.9363 23.6629 67.9014L23.049 67.8081C22.641 67.7382 22.2253 67.6915 21.8173 67.61C20.987 67.4241 20.1694 67.1853 19.3695 66.895L18.7595 66.6736C18.6585 66.6347 18.5536 66.5998 18.4526 66.557L18.1573 66.4171L16.9917 65.846C16.6032 65.6362 16.2146 65.3914 15.8494 65.166C15.659 65.0456 15.4609 64.9407 15.2821 64.8086L14.7382 64.4201C14.0068 63.8761 13.3111 63.2856 12.6556 62.6522L11.7231 61.6226L11.4861 61.3661L11.2763 61.0864L10.8567 60.523L10.4332 59.9596L10.0641 59.3574L9.69495 58.7474L9.50846 58.4443L9.34915 58.1219C9.14323 57.6906 8.9373 57.2593 8.72749 56.828L8.22628 55.4681C6.96494 51.7091 6.96494 47.641 8.22628 43.8819C8.39335 43.4273 8.56042 42.9766 8.72361 42.522L9.34915 41.2282C9.39966 41.1233 9.45017 41.0145 9.50457 40.9096L9.69107 40.6027L10.0602 39.9966L10.4293 39.3904L10.8528 38.8271L11.2724 38.2676L11.4861 37.9878L11.7192 37.7275C12.0301 37.3856 12.3448 37.0437 12.6517 36.7018C13.3067 36.0663 14.0038 35.4757 14.7382 34.9339L15.2782 34.5454C15.457 34.4094 15.6668 34.3084 15.8455 34.1879C16.234 33.9626 16.5993 33.7178 16.9878 33.508L18.1767 32.9368L18.4681 32.7969C18.5692 32.7542 18.6741 32.7192 18.7751 32.6804L19.3851 32.4589C20.1849 32.1686 21.0025 31.9298 21.8329 31.744C22.2214 31.6624 22.6566 31.6158 23.0645 31.5458L23.6784 31.4565C23.8805 31.4293 24.067 31.4293 24.2884 31.4176L25.5046 31.3555C25.8931 31.3555 26.305 31.3904 26.7013 31.406C27.4837 31.442 28.2627 31.5329 29.0325 31.678C29.4076 31.7401 29.7786 31.8244 30.1437 31.9305C30.5051 32.0315 30.8703 32.1092 31.2238 32.2258L32.2535 32.6143L32.7625 32.8008L33.2442 33.034L34.1962 33.4924C34.5109 33.6362 34.7906 33.8421 35.0859 34.0131C35.3812 34.184 35.6687 34.3589 35.9485 34.5454L36.7255 35.1359C38.5932 36.5595 40.1673 38.3315 41.3608 40.354C42.2733 41.867 42.9469 43.5118 43.3579 45.2302C43.4542 45.5597 43.5321 45.8944 43.591 46.2326C43.6376 46.5512 43.6804 46.8465 43.7231 47.1262C43.7659 47.406 43.8047 47.6546 43.828 47.9033C43.8513 48.152 43.8474 48.3501 43.8552 48.5444C43.8552 48.9329 43.8785 49.2088 43.8863 49.4108C43.8941 49.6129 43.8824 49.6983 43.8824 49.6983Z" fill="#3D515A"/>
</svg>
