<svg width="120" height="122" viewBox="0 0 120 122" fill="none" xmlns="http://www.w3.org/2000/svg">
<path d="M113.304 1H10.9045V121H113.304V1Z" fill="white" stroke="#3D515A" stroke-linecap="round" stroke-linejoin="round"/>
<path d="M113.3 1H10.9045V6.05212H113.3V1Z" fill="#7E7E7E" stroke="#3D515A" stroke-linecap="round" stroke-linejoin="round"/>
<path d="M101.386 3.36423C101.386 3.12474 101.315 2.89062 101.182 2.69149C101.049 2.49235 100.86 2.33715 100.638 2.2455C100.417 2.15385 100.174 2.12986 99.9388 2.17659C99.7039 2.22331 99.4881 2.33864 99.3188 2.50799C99.1494 2.67734 99.0341 2.8931 98.9874 3.128C98.9407 3.36289 98.9646 3.60636 99.0563 3.82763C99.1479 4.04889 99.3031 4.23801 99.5023 4.37107C99.7014 4.50413 99.9355 4.57515 100.175 4.57515C100.496 4.57515 100.804 4.44757 101.031 4.22048C101.258 3.99339 101.386 3.68539 101.386 3.36423Z" fill="white" stroke="#3D515A" stroke-linecap="round" stroke-linejoin="round"/>
<path d="M105.595 3.36423C105.595 3.12474 105.524 2.89062 105.391 2.69149C105.258 2.49235 105.069 2.33715 104.848 2.2455C104.627 2.15385 104.383 2.12986 104.148 2.17659C103.913 2.22331 103.698 2.33864 103.528 2.50799C103.359 2.67734 103.244 2.8931 103.197 3.128C103.15 3.36289 103.174 3.60636 103.266 3.82763C103.357 4.04889 103.513 4.23801 103.712 4.37107C103.911 4.50413 104.145 4.57515 104.384 4.57515C104.544 4.57515 104.701 4.54382 104.848 4.48297C104.995 4.42212 105.128 4.33292 105.241 4.22048C105.353 4.10803 105.442 3.97454 105.503 3.82763C105.564 3.68071 105.595 3.52325 105.595 3.36423Z" fill="white" stroke="#3D515A" stroke-linecap="round" stroke-linejoin="round"/>
<path d="M108.576 4.57514C109.245 4.57514 109.787 4.033 109.787 3.36423C109.787 2.69547 109.245 2.15332 108.576 2.15332C107.907 2.15332 107.365 2.69547 107.365 3.36423C107.365 4.033 107.907 4.57514 108.576 4.57514Z" fill="white" stroke="#3D515A" stroke-linecap="round" stroke-linejoin="round"/>
<path d="M58.3518 88.4785H16.0276V113.411H58.3518V88.4785Z" stroke="#3D515A" stroke-linecap="round" stroke-linejoin="round" stroke-dasharray="3 3"/>
<path d="M107.636 88.4785H65.3115V113.411H107.636V88.4785Z" stroke="#3D515A" stroke-linecap="round" stroke-linejoin="round" stroke-dasharray="3 3"/>
<path d="M107.214 12.9805H65.9946V80.4056H107.214V12.9805Z" stroke="#3D515A" stroke-linecap="round" stroke-linejoin="round" stroke-dasharray="3 3"/>
<path d="M113.3 15.7129H80.1882V83.138H113.3V15.7129Z" fill="#3D515A" stroke="#3D515A" stroke-linecap="round" stroke-linejoin="round"/>
<path d="M118.955 12.9805H77.7354V80.4056H118.955V12.9805Z" fill="white" stroke="#3D515A" stroke-linecap="round" stroke-linejoin="round"/>
<path d="M115.677 18.3384H81.0088V47.6486H115.677V18.3384Z" fill="#3D515A" stroke="#3D515A" stroke-linecap="round" stroke-linejoin="round"/>
<path d="M115.677 31.947L110.763 27.1743L103.12 37.0035L95.2026 32.3639L81.0088 47.6489H115.677V31.947Z" fill="#7E7E7E" stroke="#3D515A" stroke-linecap="round" stroke-linejoin="round"/>
<path d="M87.4225 28.8153C89.4582 28.8153 91.1085 27.165 91.1085 25.1293C91.1085 23.0936 89.4582 21.4434 87.4225 21.4434C85.3868 21.4434 83.7366 23.0936 83.7366 25.1293C83.7366 27.165 85.3868 28.8153 87.4225 28.8153Z" fill="#7E7E7E" stroke="#3D515A" stroke-linecap="round" stroke-linejoin="round"/>
<path d="M112.901 53.3794H114.857" stroke="#3D515A" stroke-linecap="round" stroke-linejoin="round"/>
<path d="M99.3499 53.3794H110.962" stroke="#3D515A" stroke-linecap="round" stroke-linejoin="round"/>
<path d="M88.6514 53.3794H97.3096" stroke="#3D515A" stroke-linecap="round" stroke-linejoin="round"/>
<path d="M81.2839 53.3794H86.4115" stroke="#3D515A" stroke-linecap="round" stroke-linejoin="round"/>
<path d="M111.064 59.9312H114.857" stroke="#3D515A" stroke-linecap="round" stroke-linejoin="round"/>
<path d="M97.9216 59.9312H109.946" stroke="#3D515A" stroke-linecap="round" stroke-linejoin="round"/>
<path d="M81.2839 59.9312H96.702" stroke="#3D515A" stroke-linecap="round" stroke-linejoin="round"/>
<path d="M92.7275 66.4868H114.857" stroke="#3D515A" stroke-linecap="round" stroke-linejoin="round"/>
<path d="M81.2839 66.4868H90.9934" stroke="#3D515A" stroke-linecap="round" stroke-linejoin="round"/>
<path d="M111.37 73.0381H114.857" stroke="#3D515A" stroke-linecap="round" stroke-linejoin="round"/>
<path d="M87.9373 73.0381H109.845" stroke="#3D515A" stroke-linecap="round" stroke-linejoin="round"/>
<path d="M81.2839 73.0381H86.5135" stroke="#3D515A" stroke-linecap="round" stroke-linejoin="round"/>
<path d="M56.9239 33.8763V74.7989H24.7393V67.2274H10.9048V21.9136H30.6342L35.225 26.3048V29.4895H52.3375L56.9239 33.8763Z" fill="#3D515A" stroke="#3D515A" stroke-linecap="round" stroke-linejoin="round"/>
<path d="M33.1845 63.7323H1V18.4185H28.5937L33.1845 22.8097V63.7323Z" fill="white" stroke="#3D515A" stroke-linecap="round" stroke-linejoin="round"/>
<path d="M28.5938 18.4185V22.9516H33.1846L28.5938 18.4185Z" fill="white" stroke="#3D515A" stroke-linecap="round" stroke-linejoin="round"/>
<path d="M12.3818 28.3408H27.5737" stroke="#3D515A" stroke-linecap="round" stroke-linejoin="round"/>
<path d="M6.74854 28.3408H10.7006" stroke="#3D515A" stroke-linecap="round" stroke-linejoin="round"/>
<path d="M20.064 34.604H27.5734" stroke="#3D515A" stroke-linecap="round" stroke-linejoin="round"/>
<path d="M6.74854 34.604H18.5072" stroke="#3D515A" stroke-linecap="round" stroke-linejoin="round"/>
<path d="M14.3025 40.8667H27.5737" stroke="#3D515A" stroke-linecap="round" stroke-linejoin="round"/>
<path d="M6.74854 40.8667H13.1047" stroke="#3D515A" stroke-linecap="round" stroke-linejoin="round"/>
<path d="M6.74854 47.1299H27.5735" stroke="#3D515A" stroke-linecap="round" stroke-linejoin="round"/>
<path d="M19.8245 53.3931H27.5734" stroke="#3D515A" stroke-linecap="round" stroke-linejoin="round"/>
<path d="M6.74854 53.3931H17.6645" stroke="#3D515A" stroke-linecap="round" stroke-linejoin="round"/>
<path d="M54.8835 71.3036H22.7034V25.9897H50.2971L54.8835 30.381V71.3036Z" fill="white" stroke="#3D515A" stroke-linecap="round" stroke-linejoin="round"/>
<path d="M50.2971 25.9897V30.5273H54.8835L50.2971 25.9897Z" fill="white" stroke="#3D515A" stroke-linecap="round" stroke-linejoin="round"/>
<path d="M37.4736 35.917H49.2767" stroke="#3D515A" stroke-linecap="round" stroke-linejoin="round"/>
<path d="M28.4473 35.917H36.0321" stroke="#3D515A" stroke-linecap="round" stroke-linejoin="round"/>
<path d="M45.7595 42.1797H49.2769" stroke="#3D515A" stroke-linecap="round" stroke-linejoin="round"/>
<path d="M28.4473 42.1797H44.4375" stroke="#3D515A" stroke-linecap="round" stroke-linejoin="round"/>
<path d="M46.8372 48.4429H49.2767" stroke="#3D515A" stroke-linecap="round" stroke-linejoin="round"/>
<path d="M33.3928 48.4429H45.2757" stroke="#3D515A" stroke-linecap="round" stroke-linejoin="round"/>
<path d="M28.4473 48.4429H31.3526" stroke="#3D515A" stroke-linecap="round" stroke-linejoin="round"/>
<path d="M39.2747 54.7061H49.2769" stroke="#3D515A" stroke-linecap="round" stroke-linejoin="round"/>
<path d="M28.4473 54.7061H37.7132" stroke="#3D515A" stroke-linecap="round" stroke-linejoin="round"/>
<path d="M38.7954 60.9692H49.2767" stroke="#3D515A" stroke-linecap="round" stroke-linejoin="round"/>
<path d="M28.4473 60.9692H37.1144" stroke="#3D515A" stroke-linecap="round" stroke-linejoin="round"/>
</svg>
